<?xml version="1.0" encoding="UTF-8"?>
<!DOCTYPE svg PUBLIC "-//W3C//DTD SVG 1.1//EN" "http://www.w3.org/Graphics/SVG/1.1/DTD/svg11.dtd">
<svg xmlns="http://www.w3.org/2000/svg" version="1.1" width="114px" height="115px" style="shape-rendering:geometricPrecision; text-rendering:geometricPrecision; image-rendering:optimizeQuality; fill-rule:evenodd; clip-rule:evenodd" xmlns:xlink="http://www.w3.org/1999/xlink">
<g><path style="opacity:1" fill="#70618d" d="M 46.5,6.5 C 75.3853,3.59795 94.8853,15.5979 105,42.5C 110.705,75.0905 97.8714,96.2572 66.5,106C 35.6704,109.181 15.8371,96.0141 7,66.5C 3.93802,35.5853 17.1047,15.5853 46.5,6.5 Z"/></g>
<g><path style="opacity:1" fill="#f2f1f5" d="M 46.5,10.5 C 74.6805,7.82722 93.1805,19.8272 102,46.5C 105.216,75.2589 93.0489,93.7589 65.5,102C 37.1282,104.907 18.9615,92.7404 11,65.5C 8.27455,37.5892 20.1079,19.2559 46.5,10.5 Z"/></g>
<g><path style="opacity:1" fill="#5c4b7d" d="M 46.5,14.5 C 72.3535,11.5691 89.5202,22.2358 98,46.5C 101.322,72.8048 90.4884,89.9715 65.5,98C 39.7155,100.868 22.8822,90.0347 15,65.5C 12.2503,40.1236 22.7503,23.1236 46.5,14.5 Z"/></g>
</svg>
