<?xml version="1.0" encoding="UTF-8"?>
<!DOCTYPE svg PUBLIC "-//W3C//DTD SVG 1.1//EN" "http://www.w3.org/Graphics/SVG/1.1/DTD/svg11.dtd">
<svg xmlns="http://www.w3.org/2000/svg" version="1.1" width="117px" height="118px" style="shape-rendering:geometricPrecision; text-rendering:geometricPrecision; image-rendering:optimizeQuality; fill-rule:evenodd; clip-rule:evenodd" xmlns:xlink="http://www.w3.org/1999/xlink">
<g><path style="opacity:1" fill="#928da4" d="M 51.5,4.5 C 55.9362,4.21011 60.2695,4.71011 64.5,6C 68.0159,8.87087 70.6826,12.3709 72.5,16.5C 100.535,28.7348 111.201,49.9015 104.5,80C 105.944,82.4485 107.778,84.6152 110,86.5C 114.051,102.446 107.885,109.946 91.5,109C 89.4127,108.208 87.5793,107.041 86,105.5C 66.3279,117.499 46.6612,117.499 27,105.5C 18.1579,111.548 10.1579,110.548 3,102.5C 1.54268,98.2589 1.20935,93.9255 2,89.5C 3.76097,86.0694 5.92764,82.9028 8.5,80C 1.79099,49.917 12.4577,28.7504 40.5,16.5C 42.8289,11.1752 46.4956,7.17516 51.5,4.5 Z M 55.5,14.5 C 60.3847,15.5298 61.718,18.3631 59.5,23C 55.5698,24.4211 52.9032,23.2545 51.5,19.5C 52.1598,17.1853 53.4931,15.5186 55.5,14.5 Z M 41.5,27.5 C 44.6632,29.8112 47.9965,31.9778 51.5,34C 59.2056,35.8126 65.539,33.6459 70.5,27.5C 92.3684,38.5689 100.035,55.9023 93.5,79.5C 85.4191,81.6066 81.0858,86.94 80.5,95.5C 69.6231,103.438 57.6231,105.605 44.5,102C 39.9715,100.486 35.8048,98.3194 32,95.5C 31.7148,87.0563 27.5481,81.723 19.5,79.5C 13.1252,56.2601 20.4585,38.9268 41.5,27.5 Z M 15.5,89.5 C 20.3847,90.5298 21.718,93.3631 19.5,98C 15.5698,99.4211 12.9032,98.2545 11.5,94.5C 12.1598,92.1853 13.4931,90.5186 15.5,89.5 Z M 95.5,89.5 C 100.385,90.5298 101.718,93.3631 99.5,98C 95.5698,99.4211 92.9032,98.2545 91.5,94.5C 92.1598,92.1853 93.4931,90.5186 95.5,89.5 Z"/></g>
</svg>
