<?xml version="1.0" encoding="UTF-8"?>
<!DOCTYPE svg PUBLIC "-//W3C//DTD SVG 1.1//EN" "http://www.w3.org/Graphics/SVG/1.1/DTD/svg11.dtd">
<svg xmlns="http://www.w3.org/2000/svg" version="1.1" width="214px" height="213px" style="shape-rendering:geometricPrecision; text-rendering:geometricPrecision; image-rendering:optimizeQuality; fill-rule:evenodd; clip-rule:evenodd" xmlns:xlink="http://www.w3.org/1999/xlink">
<g><path style="opacity:0.992" fill="#f3db4a" d="M 115.5,0.5 C 119.387,0.645934 123.054,1.3126 126.5,2.5C 124.369,4.02118 122.203,4.68784 120,4.5C 117.942,3.89051 117.109,2.89051 117.5,1.5C 112.375,8.03596 111.708,7.70263 115.5,0.5 Z"/></g>
<g><path style="opacity:1" fill="#efca35" d="M 112.5,0.5 C 113.5,0.5 114.5,0.5 115.5,0.5C 111.708,7.70263 112.375,8.03596 117.5,1.5C 117.109,2.89051 117.942,3.89051 120,4.5C 122.203,4.68784 124.369,4.02118 126.5,2.5C 127.167,2.5 127.833,2.5 128.5,2.5C 128.167,3.16667 127.833,3.83333 127.5,4.5C 124.306,4.17556 123.306,5.34223 124.5,8C 121.83,8.54265 119.33,8.04265 117,6.5C 115.699,6.63874 114.866,7.30541 114.5,8.5C 113.292,9.23411 111.959,9.56745 110.5,9.5C 110.719,10.675 110.386,11.675 109.5,12.5C 109.39,10.9018 109.057,9.23516 108.5,7.5C 105.087,5.91478 102.087,6.41478 99.5,9C 102.332,9.21206 104.998,9.37873 107.5,9.5C 104.634,10.208 101.8,10.8747 99,11.5C 98.3086,9.10882 97.3086,9.10882 96,11.5C 95.2935,9.91941 94.4601,8.41941 93.5,7C 94.7155,4.90449 95.5488,5.07116 96,7.5C 96.4741,2.37305 97.4741,2.37305 99,7.5C 99.2492,6.37598 99.7492,5.37598 100.5,4.5C 104.008,5.27451 107.341,5.27451 110.5,4.5C 113.028,3.50219 113.028,2.66885 110.5,2C 111.044,1.28281 111.711,0.782815 112.5,0.5 Z"/></g>
<g><path style="opacity:1" fill="#f3df51" d="M 128.5,2.5 C 134.703,3.62304 140.703,5.45638 146.5,8C 140.391,11.6455 134.057,14.8122 127.5,17.5C 127.746,14.5299 129.412,13.1966 132.5,13.5C 132.649,12.448 132.483,11.448 132,10.5C 130.636,11.2583 129.469,10.7583 128.5,9C 129.051,7.60151 129.384,6.26818 129.5,5C 128.906,4.53566 128.239,4.36899 127.5,4.5C 127.833,3.83333 128.167,3.16667 128.5,2.5 Z"/></g>
<g><path style="opacity:1" fill="#f1d741" d="M 127.5,4.5 C 128.239,4.36899 128.906,4.53566 129.5,5C 129.384,6.26818 129.051,7.60151 128.5,9C 129.469,10.7583 130.636,11.2583 132,10.5C 132.483,11.448 132.649,12.448 132.5,13.5C 129.412,13.1966 127.746,14.5299 127.5,17.5C 123.5,19.1667 119.5,20.8333 115.5,22.5C 116.229,18.4842 115.396,18.4842 113,22.5C 110.46,21.1235 108.46,21.7902 107,24.5C 107.134,22.8107 107.634,21.144 108.5,19.5C 106.577,19.205 104.91,18.3717 103.5,17C 105.421,16.6397 107.088,15.8064 108.5,14.5C 108.833,15.1667 109.167,15.8333 109.5,16.5C 110.192,15.9747 110.692,15.3081 111,14.5C 113.081,15.3331 115.248,15.3331 117.5,14.5C 117.5,13.5 117.5,12.5 117.5,11.5C 116.5,11.5 115.5,11.5 114.5,11.5C 114.5,10.5 114.5,9.5 114.5,8.5C 114.866,7.30541 115.699,6.63874 117,6.5C 119.33,8.04265 121.83,8.54265 124.5,8C 123.306,5.34223 124.306,4.17556 127.5,4.5 Z"/></g>
<g><path style="opacity:1" fill="#f8e860" d="M 108.5,19.5 C 108.611,18.8826 108.944,18.3826 109.5,18C 113.943,17.1283 118.276,15.9616 122.5,14.5C 121.945,10.4159 122.945,9.74921 125.5,12.5C 124.137,13.8928 123.304,15.5595 123,17.5C 122.667,16.8333 122.333,16.1667 122,15.5C 117.709,17.5634 113.209,18.8968 108.5,19.5 Z"/></g>
<g><path style="opacity:1" fill="#f5e35b" d="M 88.5,15.5 C 87.9717,16.7206 87.305,17.8873 86.5,19C 80.9665,24.0369 75.2998,28.8703 69.5,33.5C 69.0618,33.5654 68.7284,33.3988 68.5,33C 69.3805,32.2917 70.0472,31.4584 70.5,30.5C 74.2543,28.2524 77.5876,25.419 80.5,22C 77.7698,22.3457 75.4365,23.679 73.5,26C 71.8654,26.5396 70.5321,26.0396 69.5,24.5C 68.2842,27.2505 66.2842,28.4172 63.5,28C 67.7063,26.3397 68.373,23.8397 65.5,20.5C 66.3805,19.0295 67.7139,18.1962 69.5,18C 68.2888,17.1072 68.2888,16.2739 69.5,15.5C 70.3333,16.5 71.1667,17.5 72,18.5C 72.9803,17.0186 74.147,15.6853 75.5,14.5C 76.1924,15.0253 76.6924,15.6919 77,16.5C 79.9386,14.6031 83.1053,13.7697 86.5,14C 83.3355,17.5897 79.3355,19.423 74.5,19.5C 73.1667,20.1667 73.1667,20.8333 74.5,21.5C 79.7538,20.5315 84.4204,18.5315 88.5,15.5 Z"/></g>
<g><path style="opacity:1" fill="#f2de4e" d="M 98.5,-0.5 C 103.167,-0.5 107.833,-0.5 112.5,-0.5C 112.5,-0.166667 112.5,0.166667 112.5,0.5C 111.711,0.782815 111.044,1.28281 110.5,2C 113.028,2.66885 113.028,3.50219 110.5,4.5C 107.341,5.27451 104.008,5.27451 100.5,4.5C 99.7492,5.37598 99.2492,6.37598 99,7.5C 97.4741,2.37305 96.4741,2.37305 96,7.5C 95.5488,5.07116 94.7155,4.90449 93.5,7C 94.4601,8.41941 95.2935,9.91941 96,11.5C 97.3086,9.10882 98.3086,9.10882 99,11.5C 101.8,10.8747 104.634,10.208 107.5,9.5C 104.998,9.37873 102.332,9.21206 99.5,9C 102.087,6.41478 105.087,5.91478 108.5,7.5C 109.057,9.23516 109.39,10.9018 109.5,12.5C 110.386,11.675 110.719,10.675 110.5,9.5C 111.959,9.56745 113.292,9.23411 114.5,8.5C 114.5,9.5 114.5,10.5 114.5,11.5C 115.5,11.5 116.5,11.5 117.5,11.5C 117.5,12.5 117.5,13.5 117.5,14.5C 115.248,15.3331 113.081,15.3331 111,14.5C 110.692,15.3081 110.192,15.9747 109.5,16.5C 109.167,15.8333 108.833,15.1667 108.5,14.5C 107.088,15.8064 105.421,16.6397 103.5,17C 104.91,18.3717 106.577,19.205 108.5,19.5C 107.634,21.144 107.134,22.8107 107,24.5C 108.46,21.7902 110.46,21.1235 113,22.5C 115.396,18.4842 116.229,18.4842 115.5,22.5C 105.387,26.7601 95.0537,30.4267 84.5,33.5C 82.2547,33.4588 81.5881,32.6255 82.5,31C 84.5364,30.5464 86.3697,29.7131 88,28.5C 90.4696,29.288 92.3029,28.288 93.5,25.5C 91.7073,26.1204 89.7073,26.1204 87.5,25.5C 86.8333,26.1667 86.1667,26.8333 85.5,27.5C 84.7379,26.3717 84.0712,25.2051 83.5,24C 85.1305,21.1953 87.4639,19.362 90.5,18.5C 90.5106,16.9826 91.1772,15.8159 92.5,15C 91.0715,14.4209 89.7382,14.5876 88.5,15.5C 88.4257,13.5891 87.4257,12.4224 85.5,12C 87.1667,11.6667 88.8333,11.3333 90.5,11C 88.2647,9.64296 85.9314,9.80962 83.5,11.5C 82.2997,10.4688 80.9663,9.63547 79.5,9C 82.2756,8.93429 84.4423,7.76763 86,5.5C 86.6036,7.6857 87.7703,7.85237 89.5,6C 91.0653,4.49427 91.3986,2.99427 90.5,1.5C 93.1667,0.833333 95.8333,0.166667 98.5,-0.5 Z"/></g>
<g><path style="opacity:1" fill="#e7bc2d" d="M 90.5,18.5 C 91.4734,18.9867 92.4734,19.4867 93.5,20C 91.5805,22.9599 88.9138,24.2932 85.5,24C 87.3734,22.2962 89.0401,20.4628 90.5,18.5 Z"/></g>
<g><path style="opacity:1" fill="#ebc53c" d="M 40.5,22.5 C 40.3893,23.1174 40.056,23.6174 39.5,24C 41.9005,24.1858 44.2338,24.6858 46.5,25.5C 45.45,27.1017 46.1167,27.935 48.5,28C 47.7801,30.1223 46.6134,30.6223 45,29.5C 42.8083,30.3995 40.6416,31.3995 38.5,32.5C 37.7025,32.9569 37.3691,33.6236 37.5,34.5C 34.5757,35.3659 31.5757,36.3659 28.5,37.5C 29.1667,38.1667 29.8333,38.8333 30.5,39.5C 30.1667,39.8333 29.8333,40.1667 29.5,40.5C 27.8273,38.9137 25.8273,38.2471 23.5,38.5C 27.9012,31.7638 33.5678,26.4305 40.5,22.5 Z"/></g>
<g><path style="opacity:1" fill="#f2d94e" d="M 49.5,31.5 C 46.9561,32.4679 44.7895,34.1345 43,36.5C 42.5,36 42,35.5 41.5,35C 42.6721,34.5814 43.6721,33.9147 44.5,33C 41.9348,32.3911 39.6015,32.8911 37.5,34.5C 37.3691,33.6236 37.7025,32.9569 38.5,32.5C 40.6416,31.3995 42.8083,30.3995 45,29.5C 46.6134,30.6223 47.7801,30.1223 48.5,28C 46.1167,27.935 45.45,27.1017 46.5,25.5C 44.2338,24.6858 41.9005,24.1858 39.5,24C 40.056,23.6174 40.3893,23.1174 40.5,22.5C 41.1174,22.6107 41.6174,22.944 42,23.5C 44.4215,20.8841 45.9215,20.8841 46.5,23.5C 47.7678,22.5721 49.1011,22.4054 50.5,23C 50.1667,23.3333 49.8333,23.6667 49.5,24C 50.4162,24.3742 51.2496,24.8742 52,25.5C 54.1567,22.9218 55.3233,22.9218 55.5,25.5C 56.4724,23.3635 58.1391,22.1968 60.5,22C 57.6655,15.1644 58.9988,14.1644 64.5,19C 62.3517,21.0749 62.0183,23.4082 63.5,26C 61.0861,28.9581 58.5861,29.1247 56,26.5C 53.0991,27.2367 50.9325,28.9033 49.5,31.5 Z"/></g>
<g><path style="opacity:1" fill="#ebcb3d" d="M 90.5,18.5 C 87.4639,19.362 85.1305,21.1953 83.5,24C 84.0712,25.2051 84.7379,26.3717 85.5,27.5C 86.1667,26.8333 86.8333,26.1667 87.5,25.5C 89.7073,26.1204 91.7073,26.1204 93.5,25.5C 92.3029,28.288 90.4696,29.288 88,28.5C 86.3697,29.7131 84.5364,30.5464 82.5,31C 81.5881,32.6255 82.2547,33.4588 84.5,33.5C 82.6976,34.4582 80.6976,35.1249 78.5,35.5C 80.8453,30.7051 80.012,30.3718 76,34.5C 75.6667,33.8333 75.3333,33.1667 75,32.5C 73.6106,34.2273 71.9439,35.5606 70,36.5C 68.3167,35.8235 68.1501,34.8235 69.5,33.5C 75.2998,28.8703 80.9665,24.0369 86.5,19C 87.305,17.8873 87.9717,16.7206 88.5,15.5C 89.7382,14.5876 91.0715,14.4209 92.5,15C 91.1772,15.8159 90.5106,16.9826 90.5,18.5 Z"/></g>
<g><path style="opacity:1" fill="#f0d040" d="M 90.5,1.5 C 91.3986,2.99427 91.0653,4.49427 89.5,6C 87.7703,7.85237 86.6036,7.6857 86,5.5C 84.4423,7.76763 82.2756,8.93429 79.5,9C 80.9663,9.63547 82.2997,10.4688 83.5,11.5C 85.9314,9.80962 88.2647,9.64296 90.5,11C 88.8333,11.3333 87.1667,11.6667 85.5,12C 87.4257,12.4224 88.4257,13.5891 88.5,15.5C 84.4204,18.5315 79.7538,20.5315 74.5,21.5C 73.1667,20.8333 73.1667,20.1667 74.5,19.5C 79.3355,19.423 83.3355,17.5897 86.5,14C 83.1053,13.7697 79.9386,14.6031 77,16.5C 76.6924,15.6919 76.1924,15.0253 75.5,14.5C 74.147,15.6853 72.9803,17.0186 72,18.5C 71.1667,17.5 70.3333,16.5 69.5,15.5C 68.2888,16.2739 68.2888,17.1072 69.5,18C 67.7139,18.1962 66.3805,19.0295 65.5,20.5C 68.373,23.8397 67.7063,26.3397 63.5,28C 66.2842,28.4172 68.2842,27.2505 69.5,24.5C 70.5321,26.0396 71.8654,26.5396 73.5,26C 75.4365,23.679 77.7698,22.3457 80.5,22C 77.5876,25.419 74.2543,28.2524 70.5,30.5C 69.2502,30.4226 68.4169,29.756 68,28.5C 66.1246,29.7424 64.2913,31.0758 62.5,32.5C 61.0353,31.3913 60.0353,31.8913 59.5,34C 56.905,34.2256 54.405,34.7256 52,35.5C 51.6667,34.1667 51.3333,32.8333 51,31.5C 50.6174,32.056 50.1174,32.3893 49.5,32.5C 49.5,32.1667 49.5,31.8333 49.5,31.5C 50.9325,28.9033 53.0991,27.2367 56,26.5C 58.5861,29.1247 61.0861,28.9581 63.5,26C 62.0183,23.4082 62.3517,21.0749 64.5,19C 58.9988,14.1644 57.6655,15.1644 60.5,22C 58.1391,22.1968 56.4724,23.3635 55.5,25.5C 55.3233,22.9218 54.1567,22.9218 52,25.5C 51.2496,24.8742 50.4162,24.3742 49.5,24C 49.8333,23.6667 50.1667,23.3333 50.5,23C 49.1011,22.4054 47.7678,22.5721 46.5,23.5C 45.9215,20.8841 44.4215,20.8841 42,23.5C 41.6174,22.944 41.1174,22.6107 40.5,22.5C 54.9718,10.6065 71.6384,3.60647 90.5,1.5 Z"/></g>
<g><path style="opacity:1" fill="#f3dc4f" d="M 70.5,30.5 C 70.0472,31.4584 69.3805,32.2917 68.5,33C 68.7284,33.3988 69.0618,33.5654 69.5,33.5C 68.1501,34.8235 68.3167,35.8235 70,36.5C 71.9439,35.5606 73.6106,34.2273 75,32.5C 75.3333,33.1667 75.6667,33.8333 76,34.5C 80.012,30.3718 80.8453,30.7051 78.5,35.5C 66.0396,38.9102 53.3729,41.2435 40.5,42.5C 40.5,41.8333 40.5,41.1667 40.5,40.5C 41.5,40.5 42.5,40.5 43.5,40.5C 44.3972,37.0392 46.3972,34.3725 49.5,32.5C 50.1174,32.3893 50.6174,32.056 51,31.5C 51.3333,32.8333 51.6667,34.1667 52,35.5C 54.405,34.7256 56.905,34.2256 59.5,34C 60.0353,31.8913 61.0353,31.3913 62.5,32.5C 64.2913,31.0758 66.1246,29.7424 68,28.5C 68.4169,29.756 69.2502,30.4226 70.5,30.5 Z"/></g>
<g><path style="opacity:1" fill="#f6e74e" d="M 167.5,29.5 C 168.738,29.81 168.738,30.31 167.5,31C 164.761,31.9118 162.428,33.4118 160.5,35.5C 162.167,36.8333 163.833,36.8333 165.5,35.5C 165.291,34.914 164.957,34.414 164.5,34C 167.564,31.5461 170.23,31.5461 172.5,34C 171.663,35.0113 171.33,36.1779 171.5,37.5C 168.561,37.918 166.228,39.418 164.5,42C 165.167,42.3333 165.833,42.6667 166.5,43C 164.99,43.8498 163.49,44.6831 162,45.5C 160.174,44.9896 160.007,44.1562 161.5,43C 160.552,42.5172 159.552,42.3505 158.5,42.5C 158.5,44.5 158.5,46.5 158.5,48.5C 157.167,48.5 155.833,48.5 154.5,48.5C 154.721,47.2652 155.388,46.2652 156.5,45.5C 154.389,44.1515 152.555,44.4848 151,46.5C 148.982,43.526 149.649,42.526 153,43.5C 153.311,42.2575 152.811,41.2575 151.5,40.5C 152.32,38.8888 153.654,38.2222 155.5,38.5C 155.649,37.448 155.483,36.448 155,35.5C 154.292,36.3805 153.458,37.0472 152.5,37.5C 152.5,36.8333 152.5,36.1667 152.5,35.5C 157.265,33.129 162.265,31.129 167.5,29.5 Z"/></g>
<g><path style="opacity:1" fill="#f5e555" d="M 179.5,29.5 C 182.881,31.8797 185.547,34.8797 187.5,38.5C 187.5,39.5 187.5,40.5 187.5,41.5C 183.625,43.177 179.625,44.677 175.5,46C 175.167,46.3333 174.833,46.6667 174.5,47C 175.956,47.4226 176.456,48.2559 176,49.5C 174.307,50.1845 172.807,51.1845 171.5,52.5C 170.378,50.9564 170.711,49.623 172.5,48.5C 171.675,47.6143 170.675,47.281 169.5,47.5C 169.728,49.3547 169.061,50.1881 167.5,50C 167.929,46.9531 167.929,43.7864 167.5,40.5C 169.484,40.6168 171.15,39.9501 172.5,38.5C 173.167,38.8333 173.833,39.1667 174.5,39.5C 176.451,37.7711 177.618,35.7711 178,33.5C 176.887,35.3293 175.387,36.1626 173.5,36C 174.998,33.3363 176.998,31.1696 179.5,29.5 Z"/></g>
<g><path style="opacity:0.988" fill="#f8de57" d="M 40.5,40.5 C 38.368,40.5544 37.0347,41.5544 36.5,43.5C 34.8333,43.5 33.1667,43.5 31.5,43.5C 33.1524,40.3933 35.8191,38.7266 39.5,38.5C 40.2975,38.9569 40.6309,39.6236 40.5,40.5 Z"/></g>
<g><path style="opacity:1" fill="#e0b428" d="M 40.5,40.5 C 40.5,41.1667 40.5,41.8333 40.5,42.5C 39.4324,43.4345 38.099,43.7678 36.5,43.5C 37.0347,41.5544 38.368,40.5544 40.5,40.5 Z"/></g>
<g><path style="opacity:1" fill="#e9ba2f" d="M 49.5,31.5 C 49.5,31.8333 49.5,32.1667 49.5,32.5C 46.3972,34.3725 44.3972,37.0392 43.5,40.5C 42.5,40.5 41.5,40.5 40.5,40.5C 40.6309,39.6236 40.2975,38.9569 39.5,38.5C 35.8191,38.7266 33.1524,40.3933 31.5,43.5C 27.1712,44.3385 23.0045,45.0052 19,45.5C 19.4538,42.614 20.9538,40.2806 23.5,38.5C 25.8273,38.2471 27.8273,38.9137 29.5,40.5C 29.8333,40.1667 30.1667,39.8333 30.5,39.5C 29.8333,38.8333 29.1667,38.1667 28.5,37.5C 31.5757,36.3659 34.5757,35.3659 37.5,34.5C 39.6015,32.8911 41.9348,32.3911 44.5,33C 43.6721,33.9147 42.6721,34.5814 41.5,35C 42,35.5 42.5,36 43,36.5C 44.7895,34.1345 46.9561,32.4679 49.5,31.5 Z"/></g>
<g><path style="opacity:1" fill="#f8ee63" d="M 179.5,29.5 C 176.998,31.1696 174.998,33.3363 173.5,36C 175.387,36.1626 176.887,35.3293 178,33.5C 177.618,35.7711 176.451,37.7711 174.5,39.5C 173.833,39.1667 173.167,38.8333 172.5,38.5C 171.15,39.9501 169.484,40.6168 167.5,40.5C 167.929,43.7864 167.929,46.9531 167.5,50C 169.061,50.1881 169.728,49.3547 169.5,47.5C 170.675,47.281 171.675,47.6143 172.5,48.5C 170.711,49.623 170.378,50.9564 171.5,52.5C 172.807,51.1845 174.307,50.1845 176,49.5C 176.456,48.2559 175.956,47.4226 174.5,47C 174.833,46.6667 175.167,46.3333 175.5,46C 179.625,44.677 183.625,43.177 187.5,41.5C 187.5,40.5 187.5,39.5 187.5,38.5C 189.969,41.1438 192.302,43.9772 194.5,47C 185.435,51.0362 176.102,54.2029 166.5,56.5C 164.914,55.8519 163.247,55.3519 161.5,55C 163.526,52.7951 165.192,50.2951 166.5,47.5C 165.609,46.4104 164.609,46.4104 163.5,47.5C 162.702,49.0777 162.202,50.7444 162,52.5C 159.929,51.8971 158.762,50.5638 158.5,48.5C 158.5,46.5 158.5,44.5 158.5,42.5C 159.552,42.3505 160.552,42.5172 161.5,43C 160.007,44.1562 160.174,44.9896 162,45.5C 163.49,44.6831 164.99,43.8498 166.5,43C 165.833,42.6667 165.167,42.3333 164.5,42C 166.228,39.418 168.561,37.918 171.5,37.5C 171.33,36.1779 171.663,35.0113 172.5,34C 170.23,31.5461 167.564,31.5461 164.5,34C 164.957,34.414 165.291,34.914 165.5,35.5C 163.833,36.8333 162.167,36.8333 160.5,35.5C 162.428,33.4118 164.761,31.9118 167.5,31C 168.738,30.31 168.738,29.81 167.5,29.5C 169.754,28.1314 172.254,27.1314 175,26.5C 177.183,26.5221 178.683,27.5221 179.5,29.5 Z"/></g>
<g><path style="opacity:1" fill="#f7e959" d="M 123.5,56.5 C 122.07,56.5792 120.736,56.2458 119.5,55.5C 118.5,56.5 117.5,57.5 116.5,58.5C 117.935,63.2546 116.268,64.5879 111.5,62.5C 112.313,61.1861 113.313,60.0195 114.5,59C 113.328,58.6466 112.162,58.8132 111,59.5C 109.174,58.9896 109.007,58.1562 110.5,57C 109.833,56.6667 109.167,56.3333 108.5,56C 109.728,53.8601 111.395,52.1934 113.5,51C 111.189,51.1554 108.856,51.1554 106.5,51C 108.066,50.3918 109.4,49.5585 110.5,48.5C 117.368,46.1003 124.368,44.1003 131.5,42.5C 142.29,39.9145 143.29,42.0812 134.5,49C 135.5,49.3333 136.5,49.6667 137.5,50C 135.579,50.3603 133.912,51.1936 132.5,52.5C 131.206,46.1494 130.206,46.4828 129.5,53.5C 126.911,53.461 124.911,54.461 123.5,56.5 Z"/></g>
<g><path style="opacity:1" fill="#f4df48" d="M 152.5,35.5 C 152.5,36.1667 152.5,36.8333 152.5,37.5C 150.04,37.6985 147.707,38.3652 145.5,39.5C 146.729,40.2811 148.062,40.7811 149.5,41C 146.332,41.5823 145.999,42.5823 148.5,44C 147.5,44.3333 146.5,44.6667 145.5,45C 146.672,45.4186 147.672,46.0853 148.5,47C 146.051,47.7246 143.717,48.7246 141.5,50C 143.167,50.3333 144.833,50.6667 146.5,51C 144.939,51.3176 143.772,52.1509 143,53.5C 142.586,53.0426 142.086,52.7093 141.5,52.5C 139.33,54.0862 136.996,55.4196 134.5,56.5C 133.201,55.91 132.368,54.91 132,53.5C 129.508,55.4971 126.675,56.4971 123.5,56.5C 124.911,54.461 126.911,53.461 129.5,53.5C 130.206,46.4828 131.206,46.1494 132.5,52.5C 133.912,51.1936 135.579,50.3603 137.5,50C 136.5,49.6667 135.5,49.3333 134.5,49C 143.29,42.0812 142.29,39.9145 131.5,42.5C 138.216,39.5946 145.216,37.2613 152.5,35.5 Z"/></g>
<g><path style="opacity:1" fill="#f8e95b" d="M 154.5,48.5 C 153.45,48.9046 153.45,49.5712 154.5,50.5C 150.839,51.3415 147.506,52.8415 144.5,55C 146.527,55.4978 148.527,55.3311 150.5,54.5C 152.373,54.4823 152.706,54.9823 151.5,56C 148.15,56.837 144.984,57.337 142,57.5C 140.989,57.1081 140.489,56.4415 140.5,55.5C 135.19,58.4114 129.523,60.2448 123.5,61C 125.025,62.0086 126.692,62.5086 128.5,62.5C 125.12,63.6674 121.787,63.1674 118.5,61C 121.491,60.8552 123.158,59.3552 123.5,56.5C 126.675,56.4971 129.508,55.4971 132,53.5C 132.368,54.91 133.201,55.91 134.5,56.5C 136.996,55.4196 139.33,54.0862 141.5,52.5C 142.086,52.7093 142.586,53.0426 143,53.5C 143.772,52.1509 144.939,51.3176 146.5,51C 144.833,50.6667 143.167,50.3333 141.5,50C 143.717,48.7246 146.051,47.7246 148.5,47C 147.672,46.0853 146.672,45.4186 145.5,45C 146.5,44.6667 147.5,44.3333 148.5,44C 145.999,42.5823 146.332,41.5823 149.5,41C 148.062,40.7811 146.729,40.2811 145.5,39.5C 147.707,38.3652 150.04,37.6985 152.5,37.5C 153.458,37.0472 154.292,36.3805 155,35.5C 155.483,36.448 155.649,37.448 155.5,38.5C 153.654,38.2222 152.32,38.8888 151.5,40.5C 152.811,41.2575 153.311,42.2575 153,43.5C 149.649,42.526 148.982,43.526 151,46.5C 152.555,44.4848 154.389,44.1515 156.5,45.5C 155.388,46.2652 154.721,47.2652 154.5,48.5 Z"/></g>
<g><path style="opacity:1" fill="#f5df4e" d="M 110.5,48.5 C 109.4,49.5585 108.066,50.3918 106.5,51C 108.856,51.1554 111.189,51.1554 113.5,51C 111.395,52.1934 109.728,53.8601 108.5,56C 109.167,56.3333 109.833,56.6667 110.5,57C 109.007,58.1562 109.174,58.9896 111,59.5C 112.162,58.8132 113.328,58.6466 114.5,59C 113.313,60.0195 112.313,61.1861 111.5,62.5C 116.268,64.5879 117.935,63.2546 116.5,58.5C 117.5,57.5 118.5,56.5 119.5,55.5C 120.736,56.2458 122.07,56.5792 123.5,56.5C 123.158,59.3552 121.491,60.8552 118.5,61C 121.787,63.1674 125.12,63.6674 128.5,62.5C 129.978,62.238 131.311,62.5713 132.5,63.5C 127.995,64.7492 123.495,64.7492 119,63.5C 115.362,65.1848 111.529,65.8514 107.5,65.5C 107.5,66.5 107.5,67.5 107.5,68.5C 104.447,67.5763 101.447,67.5763 98.5,68.5C 99.9526,67.1751 99.6192,66.3418 97.5,66C 98.5634,64.8118 99.8967,64.3118 101.5,64.5C 101.657,63.1266 101.49,61.7932 101,60.5C 99.6054,61.8146 98.6054,61.4812 98,59.5C 94.4125,63.0124 90.2458,65.1791 85.5,66C 87.9757,64.6912 89.9757,62.8579 91.5,60.5C 91,60.1667 90.5,59.8333 90,59.5C 87.8651,60.8811 85.5318,61.8811 83,62.5C 81.91,60.8841 80.7433,60.2175 79.5,60.5C 82.7737,59.5298 85.7737,58.0298 88.5,56C 85.6917,55.0799 83.5251,55.9133 82,58.5C 79.1999,54.3131 77.6999,54.6464 77.5,59.5C 76.1266,59.3433 74.7932,59.51 73.5,60C 75.5951,60.5556 75.7618,61.0556 74,61.5C 72.7753,61.1377 71.6086,60.6377 70.5,60C 71.7332,58.3333 73.0665,56.8333 74.5,55.5C 86.4209,53.3987 98.4209,51.0654 110.5,48.5 Z"/></g>
<g><path style="opacity:1" fill="#f3dc47" d="M 166.5,56.5 C 156.492,60.256 146.159,63.256 135.5,65.5C 133.752,64.2106 133.419,62.7106 134.5,61C 132.225,60.595 130.225,61.095 128.5,62.5C 126.692,62.5086 125.025,62.0086 123.5,61C 129.523,60.2448 135.19,58.4114 140.5,55.5C 140.489,56.4415 140.989,57.1081 142,57.5C 144.984,57.337 148.15,56.837 151.5,56C 152.706,54.9823 152.373,54.4823 150.5,54.5C 148.527,55.3311 146.527,55.4978 144.5,55C 147.506,52.8415 150.839,51.3415 154.5,50.5C 153.45,49.5712 153.45,48.9046 154.5,48.5C 155.833,48.5 157.167,48.5 158.5,48.5C 158.762,50.5638 159.929,51.8971 162,52.5C 162.202,50.7444 162.702,49.0777 163.5,47.5C 164.609,46.4104 165.609,46.4104 166.5,47.5C 165.192,50.2951 163.526,52.7951 161.5,55C 163.247,55.3519 164.914,55.8519 166.5,56.5 Z"/></g>
<g><path style="opacity:1" fill="#f2d542" d="M 68.5,55.5 C 70.5,55.5 72.5,55.5 74.5,55.5C 73.0665,56.8333 71.7332,58.3333 70.5,60C 71.6086,60.6377 72.7753,61.1377 74,61.5C 75.7618,61.0556 75.5951,60.5556 73.5,60C 74.7932,59.51 76.1266,59.3433 77.5,59.5C 77.6999,54.6464 79.1999,54.3131 82,58.5C 83.5251,55.9133 85.6917,55.0799 88.5,56C 85.7737,58.0298 82.7737,59.5298 79.5,60.5C 80.7433,60.2175 81.91,60.8841 83,62.5C 85.5318,61.8811 87.8651,60.8811 90,59.5C 90.5,59.8333 91,60.1667 91.5,60.5C 89.9757,62.8579 87.9757,64.6912 85.5,66C 90.2458,65.1791 94.4125,63.0124 98,59.5C 98.6054,61.4812 99.6054,61.8146 101,60.5C 101.49,61.7932 101.657,63.1266 101.5,64.5C 99.8967,64.3118 98.5634,64.8118 97.5,66C 99.6192,66.3418 99.9526,67.1751 98.5,68.5C 97.2113,69.5009 95.8779,69.3342 94.5,68C 97.1675,65.5909 97.0008,64.4242 94,64.5C 93.6851,67.1468 92.5184,67.8135 90.5,66.5C 88.4595,67.2357 86.4595,68.0691 84.5,69C 85.5,69.3333 86.5,69.6667 87.5,70C 83.6327,71.9875 83.6327,72.4875 87.5,71.5C 88.2975,71.9569 88.6309,72.6236 88.5,73.5C 82.8333,73.5 77.1667,73.5 71.5,73.5C 71.4297,70.1716 71.0963,67.1716 70.5,64.5C 67.8905,64.6532 65.5571,65.9865 63.5,68.5C 61.4706,67.3707 61.1373,67.8707 62.5,70C 63.7376,69.9227 64.7376,70.0894 65.5,70.5C 65.1667,71.5 64.5,72.1667 63.5,72.5C 62.5745,71.3595 61.7412,71.3595 61,72.5C 60.5034,70.1902 60.3367,67.8568 60.5,65.5C 64.4969,66.332 67.1636,64.832 68.5,61C 67.8333,60.3333 67.1667,60.3333 66.5,61C 63.7858,65.7115 62.4524,65.5448 62.5,60.5C 63.4978,57.9722 64.3311,57.9722 65,60.5C 67.045,59.1131 69.2117,57.9464 71.5,57C 70.5509,56.3828 69.7175,56.5494 69,57.5C 68.5357,56.9056 68.369,56.2389 68.5,55.5 Z"/></g>
<g><path style="opacity:1" fill="#f2cd40" d="M 51.5,57.5 C 49.8564,59.4807 48.1897,61.4807 46.5,63.5C 46.8333,63.8333 47.1667,64.1667 47.5,64.5C 49.8333,62.1667 52.1667,59.8333 54.5,57.5C 55.2929,60.1263 56.9595,61.9596 59.5,63C 57.8016,62.5031 56.1349,62.6698 54.5,63.5C 54.0894,62.7376 53.9227,61.7376 54,60.5C 52.8118,61.5634 52.3118,62.8967 52.5,64.5C 54.9775,64.0508 56.9775,64.7175 58.5,66.5C 56.9793,66.8797 55.3126,67.0464 53.5,67C 56.0711,69.2558 56.0711,71.4225 53.5,73.5C 37.7058,74.0225 22.0391,72.8559 6.5,70C 5.97814,69.4387 5.6448,68.772 5.5,68C 6.90304,64.5272 8.56971,61.1939 10.5,58C 24.1626,57.5001 37.8293,57.3334 51.5,57.5 Z"/></g>
<g><path style="opacity:1" fill="#f5dc4f" d="M 68.5,55.5 C 68.369,56.2389 68.5357,56.9056 69,57.5C 69.7175,56.5494 70.5509,56.3828 71.5,57C 69.2117,57.9464 67.045,59.1131 65,60.5C 64.3311,57.9722 63.4978,57.9722 62.5,60.5C 62.4524,65.5448 63.7858,65.7115 66.5,61C 67.1667,60.3333 67.8333,60.3333 68.5,61C 67.1636,64.832 64.4969,66.332 60.5,65.5C 60.3367,67.8568 60.5034,70.1902 61,72.5C 61.7412,71.3595 62.5745,71.3595 63.5,72.5C 64.5,72.1667 65.1667,71.5 65.5,70.5C 64.7376,70.0894 63.7376,69.9227 62.5,70C 61.1373,67.8707 61.4706,67.3707 63.5,68.5C 65.5571,65.9865 67.8905,64.6532 70.5,64.5C 71.0963,67.1716 71.4297,70.1716 71.5,73.5C 65.1457,73.5419 59.1457,73.5419 53.5,73.5C 56.0711,71.4225 56.0711,69.2558 53.5,67C 55.3126,67.0464 56.9793,66.8797 58.5,66.5C 56.9775,64.7175 54.9775,64.0508 52.5,64.5C 52.3118,62.8967 52.8118,61.5634 54,60.5C 53.9227,61.7376 54.0894,62.7376 54.5,63.5C 56.1349,62.6698 57.8016,62.5031 59.5,63C 56.9595,61.9596 55.2929,60.1263 54.5,57.5C 52.1667,59.8333 49.8333,62.1667 47.5,64.5C 47.1667,64.1667 46.8333,63.8333 46.5,63.5C 48.1897,61.4807 49.8564,59.4807 51.5,57.5C 57.0158,56.6951 62.6825,56.0284 68.5,55.5 Z"/></g>
<g><path style="opacity:0.988" fill="#f5e55b" d="M 135.5,65.5 C 120.045,69.3536 104.378,72.0203 88.5,73.5C 88.6309,72.6236 88.2975,71.9569 87.5,71.5C 83.6327,72.4875 83.6327,71.9875 87.5,70C 86.5,69.6667 85.5,69.3333 84.5,69C 86.4595,68.0691 88.4595,67.2357 90.5,66.5C 92.5184,67.8135 93.6851,67.1468 94,64.5C 97.0008,64.4242 97.1675,65.5909 94.5,68C 95.8779,69.3342 97.2113,69.5009 98.5,68.5C 101.447,67.5763 104.447,67.5763 107.5,68.5C 107.5,67.5 107.5,66.5 107.5,65.5C 111.529,65.8514 115.362,65.1848 119,63.5C 123.495,64.7492 127.995,64.7492 132.5,63.5C 131.311,62.5713 129.978,62.238 128.5,62.5C 130.225,61.095 132.225,60.595 134.5,61C 133.419,62.7106 133.752,64.2106 135.5,65.5 Z"/></g>
<g><path style="opacity:0.998" fill="#faf671" d="M 192.5,90.5 C 192.53,89.5028 192.03,88.8361 191,88.5C 188.784,88.9233 187.118,88.9233 186,88.5C 185.517,87.552 185.351,86.552 185.5,85.5C 188.839,85.1103 192.173,84.6103 195.5,84C 192.5,83.6667 189.5,83.3333 186.5,83C 190.842,81.428 195.176,79.928 199.5,78.5C 199.351,79.552 199.517,80.552 200,81.5C 205.678,79.8334 205.844,77.8334 200.5,75.5C 198.289,76.1228 196.289,77.1228 194.5,78.5C 193.808,77.9747 193.308,77.3081 193,76.5C 192.077,77.7588 191.243,79.0921 190.5,80.5C 189.833,79.8333 189.167,79.1667 188.5,78.5C 187.41,79.727 186.076,80.5604 184.5,81C 185.654,81.9138 185.487,82.7471 184,83.5C 181.866,82.3897 179.7,81.3897 177.5,80.5C 176.045,82.9445 174.379,83.4445 172.5,82C 173.551,80.6152 174.884,79.6152 176.5,79C 175.5,78.6667 174.5,78.3333 173.5,78C 175.355,77.5779 177.189,77.0779 179,76.5C 180.921,78.0028 183.088,78.6695 185.5,78.5C 185.729,76.567 186.562,74.9003 188,73.5C 189.423,78.6207 190.423,78.6207 191,73.5C 192.947,72.8903 194.781,72.0569 196.5,71C 193.631,70.991 190.964,70.8243 188.5,70.5C 193.795,69.2181 198.962,67.5515 204,65.5C 207.085,71.8314 209.252,78.4981 210.5,85.5C 204.5,87.1667 198.5,88.8333 192.5,90.5 Z"/></g>
<g><path style="opacity:1" fill="#f3cc41" d="M 21.5,81.5 C 22.4678,84.0256 21.6345,84.6922 19,83.5C 18.3086,85.8912 17.3086,85.8912 16,83.5C 14.6043,85.5268 12.9376,85.8602 11,84.5C 8.65144,86.7443 9.15144,87.9109 12.5,88C 11.5842,88.2784 10.9175,88.7784 10.5,89.5C 7.12052,89.3519 3.78718,88.1853 0.5,86C 0.996267,84.0036 1.99627,82.3369 3.5,81C 1.72945,80.4646 1.39612,79.6313 2.5,78.5C 5.44299,79.2435 8.44299,79.7435 11.5,80C 12,80.5 12.5,81 13,81.5C 15.7957,80.3213 18.6291,80.3213 21.5,81.5 Z"/></g>
<g><path style="opacity:1" fill="#f3d54b" d="M 21.5,81.5 C 26.58,81.8783 31.58,82.545 36.5,83.5C 36.9867,84.4734 37.4867,85.4734 38,86.5C 39.0113,85.6634 40.1779,85.33 41.5,85.5C 42.0547,89.5841 41.0547,90.2508 38.5,87.5C 36.8333,89.3333 35.1667,91.1667 33.5,93C 34.6716,93.3534 35.8382,93.1868 37,92.5C 41.6765,94.7214 41.5099,95.7214 36.5,95.5C 27.5793,94.1191 18.9127,92.1191 10.5,89.5C 10.9175,88.7784 11.5842,88.2784 12.5,88C 9.15144,87.9109 8.65144,86.7443 11,84.5C 12.9376,85.8602 14.6043,85.5268 16,83.5C 17.3086,85.8912 18.3086,85.8912 19,83.5C 21.6345,84.6922 22.4678,84.0256 21.5,81.5 Z"/></g>
<g><path style="opacity:1" fill="#faf676" d="M 188.5,70.5 C 190.964,70.8243 193.631,70.991 196.5,71C 194.781,72.0569 192.947,72.8903 191,73.5C 190.423,78.6207 189.423,78.6207 188,73.5C 186.562,74.9003 185.729,76.567 185.5,78.5C 183.088,78.6695 180.921,78.0028 179,76.5C 177.189,77.0779 175.355,77.5779 173.5,78C 174.5,78.3333 175.5,78.6667 176.5,79C 174.884,79.6152 173.551,80.6152 172.5,82C 174.379,83.4445 176.045,82.9445 177.5,80.5C 179.7,81.3897 181.866,82.3897 184,83.5C 185.487,82.7471 185.654,81.9138 184.5,81C 186.076,80.5604 187.41,79.727 188.5,78.5C 189.167,79.1667 189.833,79.8333 190.5,80.5C 191.243,79.0921 192.077,77.7588 193,76.5C 193.308,77.3081 193.808,77.9747 194.5,78.5C 196.289,77.1228 198.289,76.1228 200.5,75.5C 205.844,77.8334 205.678,79.8334 200,81.5C 199.517,80.552 199.351,79.552 199.5,78.5C 195.176,79.928 190.842,81.428 186.5,83C 189.5,83.3333 192.5,83.6667 195.5,84C 192.173,84.6103 188.839,85.1103 185.5,85.5C 185.351,86.552 185.517,87.552 186,88.5C 187.118,88.9233 188.784,88.9233 191,88.5C 192.03,88.8361 192.53,89.5028 192.5,90.5C 179.112,94.4442 165.445,97.1109 151.5,98.5C 150.319,96.9328 148.653,96.0995 146.5,96C 150.703,92.5856 150.37,89.7523 145.5,87.5C 147.174,85.5699 147.507,83.5699 146.5,81.5C 160.397,77.858 174.397,74.1913 188.5,70.5 Z"/></g>
<g><path style="opacity:0.996" fill="#fbed76" d="M 78.5,86.5 C 82.7016,86.1832 86.7016,86.5166 90.5,87.5C 90.1667,87.5 89.8333,87.5 89.5,87.5C 86.5491,87.2872 83.8825,87.9539 81.5,89.5C 80.9002,88.1001 79.9002,87.1001 78.5,86.5 Z"/></g>
<g><path style="opacity:1" fill="#f6e25a" d="M 89.5,87.5 C 89.8333,87.5 90.1667,87.5 90.5,87.5C 93.1667,87.5 95.8333,87.5 98.5,87.5C 99.3764,87.3691 100.043,87.7025 100.5,88.5C 99.4937,89.3957 99.4937,90.0623 100.5,90.5C 102.858,88.7134 105.525,87.7134 108.5,87.5C 108.34,89.1992 108.506,90.8659 109,92.5C 110,93.8333 111,93.8333 112,92.5C 112.973,94.3921 113.64,96.3921 114,98.5C 116.09,97.848 118.257,97.6813 120.5,98C 121.824,95.2911 123.49,94.9578 125.5,97C 124.555,99.4463 122.889,100.946 120.5,101.5C 120.877,110.727 120.211,119.727 118.5,128.5C 117.793,126.866 116.627,125.532 115,124.5C 114.268,126.923 112.768,128.09 110.5,128C 111.833,126.333 111.833,124.667 110.5,123C 112.373,119.365 114.706,118.865 117.5,121.5C 118.347,119.939 118.014,118.439 116.5,117C 118.007,116.163 118.507,114.996 118,113.5C 115.701,115.532 113.201,116.199 110.5,115.5C 111.325,114.614 112.325,114.281 113.5,114.5C 113.297,112.61 113.963,111.11 115.5,110C 110.188,108.23 108.688,105.063 111,100.5C 109.008,101.328 107.508,102.661 106.5,104.5C 104.692,104.509 103.025,104.009 101.5,103C 104.239,100.472 106.239,97.972 107.5,95.5C 104.222,95.4819 100.889,95.8152 97.5,96.5C 104.836,96.5695 105.336,98.9029 99,103.5C 97.3005,102.594 95.4672,102.261 93.5,102.5C 93.5,102.167 93.5,101.833 93.5,101.5C 96.0588,101.61 98.3921,100.944 100.5,99.5C 97.2224,98.9794 93.8891,98.8127 90.5,99C 91.9561,98.5774 92.4561,97.7441 92,96.5C 89.4572,97.207 87.2905,98.5403 85.5,100.5C 85.6922,99.0382 85.3589,97.3715 84.5,95.5C 85.7618,95.0934 87.0951,94.76 88.5,94.5C 87.9747,93.8076 87.3081,93.3076 86.5,93C 86.8333,92.6667 87.1667,92.3333 87.5,92C 86.5,91.6667 85.5,91.3333 84.5,91C 85.8866,89.317 87.5533,88.1504 89.5,87.5 Z"/></g>
<g><path style="opacity:1" fill="#f1c83b" d="M 36.5,83.5 C 40.8566,83.5865 45.19,83.9198 49.5,84.5C 48.1363,86.1911 46.803,87.8577 45.5,89.5C 45.9175,90.2216 46.5842,90.7216 47.5,91C 46.6634,92.0113 46.33,93.1779 46.5,94.5C 48.5,94.1667 50.5,93.8333 52.5,93.5C 52.3262,88.9786 52.9929,88.6452 54.5,92.5C 54.1667,93.1667 53.8333,93.8333 53.5,94.5C 54.6283,95.2621 55.7949,95.9288 57,96.5C 57.6917,97.4368 57.525,98.1034 56.5,98.5C 55.8501,98.8039 55.1835,99.1373 54.5,99.5C 48.3178,98.4356 42.3178,97.1023 36.5,95.5C 41.5099,95.7214 41.6765,94.7214 37,92.5C 35.8382,93.1868 34.6716,93.3534 33.5,93C 35.1667,91.1667 36.8333,89.3333 38.5,87.5C 41.0547,90.2508 42.0547,89.5841 41.5,85.5C 40.1779,85.33 39.0113,85.6634 38,86.5C 37.4867,85.4734 36.9867,84.4734 36.5,83.5 Z"/></g>
<g><path style="opacity:1" fill="#f5da50" d="M 49.5,84.5 C 55.6781,84.8442 61.6781,85.5109 67.5,86.5C 64.7531,86.1866 62.0865,86.52 59.5,87.5C 60.9387,89.3432 60.772,91.0099 59,92.5C 58.51,91.2068 58.3433,89.8734 58.5,88.5C 57.5,88.5 56.5,88.5 55.5,88.5C 56.1667,90.8333 56.8333,93.1667 57.5,95.5C 59.099,95.7678 60.4324,95.4345 61.5,94.5C 61.7239,92.9537 62.0573,91.287 62.5,89.5C 64.6277,90.5375 65.6277,91.8708 65.5,93.5C 66.1667,92.1667 66.8333,90.8333 67.5,89.5C 69.5976,89.0428 71.2642,88.0428 72.5,86.5C 74.5,86.5 76.5,86.5 78.5,86.5C 79.9002,87.1001 80.9002,88.1001 81.5,89.5C 80.828,90.2674 79.9947,90.9341 79,91.5C 76.6872,89.9626 74.1872,89.4626 71.5,90C 72.9928,91.1562 72.8261,91.9896 71,92.5C 69.6996,91.548 68.533,91.548 67.5,92.5C 68.0253,93.1924 68.6919,93.6924 69.5,94C 67.1724,95.324 64.8391,96.6574 62.5,98C 63.7383,98.69 63.7383,99.19 62.5,99.5C 60.2646,99.7947 58.2646,99.4614 56.5,98.5C 57.525,98.1034 57.6917,97.4368 57,96.5C 55.7949,95.9288 54.6283,95.2621 53.5,94.5C 53.8333,93.8333 54.1667,93.1667 54.5,92.5C 52.9929,88.6452 52.3262,88.9786 52.5,93.5C 50.5,93.8333 48.5,94.1667 46.5,94.5C 46.33,93.1779 46.6634,92.0113 47.5,91C 46.5842,90.7216 45.9175,90.2216 45.5,89.5C 46.803,87.8577 48.1363,86.1911 49.5,84.5 Z"/></g>
<g><path style="opacity:1" fill="#f0cd40" d="M 67.5,86.5 C 69.1667,86.5 70.8333,86.5 72.5,86.5C 71.2642,88.0428 69.5976,89.0428 67.5,89.5C 66.8333,90.8333 66.1667,92.1667 65.5,93.5C 65.6277,91.8708 64.6277,90.5375 62.5,89.5C 62.0573,91.287 61.7239,92.9537 61.5,94.5C 60.4324,95.4345 59.099,95.7678 57.5,95.5C 56.8333,93.1667 56.1667,90.8333 55.5,88.5C 56.5,88.5 57.5,88.5 58.5,88.5C 58.3433,89.8734 58.51,91.2068 59,92.5C 60.772,91.0099 60.9387,89.3432 59.5,87.5C 62.0865,86.52 64.7531,86.1866 67.5,86.5 Z"/></g>
<g><path style="opacity:1" fill="#f0cf40" d="M 89.5,87.5 C 87.5533,88.1504 85.8866,89.317 84.5,91C 85.5,91.3333 86.5,91.6667 87.5,92C 87.1667,92.3333 86.8333,92.6667 86.5,93C 87.3081,93.3076 87.9747,93.8076 88.5,94.5C 87.0951,94.76 85.7618,95.0934 84.5,95.5C 82.1582,95.2252 82.1582,94.3919 84.5,93C 81.1021,92.4899 77.7688,92.1565 74.5,92C 77.277,94.1734 77.1103,94.6734 74,93.5C 73.5,94 73,94.5 72.5,95C 75.8815,95.1824 76.8815,96.6824 75.5,99.5C 74.4024,95.6395 73.5691,95.6395 73,99.5C 72.586,99.0426 72.086,98.7093 71.5,98.5C 71.0024,97.3966 70.6691,96.3966 70.5,95.5C 68.5466,96.7607 66.5466,97.9274 64.5,99C 65.4491,99.6172 66.2825,99.4506 67,98.5C 67.4643,99.0944 67.631,99.7611 67.5,100.5C 65.5853,100.784 63.9187,100.451 62.5,99.5C 63.7383,99.19 63.7383,98.69 62.5,98C 64.8391,96.6574 67.1724,95.324 69.5,94C 68.6919,93.6924 68.0253,93.1924 67.5,92.5C 68.533,91.548 69.6996,91.548 71,92.5C 72.8261,91.9896 72.9928,91.1562 71.5,90C 74.1872,89.4626 76.6872,89.9626 79,91.5C 79.9947,90.9341 80.828,90.2674 81.5,89.5C 83.8825,87.9539 86.5491,87.2872 89.5,87.5 Z"/></g>
<g><path style="opacity:1" fill="#f8f06c" d="M 146.5,81.5 C 147.507,83.5699 147.174,85.5699 145.5,87.5C 150.37,89.7523 150.703,92.5856 146.5,96C 148.653,96.0995 150.319,96.9328 151.5,98.5C 141.296,100.354 130.962,101.354 120.5,101.5C 122.889,100.946 124.555,99.4463 125.5,97C 123.49,94.9578 121.824,95.2911 120.5,98C 118.257,97.6813 116.09,97.848 114,98.5C 113.64,96.3921 112.973,94.3921 112,92.5C 111,93.8333 110,93.8333 109,92.5C 108.506,90.8659 108.34,89.1992 108.5,87.5C 105.525,87.7134 102.858,88.7134 100.5,90.5C 99.4937,90.0623 99.4937,89.3957 100.5,88.5C 100.043,87.7025 99.3764,87.3691 98.5,87.5C 114.462,86.3652 130.462,84.3652 146.5,81.5 Z"/></g>
<g><path style="opacity:1" fill="#f4d94f" d="M 84.5,95.5 C 85.3589,97.3715 85.6922,99.0382 85.5,100.5C 87.2905,98.5403 89.4572,97.207 92,96.5C 92.4561,97.7441 91.9561,98.5774 90.5,99C 93.8891,98.8127 97.2224,98.9794 100.5,99.5C 98.3921,100.944 96.0588,101.61 93.5,101.5C 84.805,101.673 76.1384,101.34 67.5,100.5C 67.631,99.7611 67.4643,99.0944 67,98.5C 66.2825,99.4506 65.4491,99.6172 64.5,99C 66.5466,97.9274 68.5466,96.7607 70.5,95.5C 70.6691,96.3966 71.0024,97.3966 71.5,98.5C 72.086,98.7093 72.586,99.0426 73,99.5C 73.5691,95.6395 74.4024,95.6395 75.5,99.5C 76.8815,96.6824 75.8815,95.1824 72.5,95C 73,94.5 73.5,94 74,93.5C 77.1103,94.6734 77.277,94.1734 74.5,92C 77.7688,92.1565 81.1021,92.4899 84.5,93C 82.1582,94.3919 82.1582,95.2252 84.5,95.5 Z"/></g>
<g><path style="opacity:1" fill="#969ba0" d="M 195.5,96.5 C 193.372,97.2805 193.205,98.2805 195,99.5C 195.667,100.833 195.667,102.167 195,103.5C 193.438,104.931 191.938,106.431 190.5,108C 193.131,109.691 192.797,110.858 189.5,111.5C 190.38,114.125 189.713,116.458 187.5,118.5C 186.808,117.975 186.308,117.308 186,116.5C 185.043,119.379 185.543,121.879 187.5,124C 186.874,124.75 186.374,125.584 186,126.5C 184.989,125.663 183.822,125.33 182.5,125.5C 182.657,126.873 182.49,128.207 182,129.5C 176.33,133.74 175.164,138.907 178.5,145C 177.663,146.011 177.33,147.178 177.5,148.5C 175.833,148.5 174.167,148.5 172.5,148.5C 172.318,150.591 172.652,152.591 173.5,154.5C 173.062,155.506 172.396,155.506 171.5,154.5C 170.679,157.447 170.179,160.447 170,163.5C 169.586,163.043 169.086,162.709 168.5,162.5C 166.812,165.304 165.645,168.304 165,171.5C 163.581,172.46 162.081,173.293 160.5,174C 162.019,178.714 161.019,183.214 157.5,187.5C 158.59,188.609 158.59,189.609 157.5,190.5C 156.719,189.271 156.219,187.938 156,186.5C 155.631,190.947 156.131,195.281 157.5,199.5C 153.07,202.048 148.403,204.048 143.5,205.5C 143.082,204.778 142.416,204.278 141.5,204C 145.742,202.953 147.576,200.453 147,196.5C 148.545,197.821 149.711,197.488 150.5,195.5C 147.773,191.407 147.94,187.407 151,183.5C 152.402,185.973 153.902,185.973 155.5,183.5C 154.238,180.265 152.905,177.098 151.5,174C 151.833,173.5 152.167,173 152.5,172.5C 153.667,174.167 154.833,175.833 156,177.5C 156.178,174.458 157.012,171.625 158.5,169C 156.145,165.135 157.478,163.302 162.5,163.5C 162.66,161.801 162.494,160.134 162,158.5C 160.935,160.396 160.102,160.563 159.5,159C 160.482,156.991 161.815,156.491 163.5,157.5C 164.958,155.862 165.292,154.195 164.5,152.5C 163.346,154.856 162.013,155.023 160.5,153C 162.425,150.426 164.758,148.259 167.5,146.5C 167.023,145.522 166.357,144.689 165.5,144C 169.656,143.185 171.489,140.685 171,136.5C 169.164,137.669 167.998,139.336 167.5,141.5C 166.635,142.583 165.635,142.749 164.5,142C 165.357,141.311 166.023,140.478 166.5,139.5C 165.253,137.958 165.253,136.458 166.5,135C 165.906,134.536 165.239,134.369 164.5,134.5C 169.256,124.056 171.589,113.056 171.5,101.5C 179.555,100.089 187.555,98.4223 195.5,96.5 Z"/></g>
<g><path style="opacity:1" fill="#898e92" d="M 212.5,119.5 C 209.309,145.553 197.976,167.22 178.5,184.5C 177.957,184.44 177.624,184.107 177.5,183.5C 180.485,180.966 180.818,178.299 178.5,175.5C 179.736,173.689 179.736,171.856 178.5,170C 179.076,168.286 180.243,167.119 182,166.5C 182.333,163.833 182.667,161.167 183,158.5C 184.487,157.747 184.654,156.914 183.5,156C 184.198,153.546 185.198,151.213 186.5,149C 185.978,148.439 185.645,147.772 185.5,147C 187.473,145.009 189.807,143.509 192.5,142.5C 192.256,139.65 191.923,136.817 191.5,134C 192.448,133.517 193.448,133.351 194.5,133.5C 194.579,132.07 194.246,130.736 193.5,129.5C 194.631,128.396 195.465,128.729 196,130.5C 197.756,129.579 197.923,128.412 196.5,127C 200.579,122.797 202.746,117.63 203,111.5C 205.391,112.602 205.891,111.936 204.5,109.5C 205.189,107.556 205.689,105.556 206,103.5C 206.667,104.833 207.333,106.167 208,107.5C 208.245,105.337 209.245,103.67 211,102.5C 211.333,99.8333 211.667,97.1667 212,94.5C 212.5,102.827 212.666,111.16 212.5,119.5 Z"/></g>
<g><path style="opacity:1" fill="#f4d54d" d="M 118.5,128.5 C 118.638,133.414 117.972,138.081 116.5,142.5C 115.522,139.513 113.522,138.346 110.5,139C 111.308,139.308 111.975,139.808 112.5,140.5C 111.277,141.614 109.944,141.781 108.5,141C 109.28,139.927 109.113,138.76 108,137.5C 107.89,139.848 106.723,141.348 104.5,142C 105.5,142.833 106.5,143.667 107.5,144.5C 105.653,145.83 104.153,145.497 103,143.5C 102.28,145.112 102.446,146.612 103.5,148C 102.234,148.309 101.067,148.809 100,149.5C 100.72,147.097 101.553,144.597 102.5,142C 101.375,139.779 99.3746,137.945 96.5,136.5C 99.4176,134.992 100.084,132.825 98.5,130C 97.1667,130 95.8333,130 94.5,130C 95.5733,128.75 95.5733,127.416 94.5,126C 94.8333,125.5 95.1667,125 95.5,124.5C 97.1789,126.104 99.1789,126.771 101.5,126.5C 101.567,125.041 101.234,123.708 100.5,122.5C 104.707,120.094 105.374,117.761 102.5,115.5C 102.977,114.522 103.643,113.689 104.5,113C 103.167,112.667 101.833,112.333 100.5,112C 101.641,111.259 101.641,110.425 100.5,109.5C 103.107,108.682 105.774,108.182 108.5,108C 105.5,107.667 102.5,107.333 99.5,107C 102.451,106.062 104.784,105.228 106.5,104.5C 107.508,102.661 109.008,101.328 111,100.5C 108.688,105.063 110.188,108.23 115.5,110C 113.963,111.11 113.297,112.61 113.5,114.5C 112.325,114.281 111.325,114.614 110.5,115.5C 113.201,116.199 115.701,115.532 118,113.5C 118.507,114.996 118.007,116.163 116.5,117C 118.014,118.439 118.347,119.939 117.5,121.5C 114.706,118.865 112.373,119.365 110.5,123C 111.833,124.667 111.833,126.333 110.5,128C 112.768,128.09 114.268,126.923 115,124.5C 116.627,125.532 117.793,126.866 118.5,128.5 Z"/></g>
<g><path style="opacity:1" fill="#cad1da" d="M 36.5,152.5 C 34.7392,153.313 33.0725,154.313 31.5,155.5C 28.5772,155.187 27.5772,153.854 28.5,151.5C 26.6554,149.464 26.1554,147.13 27,144.5C 27.6667,143.167 28.3333,143.167 29,144.5C 29.9764,140.748 29.3098,140.082 27,142.5C 26.6397,140.579 25.8064,138.912 24.5,137.5C 25.5,136.167 26.5,134.833 27.5,133.5C 26.2402,132.618 25.0736,131.618 24,130.5C 23.8603,133.043 23.1937,135.377 22,137.5C 21.7811,136.062 21.2811,134.729 20.5,133.5C 20.1667,133.833 19.8333,134.167 19.5,134.5C 20.4279,135.768 20.5946,137.101 20,138.5C 15.0792,134.371 15.9126,131.871 22.5,131C 19.967,128.916 19.967,126.916 22.5,125C 21.8333,124.667 21.1667,124.333 20.5,124C 23.0082,119.556 22.5082,119.389 19,123.5C 18.6667,123.167 18.3333,122.833 18,122.5C 18.1484,123.825 17.9817,124.992 17.5,126C 13.9106,125.71 12.4106,127.21 13,130.5C 13.4186,129.328 14.0853,128.328 15,127.5C 15.1667,127.833 15.3333,128.167 15.5,128.5C 15.6405,130.256 15.1405,131.922 14,133.5C 11.6421,131.976 9.80878,129.976 8.5,127.5C 8.8242,125.431 9.65753,125.098 11,126.5C 12.8254,125.897 14.6587,125.23 16.5,124.5C 16.277,123.033 15.9437,121.533 15.5,120C 16.3081,119.692 16.9747,119.192 17.5,118.5C 16.8333,116.167 16.1667,113.833 15.5,111.5C 15.8333,110.5 16.5,109.833 17.5,109.5C 21.0075,112.066 21.3409,111.566 18.5,108C 20.1134,107.911 21.2801,108.745 22,110.5C 21.8915,108.011 22.7248,105.678 24.5,103.5C 30.2337,100.853 30.9004,102.02 26.5,107C 28.6019,107.283 30.2685,106.45 31.5,104.5C 31.8333,104.833 32.1667,105.167 32.5,105.5C 31.7026,107.132 30.7026,108.632 29.5,110C 29.9444,111.762 30.4444,111.595 31,109.5C 31.7412,110.641 32.5745,110.641 33.5,109.5C 34.1924,110.025 34.6924,110.692 35,111.5C 35.9234,110.241 36.7568,108.908 37.5,107.5C 37.8333,107.833 38.1667,108.167 38.5,108.5C 36.3172,111.539 35.4839,114.872 36,118.5C 39.3514,117.526 40.018,118.526 38,121.5C 37.6758,119.431 36.8425,119.098 35.5,120.5C 32.1281,119.201 31.7948,117.534 34.5,115.5C 34.1667,114.833 33.8333,114.167 33.5,113.5C 32.2764,114.766 30.9431,115.933 29.5,117C 34.6899,121.21 34.3566,122.71 28.5,121.5C 29.6647,124.391 31.3314,126.891 33.5,129C 33.0116,130.584 32.0116,131.751 30.5,132.5C 32.0436,133.622 33.377,133.289 34.5,131.5C 35.316,133.287 36.316,134.954 37.5,136.5C 38.2752,134.525 39.6086,133.691 41.5,134C 40.273,135.587 40.6063,136.921 42.5,138C 38.6412,138.759 35.6412,140.759 33.5,144C 35.678,144.165 37.5114,143.332 39,141.5C 39.1667,141.833 39.3333,142.167 39.5,142.5C 38.2889,143.72 38.2889,144.887 39.5,146C 36.972,147.316 36.972,148.483 39.5,149.5C 38.0065,150.141 37.0065,151.141 36.5,152.5 Z"/></g>
<g><path style="opacity:1" fill="#dfe4eb" d="M 20.5,96.5 C 27.3859,98.5447 34.3859,100.211 41.5,101.5C 41.2468,115.489 44.5801,128.489 51.5,140.5C 51.1231,142.258 50.4565,143.925 49.5,145.5C 46.7483,145.998 44.4149,147.164 42.5,149C 42.6667,149.5 42.8333,150 43,150.5C 44.5298,149.364 45.8631,148.364 47,147.5C 47.2163,149.384 47.883,151.051 49,152.5C 48.0209,150.721 48.3542,149.055 50,147.5C 51.2989,148.09 52.1322,149.09 52.5,150.5C 51.6827,153.227 51.6827,155.727 52.5,158C 55.4616,159.564 58.4616,159.731 61.5,158.5C 61.5331,159.989 62.0331,161.322 63,162.5C 64.1827,161.269 65.3493,161.269 66.5,162.5C 64.8513,163.648 63.3513,164.981 62,166.5C 62.6171,164.905 62.2837,163.572 61,162.5C 60.487,164.521 59.3203,166.021 57.5,167C 58.8333,167.333 60.1667,167.667 61.5,168C 60.6681,169.909 61.0015,171.742 62.5,173.5C 61.3281,174.705 59.9948,174.705 58.5,173.5C 55.3955,179.331 56.0622,184.664 60.5,189.5C 61.6888,190.429 63.0222,190.762 64.5,190.5C 62.0154,193.609 60.6821,197.276 60.5,201.5C 57.5498,200.692 54.8831,199.358 52.5,197.5C 53.5113,195.801 54.8446,194.301 56.5,193C 56.1667,192.5 55.8333,192 55.5,191.5C 53.3487,194.206 51.1821,194.54 49,192.5C 49.4387,190.241 49.9387,187.908 50.5,185.5C 51.5,185.5 52.5,185.5 53.5,185.5C 53.627,182.755 52.4603,180.755 50,179.5C 49.6466,180.672 49.8132,181.838 50.5,183C 49.9896,184.826 49.1562,184.993 48,183.5C 47.3162,182.216 47.4829,181.049 48.5,180C 45.8537,178.04 45.8537,176.04 48.5,174C 47.2226,172.112 46.2226,170.112 45.5,168C 45.8333,167.667 46.1667,167.333 46.5,167C 43.6982,163.984 41.6982,160.484 40.5,156.5C 41.2458,155.264 41.5792,153.93 41.5,152.5C 39.64,153.071 37.9733,153.071 36.5,152.5C 37.0065,151.141 38.0065,150.141 39.5,149.5C 36.972,148.483 36.972,147.316 39.5,146C 38.2889,144.887 38.2889,143.72 39.5,142.5C 39.3333,142.167 39.1667,141.833 39,141.5C 37.5114,143.332 35.678,144.165 33.5,144C 35.6412,140.759 38.6412,138.759 42.5,138C 40.6063,136.921 40.273,135.587 41.5,134C 39.6086,133.691 38.2752,134.525 37.5,136.5C 36.316,134.954 35.316,133.287 34.5,131.5C 33.377,133.289 32.0436,133.622 30.5,132.5C 32.0116,131.751 33.0116,130.584 33.5,129C 31.3314,126.891 29.6647,124.391 28.5,121.5C 34.3566,122.71 34.6899,121.21 29.5,117C 30.9431,115.933 32.2764,114.766 33.5,113.5C 33.8333,114.167 34.1667,114.833 34.5,115.5C 31.7948,117.534 32.1281,119.201 35.5,120.5C 36.8425,119.098 37.6758,119.431 38,121.5C 40.018,118.526 39.3514,117.526 36,118.5C 35.4839,114.872 36.3172,111.539 38.5,108.5C 38.1667,108.167 37.8333,107.833 37.5,107.5C 36.7568,108.908 35.9234,110.241 35,111.5C 34.6924,110.692 34.1924,110.025 33.5,109.5C 32.5745,110.641 31.7412,110.641 31,109.5C 30.4444,111.595 29.9444,111.762 29.5,110C 30.7026,108.632 31.7026,107.132 32.5,105.5C 32.1667,105.167 31.8333,104.833 31.5,104.5C 30.2685,106.45 28.6019,107.283 26.5,107C 30.9004,102.02 30.2337,100.853 24.5,103.5C 24.2942,101.451 23.4609,101.117 22,102.5C 21.5172,101.552 21.3505,100.552 21.5,99.5C 22.552,99.6495 23.552,99.4828 24.5,99C 22.563,98.8784 21.2297,98.045 20.5,96.5 Z"/></g>
<g><path style="opacity:0.999" fill="#8f9498" d="M 213.5,91.5 C 213.5,100.833 213.5,110.167 213.5,119.5C 213.167,119.5 212.833,119.5 212.5,119.5C 212.666,111.16 212.5,102.827 212,94.5C 211.667,97.1667 211.333,99.8333 211,102.5C 209.245,103.67 208.245,105.337 208,107.5C 207.333,106.167 206.667,104.833 206,103.5C 205.689,105.556 205.189,107.556 204.5,109.5C 205.891,111.936 205.391,112.602 203,111.5C 202.746,117.63 200.579,122.797 196.5,127C 197.923,128.412 197.756,129.579 196,130.5C 195.465,128.729 194.631,128.396 193.5,129.5C 194.246,130.736 194.579,132.07 194.5,133.5C 193.448,133.351 192.448,133.517 191.5,134C 191.923,136.817 192.256,139.65 192.5,142.5C 189.807,143.509 187.473,145.009 185.5,147C 185.645,147.772 185.978,148.439 186.5,149C 185.198,151.213 184.198,153.546 183.5,156C 184.654,156.914 184.487,157.747 183,158.5C 182.667,161.167 182.333,163.833 182,166.5C 180.243,167.119 179.076,168.286 178.5,170C 179.736,171.856 179.736,173.689 178.5,175.5C 180.818,178.299 180.485,180.966 177.5,183.5C 177.624,184.107 177.957,184.44 178.5,184.5C 174.041,188.897 169.041,192.564 163.5,195.5C 162.692,193.7 163.192,192.033 165,190.5C 165.373,188.302 165.873,186.135 166.5,184C 166.133,181.756 165.133,181.256 163.5,182.5C 162.369,180.926 162.202,179.259 163,177.5C 164.261,180.82 165.928,181.154 168,178.5C 168.309,176.487 167.642,176.154 166,177.5C 163.957,175.912 164.124,174.579 166.5,173.5C 167.086,173.709 167.586,174.043 168,174.5C 168.419,173.328 169.085,172.328 170,171.5C 170.333,169.953 169.833,168.62 168.5,167.5C 169.651,166.269 170.817,166.269 172,167.5C 172.833,166.667 173.667,165.833 174.5,165C 173.426,164.261 172.759,163.261 172.5,162C 173.997,160.338 175.663,158.838 177.5,157.5C 176.471,157.704 175.471,157.204 174.5,156C 177.249,155.268 179.916,153.768 182.5,151.5C 184,149.214 184.333,146.881 183.5,144.5C 186.155,142.556 187.489,139.89 187.5,136.5C 188.873,136.657 190.207,136.49 191.5,136C 190.833,135.667 190.167,135.333 189.5,135C 189.966,133.701 189.966,132.201 189.5,130.5C 190.675,130.719 191.675,130.386 192.5,129.5C 191.349,128.269 190.183,128.269 189,129.5C 188.51,128.207 188.343,126.873 188.5,125.5C 190.821,125.229 192.821,125.896 194.5,127.5C 195.386,126.675 195.719,125.675 195.5,124.5C 194.167,124.5 192.833,124.5 191.5,124.5C 191.34,122.801 191.506,121.134 192,119.5C 192.448,117.776 193.282,117.109 194.5,117.5C 194.167,116.833 193.833,116.167 193.5,115.5C 194.934,114.77 196.1,113.77 197,112.5C 198.133,114.211 199.633,114.711 201.5,114C 200.584,113.626 199.75,113.126 199,112.5C 198.64,110.579 197.806,108.912 196.5,107.5C 197.365,107.436 198.365,107.103 199.5,106.5C 200.59,107.391 200.59,108.391 199.5,109.5C 202.261,110.35 202.928,109.35 201.5,106.5C 200.263,105.719 199.263,104.719 198.5,103.5C 199.853,102.315 201.02,100.981 202,99.5C 202.333,99.8333 202.667,100.167 203,100.5C 205.149,98.276 204.649,96.776 201.5,96C 202.737,95.7679 203.737,95.2679 204.5,94.5C 207.215,92.9281 210.215,91.9281 213.5,91.5 Z"/></g>
<g><path style="opacity:1" fill="#bdc5cd" d="M 20.5,96.5 C 21.2297,98.045 22.563,98.8784 24.5,99C 23.552,99.4828 22.552,99.6495 21.5,99.5C 21.3505,100.552 21.5172,101.552 22,102.5C 23.4609,101.117 24.2942,101.451 24.5,103.5C 22.7248,105.678 21.8915,108.011 22,110.5C 21.2801,108.745 20.1134,107.911 18.5,108C 21.3409,111.566 21.0075,112.066 17.5,109.5C 16.5,109.833 15.8333,110.5 15.5,111.5C 16.1667,113.833 16.8333,116.167 17.5,118.5C 16.9747,119.192 16.3081,119.692 15.5,120C 15.9437,121.533 16.277,123.033 16.5,124.5C 14.6587,125.23 12.8254,125.897 11,126.5C 9.65753,125.098 8.8242,125.431 8.5,127.5C 9.80878,129.976 11.6421,131.976 14,133.5C 15.1405,131.922 15.6405,130.256 15.5,128.5C 15.3333,128.167 15.1667,127.833 15,127.5C 14.0853,128.328 13.4186,129.328 13,130.5C 12.4106,127.21 13.9106,125.71 17.5,126C 17.9817,124.992 18.1484,123.825 18,122.5C 18.3333,122.833 18.6667,123.167 19,123.5C 22.5082,119.389 23.0082,119.556 20.5,124C 21.1667,124.333 21.8333,124.667 22.5,125C 19.967,126.916 19.967,128.916 22.5,131C 15.9126,131.871 15.0792,134.371 20,138.5C 20.5946,137.101 20.4279,135.768 19.5,134.5C 19.8333,134.167 20.1667,133.833 20.5,133.5C 21.2811,134.729 21.7811,136.062 22,137.5C 23.1937,135.377 23.8603,133.043 24,130.5C 25.0736,131.618 26.2402,132.618 27.5,133.5C 26.5,134.833 25.5,136.167 24.5,137.5C 25.8064,138.912 26.6397,140.579 27,142.5C 29.3098,140.082 29.9764,140.748 29,144.5C 28.3333,143.167 27.6667,143.167 27,144.5C 26.1554,147.13 26.6554,149.464 28.5,151.5C 27.5772,153.854 28.5772,155.187 31.5,155.5C 33.5812,156.087 35.5812,156.087 37.5,155.5C 38.7728,157.984 38.7728,160.484 37.5,163C 39.1257,164.819 41.1257,166.152 43.5,167C 42.552,167.483 41.552,167.649 40.5,167.5C 41.6128,171.061 41.6128,174.394 40.5,177.5C 39.3839,177.402 38.3839,177.902 37.5,179C 38.0319,181.02 39.3652,181.853 41.5,181.5C 41.7733,183.451 41.1066,184.951 39.5,186C 40.5,186.833 41.5,187.667 42.5,188.5C 42.3764,189.107 42.0431,189.44 41.5,189.5C 38.5691,187.909 35.9024,185.909 33.5,183.5C 34.5109,181.598 34.6776,179.598 34,177.5C 33.4646,179.271 32.6313,179.604 31.5,178.5C 30.2528,176.677 29.5861,174.677 29.5,172.5C 28.448,172.649 27.448,172.483 26.5,172C 27.7433,170.846 28.7433,169.512 29.5,168C 27.1952,163.525 25.1952,158.858 23.5,154C 24.8561,152.433 25.5228,150.6 25.5,148.5C 23.857,148.52 22.5237,147.853 21.5,146.5C 20.8076,147.025 20.3076,147.692 20,148.5C 19.8665,145.475 18.8665,142.808 17,140.5C 16.6667,141.833 16.3333,143.167 16,144.5C 15.6924,143.692 15.1924,143.025 14.5,142.5C 13.2638,143.246 11.9305,143.579 10.5,143.5C 10.3433,142.127 10.51,140.793 11,139.5C 12.1827,140.731 13.3493,140.731 14.5,139.5C 12.4393,136.73 9.93933,134.396 7,132.5C 7.26261,133.951 7.09595,135.284 6.5,136.5C 5.74917,135.624 5.24917,134.624 5,133.5C 4.61742,134.056 4.11742,134.389 3.5,134.5C 1.88815,128.101 0.554818,121.768 -0.5,115.5C -0.5,108.833 -0.5,102.167 -0.5,95.5C 0.28997,94.3915 0.78997,93.0581 1,91.5C 7.38414,93.5545 13.8841,95.2211 20.5,96.5 Z"/></g>
<g><path style="opacity:1" fill="#9ba0a6" d="M 164.5,134.5 C 165.239,134.369 165.906,134.536 166.5,135C 165.253,136.458 165.253,137.958 166.5,139.5C 166.023,140.478 165.357,141.311 164.5,142C 165.635,142.749 166.635,142.583 167.5,141.5C 167.998,139.336 169.164,137.669 171,136.5C 171.489,140.685 169.656,143.185 165.5,144C 166.357,144.689 167.023,145.522 167.5,146.5C 164.758,148.259 162.425,150.426 160.5,153C 162.013,155.023 163.346,154.856 164.5,152.5C 165.292,154.195 164.958,155.862 163.5,157.5C 161.815,156.491 160.482,156.991 159.5,159C 160.102,160.563 160.935,160.396 162,158.5C 162.494,160.134 162.66,161.801 162.5,163.5C 157.478,163.302 156.145,165.135 158.5,169C 157.012,171.625 156.178,174.458 156,177.5C 154.833,175.833 153.667,174.167 152.5,172.5C 152.167,173 151.833,173.5 151.5,174C 152.905,177.098 154.238,180.265 155.5,183.5C 153.902,185.973 152.402,185.973 151,183.5C 147.94,187.407 147.773,191.407 150.5,195.5C 149.711,197.488 148.545,197.821 147,196.5C 147.576,200.453 145.742,202.953 141.5,204C 142.416,204.278 143.082,204.778 143.5,205.5C 136.133,208.509 128.466,210.509 120.5,211.5C 120.5,210.833 120.5,210.167 120.5,209.5C 121.397,208.402 122.23,208.402 123,209.5C 123.997,205.112 126.163,204.446 129.5,207.5C 130.197,205.615 131.197,205.282 132.5,206.5C 133.583,205.635 133.749,204.635 133,203.5C 131.409,201.822 129.909,200.822 128.5,200.5C 128.919,199.328 129.585,198.328 130.5,197.5C 131.736,198.246 133.07,198.579 134.5,198.5C 134.014,195.245 135.014,192.578 137.5,190.5C 135.897,187.656 135.397,184.656 136,181.5C 137,182.833 138,184.167 139,185.5C 141.181,182.519 140.681,180.019 137.5,178C 139.893,175.358 141.893,172.525 143.5,169.5C 143.563,167.519 142.896,165.852 141.5,164.5C 142.648,162.851 143.981,161.351 145.5,160C 144.944,159.617 144.611,159.117 144.5,158.5C 152.991,152.01 159.657,144.01 164.5,134.5 Z"/></g>
<g><path style="opacity:1" fill="#f1cf46" d="M 106.5,104.5 C 104.784,105.228 102.451,106.062 99.5,107C 102.5,107.333 105.5,107.667 108.5,108C 105.774,108.182 103.107,108.682 100.5,109.5C 101.641,110.425 101.641,111.259 100.5,112C 101.833,112.333 103.167,112.667 104.5,113C 103.643,113.689 102.977,114.522 102.5,115.5C 105.374,117.761 104.707,120.094 100.5,122.5C 101.234,123.708 101.567,125.041 101.5,126.5C 99.1789,126.771 97.1789,126.104 95.5,124.5C 95.1667,125 94.8333,125.5 94.5,126C 95.5733,127.416 95.5733,128.75 94.5,130C 95.8333,130 97.1667,130 98.5,130C 100.084,132.825 99.4176,134.992 96.5,136.5C 99.3746,137.945 101.375,139.779 102.5,142C 101.553,144.597 100.72,147.097 100,149.5C 101.067,148.809 102.234,148.309 103.5,148C 102.446,146.612 102.28,145.112 103,143.5C 104.153,145.497 105.653,145.83 107.5,144.5C 106.5,143.667 105.5,142.833 104.5,142C 106.723,141.348 107.89,139.848 108,137.5C 109.113,138.76 109.28,139.927 108.5,141C 109.944,141.781 111.277,141.614 112.5,140.5C 111.975,139.808 111.308,139.308 110.5,139C 113.522,138.346 115.522,139.513 116.5,142.5C 116.5,142.833 116.5,143.167 116.5,143.5C 114.425,143.302 112.425,143.135 110.5,143C 111.641,143.741 111.641,144.575 110.5,145.5C 111.5,146.833 112.5,148.167 113.5,149.5C 112.098,150.842 112.431,151.676 114.5,152C 113.892,152.87 113.059,153.37 112,153.5C 108.961,153.065 106.461,151.732 104.5,149.5C 103.521,152.953 102.021,153.286 100,150.5C 98.8469,152.497 97.3469,152.83 95.5,151.5C 95.7093,150.914 96.0426,150.414 96.5,150C 95.2068,149.51 93.8734,149.343 92.5,149.5C 93.3561,134.073 93.6895,118.407 93.5,102.5C 95.4672,102.261 97.3005,102.594 99,103.5C 105.336,98.9029 104.836,96.5695 97.5,96.5C 100.889,95.8152 104.222,95.4819 107.5,95.5C 106.239,97.972 104.239,100.472 101.5,103C 103.025,104.009 104.692,104.509 106.5,104.5 Z"/></g>
<g><path style="opacity:0.996" fill="#f6da51" d="M 100.5,122.5 C 98.5,122.5 96.5,122.5 94.5,122.5C 94.5,116.5 94.5,110.5 94.5,104.5C 97.9708,104.899 98.3042,106.399 95.5,109C 98.9481,111.594 99.2815,114.594 96.5,118C 98.0041,117.069 99.6708,116.402 101.5,116C 100.167,117 100.167,118 101.5,119C 98.0465,119.628 97.7131,120.795 100.5,122.5 Z"/></g>
<g><path style="opacity:0.992" fill="#f6dc5a" d="M 116.5,143.5 C 116.246,148.444 115.246,153.111 113.5,157.5C 111.413,158.551 109.246,158.551 107,157.5C 105.553,157.945 104.22,158.612 103,159.5C 101.97,159.164 101.47,158.497 101.5,157.5C 101.5,157.167 101.5,156.833 101.5,156.5C 101.938,156.565 102.272,156.399 102.5,156C 99.1954,153.779 95.5287,152.612 91.5,152.5C 91.5569,151.391 91.8902,150.391 92.5,149.5C 93.8734,149.343 95.2068,149.51 96.5,150C 96.0426,150.414 95.7093,150.914 95.5,151.5C 97.3469,152.83 98.8469,152.497 100,150.5C 102.021,153.286 103.521,152.953 104.5,149.5C 106.461,151.732 108.961,153.065 112,153.5C 113.059,153.37 113.892,152.87 114.5,152C 112.431,151.676 112.098,150.842 113.5,149.5C 112.5,148.167 111.5,146.833 110.5,145.5C 111.641,144.575 111.641,143.741 110.5,143C 112.425,143.135 114.425,143.302 116.5,143.5 Z"/></g>
<g><path style="opacity:0.998" fill="#b2bac1" d="M 33.5,183.5 C 19.1989,169.916 9.19886,153.583 3.5,134.5C 4.11742,134.389 4.61742,134.056 5,133.5C 5.24917,134.624 5.74917,135.624 6.5,136.5C 7.09595,135.284 7.26261,133.951 7,132.5C 9.93933,134.396 12.4393,136.73 14.5,139.5C 13.3493,140.731 12.1827,140.731 11,139.5C 10.51,140.793 10.3433,142.127 10.5,143.5C 11.9305,143.579 13.2638,143.246 14.5,142.5C 15.1924,143.025 15.6924,143.692 16,144.5C 16.3333,143.167 16.6667,141.833 17,140.5C 18.8665,142.808 19.8665,145.475 20,148.5C 20.3076,147.692 20.8076,147.025 21.5,146.5C 22.5237,147.853 23.857,148.52 25.5,148.5C 25.5228,150.6 24.8561,152.433 23.5,154C 25.1952,158.858 27.1952,163.525 29.5,168C 28.7433,169.512 27.7433,170.846 26.5,172C 27.448,172.483 28.448,172.649 29.5,172.5C 29.5861,174.677 30.2528,176.677 31.5,178.5C 32.6313,179.604 33.4646,179.271 34,177.5C 34.6776,179.598 34.5109,181.598 33.5,183.5 Z"/></g>
<g><path style="opacity:0.988" fill="#f1cd47" d="M 91.5,152.5 C 95.5287,152.612 99.1954,153.779 102.5,156C 102.272,156.399 101.938,156.565 101.5,156.5C 100.167,156.833 100.167,157.167 101.5,157.5C 101.47,158.497 101.97,159.164 103,159.5C 104.22,158.612 105.553,157.945 107,157.5C 109.246,158.551 111.413,158.551 113.5,157.5C 113.739,159.467 113.406,161.301 112.5,163C 105.833,163.667 99.1667,163.667 92.5,163C 91.4216,162.326 90.7549,161.326 90.5,160C 91.1595,157.538 91.4928,155.038 91.5,152.5 Z"/></g>
<g><path style="opacity:1" fill="#a4aab0" d="M 144.5,158.5 C 144.611,159.117 144.944,159.617 145.5,160C 143.981,161.351 142.648,162.851 141.5,164.5C 142.896,165.852 143.563,167.519 143.5,169.5C 141.893,172.525 139.893,175.358 137.5,178C 140.681,180.019 141.181,182.519 139,185.5C 138,184.167 137,182.833 136,181.5C 135.397,184.656 135.897,187.656 137.5,190.5C 135.014,192.578 134.014,195.245 134.5,198.5C 133.07,198.579 131.736,198.246 130.5,197.5C 129.585,198.328 128.919,199.328 128.5,200.5C 129.909,200.822 131.409,201.822 133,203.5C 133.749,204.635 133.583,205.635 132.5,206.5C 131.197,205.282 130.197,205.615 129.5,207.5C 126.163,204.446 123.997,205.112 123,209.5C 122.23,208.402 121.397,208.402 120.5,209.5C 122.545,204.579 124.212,199.579 125.5,194.5C 124.325,194.719 123.325,194.386 122.5,193.5C 123.689,192.571 125.022,192.238 126.5,192.5C 126.281,193.675 126.614,194.675 127.5,195.5C 128.004,192.658 129.671,191.325 132.5,191.5C 132.251,188.998 131.917,186.498 131.5,184C 131.748,182.284 132.415,180.784 133.5,179.5C 129.828,178.769 129.161,177.269 131.5,175C 132.793,174.51 134.127,174.343 135.5,174.5C 135.52,172.857 134.853,171.524 133.5,170.5C 134.167,169.5 134.833,168.5 135.5,167.5C 134.193,166.135 134.193,164.802 135.5,163.5C 138.366,161.568 141.366,159.901 144.5,158.5 Z"/></g>
<g><path style="opacity:1" fill="#d1d9e1" d="M 36.5,152.5 C 37.9733,153.071 39.64,153.071 41.5,152.5C 41.5792,153.93 41.2458,155.264 40.5,156.5C 41.6982,160.484 43.6982,163.984 46.5,167C 46.1667,167.333 45.8333,167.667 45.5,168C 46.2226,170.112 47.2226,172.112 48.5,174C 45.8537,176.04 45.8537,178.04 48.5,180C 47.4829,181.049 47.3162,182.216 48,183.5C 49.1562,184.993 49.9896,184.826 50.5,183C 49.8132,181.838 49.6466,180.672 50,179.5C 52.4603,180.755 53.627,182.755 53.5,185.5C 52.5,185.5 51.5,185.5 50.5,185.5C 49.9387,187.908 49.4387,190.241 49,192.5C 51.1821,194.54 53.3487,194.206 55.5,191.5C 55.8333,192 56.1667,192.5 56.5,193C 54.8446,194.301 53.5113,195.801 52.5,197.5C 48.2637,195.555 44.5971,192.888 41.5,189.5C 42.0431,189.44 42.3764,189.107 42.5,188.5C 41.5,187.667 40.5,186.833 39.5,186C 41.1066,184.951 41.7733,183.451 41.5,181.5C 39.3652,181.853 38.0319,181.02 37.5,179C 38.3839,177.902 39.3839,177.402 40.5,177.5C 41.6128,174.394 41.6128,171.061 40.5,167.5C 41.552,167.649 42.552,167.483 43.5,167C 41.1257,166.152 39.1257,164.819 37.5,163C 38.7728,160.484 38.7728,157.984 37.5,155.5C 35.5812,156.087 33.5812,156.087 31.5,155.5C 33.0725,154.313 34.7392,153.313 36.5,152.5 Z"/></g>
<g><path style="opacity:1" fill="#c1cbd3" d="M 121.5,168.5 C 117.838,171.495 114.505,174.829 111.5,178.5C 111.667,178.833 111.833,179.167 112,179.5C 114.668,175.335 116.168,175.835 116.5,181C 116.167,181.5 115.833,182 115.5,182.5C 110.505,181.519 110.172,182.519 114.5,185.5C 117.165,184.112 118.165,185.112 117.5,188.5C 114.086,187.753 110.753,187.753 107.5,188.5C 107.477,190.6 108.144,192.433 109.5,194C 108.034,196.438 108.368,198.605 110.5,200.5C 108.602,201.734 106.935,201.401 105.5,199.5C 104.167,201.833 104.167,204.167 105.5,206.5C 106.747,208.044 108.08,209.544 109.5,211C 106.854,211.497 104.187,211.664 101.5,211.5C 102.504,209.508 103.17,207.341 103.5,205C 102.89,197.173 102.723,189.34 103,181.5C 103.333,181.833 103.667,182.167 104,182.5C 104.492,181.451 104.326,180.451 103.5,179.5C 105.436,177.522 107.77,176.189 110.5,175.5C 108.191,173.647 105.858,171.98 103.5,170.5C 106.385,170.806 109.052,170.473 111.5,169.5C 114.86,169.384 118.193,169.051 121.5,168.5 Z"/></g>
<g><path style="opacity:1" fill="#aab1b8" d="M 135.5,163.5 C 134.193,164.802 134.193,166.135 135.5,167.5C 134.833,168.5 134.167,169.5 133.5,170.5C 134.853,171.524 135.52,172.857 135.5,174.5C 134.127,174.343 132.793,174.51 131.5,175C 129.161,177.269 129.828,178.769 133.5,179.5C 132.415,180.784 131.748,182.284 131.5,184C 131.917,186.498 132.251,188.998 132.5,191.5C 129.671,191.325 128.004,192.658 127.5,195.5C 126.614,194.675 126.281,193.675 126.5,192.5C 125.022,192.238 123.689,192.571 122.5,193.5C 123.325,194.386 124.325,194.719 125.5,194.5C 124.212,199.579 122.545,204.579 120.5,209.5C 120.5,210.167 120.5,210.833 120.5,211.5C 119.5,211.5 118.5,211.5 117.5,211.5C 117.708,209.08 117.374,206.747 116.5,204.5C 116.833,204.167 117.167,203.833 117.5,203.5C 118.251,204.376 118.751,205.376 119,206.5C 119.303,204.112 120.137,201.945 121.5,200C 120.643,199.311 119.977,198.478 119.5,197.5C 122.111,193.113 122.777,188.446 121.5,183.5C 123.5,181.5 125.5,179.5 127.5,177.5C 126.609,176.41 125.609,176.41 124.5,177.5C 124.167,176.5 123.833,175.5 123.5,174.5C 125.154,171.841 126.821,169.175 128.5,166.5C 130.713,165.227 133.046,164.227 135.5,163.5 Z"/></g>
<g><path style="opacity:1" fill="#f0f4f9" d="M 51.5,140.5 C 61.1223,154.444 74.1223,163.777 90.5,168.5C 89.7629,170.305 88.7629,171.971 87.5,173.5C 90.1047,175.416 89.6047,176.416 86,176.5C 83.5224,176.173 81.3557,175.173 79.5,173.5C 80.6283,172.738 81.7949,172.071 83,171.5C 82.9372,168.827 82.2705,168.827 81,171.5C 79.3196,170.397 77.8196,170.73 76.5,172.5C 78.9728,175.242 81.3062,178.576 83.5,182.5C 80.5766,183.794 78.5766,182.794 77.5,179.5C 76.675,178.614 75.675,178.281 74.5,178.5C 74.5,180.167 74.5,181.833 74.5,183.5C 75.9305,183.421 77.2638,183.754 78.5,184.5C 81.7453,188.538 81.9119,192.538 79,196.5C 77.5947,194.349 75.7614,192.682 73.5,191.5C 70.5833,194.268 71.25,195.768 75.5,196C 74.6433,196.689 73.9767,197.522 73.5,198.5C 75.7092,199.063 77.2092,200.396 78,202.5C 79.6171,201.149 80.7838,199.482 81.5,197.5C 82.4519,199.045 82.7852,200.712 82.5,202.5C 76.1932,205.809 72.1932,203.976 70.5,197C 69.2575,196.689 68.2575,197.189 67.5,198.5C 66.914,198.291 66.414,197.957 66,197.5C 64.7765,192.387 66.1098,188.053 70,184.5C 70.2734,186.101 70.7734,187.601 71.5,189C 72.4835,189.591 73.1501,189.257 73.5,188C 72.3507,186.27 72.3507,184.604 73.5,183C 71.5907,180.521 69.924,177.855 68.5,175C 69.5812,173.629 70.4145,172.129 71,170.5C 73.6444,173.33 74.4777,172.996 73.5,169.5C 72.4783,168.646 71.6449,167.646 71,166.5C 70.1853,168.623 69.1853,170.623 68,172.5C 67.6667,171.167 67.3333,169.833 67,168.5C 65.9562,170.715 65.2895,173.048 65,175.5C 64.2917,174.619 63.4584,173.953 62.5,173.5C 61.0015,171.742 60.6681,169.909 61.5,168C 60.1667,167.667 58.8333,167.333 57.5,167C 59.3203,166.021 60.487,164.521 61,162.5C 62.2837,163.572 62.6171,164.905 62,166.5C 63.3513,164.981 64.8513,163.648 66.5,162.5C 65.3493,161.269 64.1827,161.269 63,162.5C 62.0331,161.322 61.5331,159.989 61.5,158.5C 58.4616,159.731 55.4616,159.564 52.5,158C 51.6827,155.727 51.6827,153.227 52.5,150.5C 52.1322,149.09 51.2989,148.09 50,147.5C 48.3542,149.055 48.0209,150.721 49,152.5C 47.883,151.051 47.2163,149.384 47,147.5C 45.8631,148.364 44.5298,149.364 43,150.5C 42.8333,150 42.6667,149.5 42.5,149C 44.4149,147.164 46.7483,145.998 49.5,145.5C 50.4565,143.925 51.1231,142.258 51.5,140.5 Z"/></g>
<g><path style="opacity:1" fill="#91969a" d="M 204.5,94.5 C 203.737,95.2679 202.737,95.7679 201.5,96C 204.649,96.776 205.149,98.276 203,100.5C 202.667,100.167 202.333,99.8333 202,99.5C 201.02,100.981 199.853,102.315 198.5,103.5C 199.263,104.719 200.263,105.719 201.5,106.5C 202.928,109.35 202.261,110.35 199.5,109.5C 200.59,108.391 200.59,107.391 199.5,106.5C 198.365,107.103 197.365,107.436 196.5,107.5C 197.806,108.912 198.64,110.579 199,112.5C 199.75,113.126 200.584,113.626 201.5,114C 199.633,114.711 198.133,114.211 197,112.5C 196.1,113.77 194.934,114.77 193.5,115.5C 193.833,116.167 194.167,116.833 194.5,117.5C 193.282,117.109 192.448,117.776 192,119.5C 191.506,121.134 191.34,122.801 191.5,124.5C 192.833,124.5 194.167,124.5 195.5,124.5C 195.719,125.675 195.386,126.675 194.5,127.5C 192.821,125.896 190.821,125.229 188.5,125.5C 188.343,126.873 188.51,128.207 189,129.5C 190.183,128.269 191.349,128.269 192.5,129.5C 191.675,130.386 190.675,130.719 189.5,130.5C 189.966,132.201 189.966,133.701 189.5,135C 190.167,135.333 190.833,135.667 191.5,136C 190.207,136.49 188.873,136.657 187.5,136.5C 187.489,139.89 186.155,142.556 183.5,144.5C 184.333,146.881 184,149.214 182.5,151.5C 179.916,153.768 177.249,155.268 174.5,156C 175.471,157.204 176.471,157.704 177.5,157.5C 175.663,158.838 173.997,160.338 172.5,162C 172.759,163.261 173.426,164.261 174.5,165C 173.667,165.833 172.833,166.667 172,167.5C 170.817,166.269 169.651,166.269 168.5,167.5C 169.833,168.62 170.333,169.953 170,171.5C 169.085,172.328 168.419,173.328 168,174.5C 167.586,174.043 167.086,173.709 166.5,173.5C 164.124,174.579 163.957,175.912 166,177.5C 167.642,176.154 168.309,176.487 168,178.5C 165.928,181.154 164.261,180.82 163,177.5C 162.202,179.259 162.369,180.926 163.5,182.5C 165.133,181.256 166.133,181.756 166.5,184C 165.873,186.135 165.373,188.302 165,190.5C 163.192,192.033 162.692,193.7 163.5,195.5C 161.795,197.192 159.795,198.525 157.5,199.5C 156.131,195.281 155.631,190.947 156,186.5C 156.219,187.938 156.719,189.271 157.5,190.5C 158.59,189.609 158.59,188.609 157.5,187.5C 161.019,183.214 162.019,178.714 160.5,174C 162.081,173.293 163.581,172.46 165,171.5C 165.645,168.304 166.812,165.304 168.5,162.5C 169.086,162.709 169.586,163.043 170,163.5C 170.179,160.447 170.679,157.447 171.5,154.5C 172.396,155.506 173.062,155.506 173.5,154.5C 172.652,152.591 172.318,150.591 172.5,148.5C 174.167,148.5 175.833,148.5 177.5,148.5C 177.33,147.178 177.663,146.011 178.5,145C 175.164,138.907 176.33,133.74 182,129.5C 182.49,128.207 182.657,126.873 182.5,125.5C 183.822,125.33 184.989,125.663 186,126.5C 186.374,125.584 186.874,124.75 187.5,124C 185.543,121.879 185.043,119.379 186,116.5C 186.308,117.308 186.808,117.975 187.5,118.5C 189.713,116.458 190.38,114.125 189.5,111.5C 192.797,110.858 193.131,109.691 190.5,108C 191.938,106.431 193.438,104.931 195,103.5C 195.667,102.167 195.667,100.833 195,99.5C 193.205,98.2805 193.372,97.2805 195.5,96.5C 198.402,95.4222 201.402,94.7556 204.5,94.5 Z"/></g>
<g><path style="opacity:1" fill="#ebeff5" d="M 83.5,182.5 C 85.068,184.844 84.7347,186.844 82.5,188.5C 82.8457,189.696 83.3457,189.696 84,188.5C 85.3231,190.839 86.8231,193.005 88.5,195C 87.386,196.57 86.0526,197.903 84.5,199C 86.3795,199.96 88.3795,200.46 90.5,200.5C 88.876,201.869 88.376,203.536 89,205.5C 89.414,205.043 89.914,204.709 90.5,204.5C 91.4656,206.396 91.7989,208.396 91.5,210.5C 91.1667,210.5 90.8333,210.5 90.5,210.5C 79.8093,209.489 69.8093,206.489 60.5,201.5C 60.6821,197.276 62.0154,193.609 64.5,190.5C 63.0222,190.762 61.6888,190.429 60.5,189.5C 56.0622,184.664 55.3955,179.331 58.5,173.5C 59.9948,174.705 61.3281,174.705 62.5,173.5C 63.4584,173.953 64.2917,174.619 65,175.5C 65.2895,173.048 65.9562,170.715 67,168.5C 67.3333,169.833 67.6667,171.167 68,172.5C 69.1853,170.623 70.1853,168.623 71,166.5C 71.6449,167.646 72.4783,168.646 73.5,169.5C 74.4777,172.996 73.6444,173.33 71,170.5C 70.4145,172.129 69.5812,173.629 68.5,175C 69.924,177.855 71.5907,180.521 73.5,183C 72.3507,184.604 72.3507,186.27 73.5,188C 73.1501,189.257 72.4835,189.591 71.5,189C 70.7734,187.601 70.2734,186.101 70,184.5C 66.1098,188.053 64.7765,192.387 66,197.5C 66.414,197.957 66.914,198.291 67.5,198.5C 68.2575,197.189 69.2575,196.689 70.5,197C 72.1932,203.976 76.1932,205.809 82.5,202.5C 82.7852,200.712 82.4519,199.045 81.5,197.5C 80.7838,199.482 79.6171,201.149 78,202.5C 77.2092,200.396 75.7092,199.063 73.5,198.5C 73.9767,197.522 74.6433,196.689 75.5,196C 71.25,195.768 70.5833,194.268 73.5,191.5C 75.7614,192.682 77.5947,194.349 79,196.5C 81.9119,192.538 81.7453,188.538 78.5,184.5C 77.2638,183.754 75.9305,183.421 74.5,183.5C 74.5,181.833 74.5,180.167 74.5,178.5C 75.675,178.281 76.675,178.614 77.5,179.5C 78.5766,182.794 80.5766,183.794 83.5,182.5 Z"/></g>
<g><path style="opacity:1" fill="#d0d8e0" d="M 103.5,170.5 C 105.858,171.98 108.191,173.647 110.5,175.5C 107.77,176.189 105.436,177.522 103.5,179.5C 104.326,180.451 104.492,181.451 104,182.5C 103.667,182.167 103.333,181.833 103,181.5C 102.723,189.34 102.89,197.173 103.5,205C 103.17,207.341 102.504,209.508 101.5,211.5C 99.8333,211.5 98.1667,211.5 96.5,211.5C 94.2646,211.795 92.2646,211.461 90.5,210.5C 90.8333,210.5 91.1667,210.5 91.5,210.5C 92.8333,210.5 94.1667,210.5 95.5,210.5C 95.7754,204.587 95.9421,198.587 96,192.5C 97.2012,189.835 98.0345,187.002 98.5,184C 97.342,180.93 95.342,179.763 92.5,180.5C 91.2801,180.113 90.6135,179.28 90.5,178C 91.639,171.131 92.9723,170.965 94.5,177.5C 95.3857,176.675 95.719,175.675 95.5,174.5C 98.8957,174.367 99.2291,173.367 96.5,171.5C 98.7427,170.526 101.076,170.192 103.5,170.5 Z"/></g>
<g><path style="opacity:1" fill="#e1e7ee" d="M 90.5,168.5 C 97.4648,169.341 104.465,169.674 111.5,169.5C 109.052,170.473 106.385,170.806 103.5,170.5C 101.076,170.192 98.7427,170.526 96.5,171.5C 99.2291,173.367 98.8957,174.367 95.5,174.5C 95.719,175.675 95.3857,176.675 94.5,177.5C 92.9723,170.965 91.639,171.131 90.5,178C 90.6135,179.28 91.2801,180.113 92.5,180.5C 95.342,179.763 97.342,180.93 98.5,184C 98.0345,187.002 97.2012,189.835 96,192.5C 95.9421,198.587 95.7754,204.587 95.5,210.5C 94.1667,210.5 92.8333,210.5 91.5,210.5C 91.7989,208.396 91.4656,206.396 90.5,204.5C 89.914,204.709 89.414,205.043 89,205.5C 88.376,203.536 88.876,201.869 90.5,200.5C 88.3795,200.46 86.3795,199.96 84.5,199C 86.0526,197.903 87.386,196.57 88.5,195C 86.8231,193.005 85.3231,190.839 84,188.5C 83.3457,189.696 82.8457,189.696 82.5,188.5C 84.7347,186.844 85.068,184.844 83.5,182.5C 81.3062,178.576 78.9728,175.242 76.5,172.5C 77.8196,170.73 79.3196,170.397 81,171.5C 82.2705,168.827 82.9372,168.827 83,171.5C 81.7949,172.071 80.6283,172.738 79.5,173.5C 81.3557,175.173 83.5224,176.173 86,176.5C 89.6047,176.416 90.1047,175.416 87.5,173.5C 88.7629,171.971 89.7629,170.305 90.5,168.5 Z"/></g>
<g><path style="opacity:1" fill="#b2bac2" d="M 128.5,166.5 C 126.821,169.175 125.154,171.841 123.5,174.5C 123.833,175.5 124.167,176.5 124.5,177.5C 125.609,176.41 126.609,176.41 127.5,177.5C 125.5,179.5 123.5,181.5 121.5,183.5C 122.777,188.446 122.111,193.113 119.5,197.5C 119.977,198.478 120.643,199.311 121.5,200C 120.137,201.945 119.303,204.112 119,206.5C 118.751,205.376 118.251,204.376 117.5,203.5C 117.167,203.833 116.833,204.167 116.5,204.5C 117.374,206.747 117.708,209.08 117.5,211.5C 116.508,211.328 115.842,211.662 115.5,212.5C 109.167,212.5 102.833,212.5 96.5,212.5C 96.5,212.167 96.5,211.833 96.5,211.5C 98.1667,211.5 99.8333,211.5 101.5,211.5C 104.187,211.664 106.854,211.497 109.5,211C 108.08,209.544 106.747,208.044 105.5,206.5C 104.167,204.167 104.167,201.833 105.5,199.5C 106.935,201.401 108.602,201.734 110.5,200.5C 108.368,198.605 108.034,196.438 109.5,194C 108.144,192.433 107.477,190.6 107.5,188.5C 110.753,187.753 114.086,187.753 117.5,188.5C 118.165,185.112 117.165,184.112 114.5,185.5C 110.172,182.519 110.505,181.519 115.5,182.5C 115.833,182 116.167,181.5 116.5,181C 116.168,175.835 114.668,175.335 112,179.5C 111.833,179.167 111.667,178.833 111.5,178.5C 114.505,174.829 117.838,171.495 121.5,168.5C 123.772,167.681 126.106,167.015 128.5,166.5 Z"/></g>
</svg>
