<?xml version="1.0" encoding="UTF-8" standalone="no"?>
<svg
   xmlns:dc="http://purl.org/dc/elements/1.1/"
   xmlns:cc="http://creativecommons.org/ns#"
   xmlns:rdf="http://www.w3.org/1999/02/22-rdf-syntax-ns#"
   xmlns:svg="http://www.w3.org/2000/svg"
   xmlns="http://www.w3.org/2000/svg"
   xmlns:sodipodi="http://sodipodi.sourceforge.net/DTD/sodipodi-0.dtd"
   xmlns:inkscape="http://www.inkscape.org/namespaces/inkscape"
   id="ic_empty_dark_multisend"
   width="100"
   height="100"
   viewBox="0 0 100 100"
   version="1.1"
   sodipodi:docname="img-empty-dark-multisend.svg"
   inkscape:version="0.92.4 (5da689c313, 2019-01-14)">
  <metadata
     id="metadata27">
    <rdf:RDF>
      <cc:Work
         rdf:about="">
        <dc:format>image/svg+xml</dc:format>
        <dc:type
           rdf:resource="http://purl.org/dc/dcmitype/StillImage" />
      </cc:Work>
    </rdf:RDF>
  </metadata>
  <sodipodi:namedview
     pagecolor="#ffffff"
     bordercolor="#666666"
     borderopacity="1"
     objecttolerance="10"
     gridtolerance="10"
     guidetolerance="10"
     inkscape:pageopacity="0"
     inkscape:pageshadow="2"
     inkscape:window-width="1920"
     inkscape:window-height="1017"
     id="namedview25"
     showgrid="false"
     inkscape:zoom="2.36"
     inkscape:cx="50"
     inkscape:cy="50"
     inkscape:window-x="-8"
     inkscape:window-y="-8"
     inkscape:window-maximized="1"
     inkscape:current-layer="Group_9061" />
  <defs
     id="defs4">
    <style
       type="text/css"
       id="style2">
            .cls-1{fill:#413d4a}.cls-2{fill:#a09ea5}.cls-3{fill:none}
        </style>
  </defs>
  <g
     data-name="Group 9060"
     id="Group_9060">
    <path
       style="fill:#413d4a"
       inkscape:connector-curvature="0"
       transform="translate(45,18)"
       data-name="Rectangle 4717"
       class="cls-1"
       d="M 0,0 H 10 V 9 H 0 Z"
       id="Rectangle_4717" />
    <g
       data-name="Group 9059"
       id="Group_9059">
      <path
         style="fill:#413d4a"
         inkscape:connector-curvature="0"
         transform="translate(14,66)"
         data-name="Rectangle 4718"
         class="cls-1"
         d="M 0,0 H 6 V 10 H 0 Z"
         id="Rectangle_4718" />
      <path
         style="fill:#413d4a"
         inkscape:connector-curvature="0"
         transform="translate(80,66)"
         data-name="Rectangle 4719"
         class="cls-1"
         d="M 0,0 H 6 V 10 H 0 Z"
         id="Rectangle_4719" />
      <path
         style="fill:#413d4a"
         inkscape:connector-curvature="0"
         transform="translate(47,66)"
         data-name="Rectangle 4720"
         class="cls-1"
         d="M 0,0 H 6 V 10 H 0 Z"
         id="Rectangle_4720" />
    </g>
  </g>
  <g
     data-name="Group 9061"
     id="Group_9061">
    <path
       style="fill:#a09ea5"
       inkscape:connector-curvature="0"
       transform="translate(67,40)"
       data-name="Rectangle 4722"
       class="cls-2"
       d="M 0,0 H 2 V 4 H 0 Z"
       id="Rectangle_4722" />
    <circle
       style="fill:#a09ea5"
       transform="translate(49,72)"
       data-name="Ellipse 643"
       class="cls-2"
       r="1"
       cy="1"
       cx="1"
       id="Ellipse_643" />
    <circle
       style="fill:#a09ea5"
       transform="translate(82,72)"
       data-name="Ellipse 644"
       class="cls-2"
       r="1"
       cy="1"
       cx="1"
       id="Ellipse_644" />
    <path
       style="fill:#a09ea5"
       inkscape:connector-curvature="0"
       transform="translate(32,58)"
       data-name="Rectangle 4723"
       class="cls-2"
       d="M 0,0 H 4 V 2 H 0 Z"
       id="Rectangle_4723" />
    <path
       style="fill:#a09ea5"
       inkscape:connector-curvature="0"
       data-name="Path 19007"
       class="cls-2"
       d="m 16,65 h -3 v 3 H 7 v 4 h 2 v -2 h 4 v 7 h 8 v -7 h 4 V 91 H 9 V 76 H 7 V 93 H 27 V 68 H 21 V 65 H 18 V 60 H 28 V 58 H 16 Z m 3,2 v 8 h -4 v -8 z"
       id="Path_19007" />
    <circle
       style="fill:#a09ea5"
       transform="translate(16,72)"
       data-name="Ellipse 645"
       class="cls-2"
       r="1"
       cy="1"
       cx="1"
       id="Ellipse_645" />
    <path
       style="fill:#a09ea5"
       inkscape:connector-curvature="0"
       data-name="Path 19008"
       class="cls-2"
       d="M 87,68 V 65 H 84 V 58 H 51 v -5 h 18 v -5 h -2 v 3 H 33 V 28 h 34 v 8 h 2 v -8 h 4 V 17 H 59.46 A 5.994,5.994 0 1 0 50,9.69 5.995,5.995 0 1 0 40.54,17 H 27 v 11 h 4 v 25 h 18 v 5 h -9 v 2 h 9 v 5 h -3 v 3 h -6 v 16 h 2 V 70 h 4 v 7 h 8 v -7 h 4 V 91 H 42 v -3 h -2 v 5 H 60 V 68 h -6 v -3 h -3 v -5 h 31 v 5 h -3 v 3 h -6 v 12 h 2 V 70 h 4 v 7 h 8 v -7 h 4 V 91 H 75 v -7 h -2 v 9 H 93 V 68 Z M 71,19 v 7 H 56 V 19 Z M 51,13 a 4,4 0 1 1 4,4 h -4 z m 0,6 h 3 v 7 H 46 V 19 Z M 45,9 a 4,4 0 0 1 4,4 v 4 H 45 A 4,4 0 0 1 45,9 Z M 29,26 v -7 h 15 v 7 z m 23,41 v 8 h -4 v -8 z m 33,8 h -4 v -8 h 4 z"
       id="Path_19008" />
  </g>
  <path
     id="Rectangle_4724"
     d="M0 0h100v100H0z"
     class="cls-3"
     data-name="Rectangle 4724" />
</svg>
