<?xml version="1.0" encoding="UTF-8"?>
<!DOCTYPE svg PUBLIC "-//W3C//DTD SVG 1.1//EN" "http://www.w3.org/Graphics/SVG/1.1/DTD/svg11.dtd">
<svg xmlns="http://www.w3.org/2000/svg" version="1.1" width="900px" height="300px" style="shape-rendering:geometricPrecision; text-rendering:geometricPrecision; image-rendering:optimizeQuality; fill-rule:evenodd; clip-rule:evenodd" xmlns:xlink="http://www.w3.org/1999/xlink">
<g><path style="opacity:0.863" fill="#f4df76" d="M 136.5,64.5 C 134.444,65.2161 132.277,65.8828 130,66.5C 121.558,65.3536 113.058,65.3536 104.5,66.5C 106.954,65.3794 109.621,64.546 112.5,64C 120.535,63.264 128.535,63.4307 136.5,64.5 Z"/></g>
<g><path style="opacity:1" fill="#e8c53d" d="M 96.5,68.5 C 96.7058,70.5492 97.5391,70.8825 99,69.5C 99.7724,70.8491 100.939,71.6824 102.5,72C 101.167,72.6667 99.8333,73.3333 98.5,74C 101.044,75.0985 101.044,76.2652 98.5,77.5C 97.1166,74.9244 96.2833,75.2577 96,78.5C 95.4572,73.6035 94.1239,73.6035 92,78.5C 91.586,78.0426 91.086,77.7093 90.5,77.5C 88.9499,81.2176 86.2832,83.7176 82.5,85C 84.5873,85.7922 86.4207,86.9588 88,88.5C 88.6172,87.5509 88.4506,86.7175 87.5,86C 89.6809,84.6516 91.3476,82.8182 92.5,80.5C 93.4255,81.6405 94.2588,81.6405 95,80.5C 95.3114,81.7425 94.8114,82.7425 93.5,83.5C 94.2739,84.7112 95.1072,84.7112 96,83.5C 96.6667,84.1667 96.6667,84.8333 96,85.5C 94.324,86.0611 92.9906,87.0611 92,88.5C 91.6667,88.1667 91.3333,87.8333 91,87.5C 88.6025,90.0544 86.2691,90.0544 84,87.5C 80.6406,89.6952 77.8072,92.3619 75.5,95.5C 74.8333,95.5 74.5,95.8333 74.5,96.5C 71.7131,97.4767 68.7131,97.81 65.5,97.5C 63.712,97.7852 62.0453,97.4519 60.5,96.5C 62.2776,94.736 63.6109,92.736 64.5,90.5C 72.9596,80.2457 83.6262,72.9124 96.5,68.5 Z"/></g>
<g><path style="opacity:1" fill="#efd74a" d="M 136.5,64.5 C 142.47,65.9076 148.137,68.0743 153.5,71C 143.001,76.8918 132.001,81.7252 120.5,85.5C 116.292,85.677 112.626,87.0103 109.5,89.5C 104.039,91.6149 98.3727,92.9482 92.5,93.5C 86.8197,94.0579 81.1531,94.7245 75.5,95.5C 77.8072,92.3619 80.6406,89.6952 84,87.5C 86.2691,90.0544 88.6025,90.0544 91,87.5C 91.3333,87.8333 91.6667,88.1667 92,88.5C 92.9906,87.0611 94.324,86.0611 96,85.5C 96.6667,84.8333 96.6667,84.1667 96,83.5C 95.1072,84.7112 94.2739,84.7112 93.5,83.5C 94.8114,82.7425 95.3114,81.7425 95,80.5C 94.2588,81.6405 93.4255,81.6405 92.5,80.5C 91.3476,82.8182 89.6809,84.6516 87.5,86C 88.4506,86.7175 88.6172,87.5509 88,88.5C 86.4207,86.9588 84.5873,85.7922 82.5,85C 86.2832,83.7176 88.9499,81.2176 90.5,77.5C 91.086,77.7093 91.586,78.0426 92,78.5C 94.1239,73.6035 95.4572,73.6035 96,78.5C 96.2833,75.2577 97.1166,74.9244 98.5,77.5C 101.044,76.2652 101.044,75.0985 98.5,74C 99.8333,73.3333 101.167,72.6667 102.5,72C 100.939,71.6824 99.7724,70.8491 99,69.5C 97.5391,70.8825 96.7058,70.5492 96.5,68.5C 98.9052,67.2318 101.572,66.5651 104.5,66.5C 113.058,65.3536 121.558,65.3536 130,66.5C 132.277,65.8828 134.444,65.2161 136.5,64.5 Z"/></g>
<g><path style="opacity:0.004" fill="#fdfae3" d="M 173.5,83.5 C 176.833,84.8333 179.167,87.1667 180.5,90.5C 177.833,88.5 175.5,86.1667 173.5,83.5 Z"/></g>
<g><path style="opacity:0.278" fill="#937b23" d="M 120.5,85.5 C 117.061,87.2043 113.395,88.5376 109.5,89.5C 112.626,87.0103 116.292,85.677 120.5,85.5 Z"/></g>
<g><path style="opacity:0.537" fill="#6b5214" d="M 64.5,90.5 C 63.6109,92.736 62.2776,94.736 60.5,96.5C 62.0453,97.4519 63.712,97.7852 65.5,97.5C 56.9831,98.4851 56.6498,96.1518 64.5,90.5 Z"/></g>
<g><path style="opacity:0.243" fill="#fdfad7" d="M 180.5,90.5 C 183.995,92.5775 185.995,95.2442 186.5,98.5C 184.122,96.1215 182.122,93.4549 180.5,90.5 Z"/></g>
<g><path style="opacity:0.094" fill="#725b21" d="M 92.5,93.5 C 86.8039,95.5606 80.8039,96.5606 74.5,96.5C 74.5,95.8333 74.8333,95.5 75.5,95.5C 81.1531,94.7245 86.8197,94.0579 92.5,93.5 Z"/></g>
<g><path style="opacity:1" fill="#f4e456" d="M 173.5,83.5 C 175.5,86.1667 177.833,88.5 180.5,90.5C 182.122,93.4549 184.122,96.1215 186.5,98.5C 186.389,99.1174 186.056,99.6174 185.5,100C 178.51,102.607 171.51,105.107 164.5,107.5C 161.775,106.704 159.609,105.037 158,102.5C 157.5,103 157,103.5 156.5,104C 157.956,104.423 158.456,105.256 158,106.5C 155.686,107.733 153.519,109.067 151.5,110.5C 151.5,111.167 151.167,111.5 150.5,111.5C 147.707,110.254 145.04,110.587 142.5,112.5C 141.432,113.434 140.099,113.768 138.5,113.5C 136.801,113.66 135.134,113.494 133.5,113C 134.696,112.346 134.696,111.846 133.5,111.5C 130.082,113.314 126.749,114.981 123.5,116.5C 123.167,116.5 122.833,116.5 122.5,116.5C 119.603,116.875 116.937,116.375 114.5,115C 117.408,114.311 120.075,113.145 122.5,111.5C 122.291,110.914 121.957,110.414 121.5,110C 125.512,108.197 125.178,107.197 120.5,107C 122.134,106.506 123.801,106.34 125.5,106.5C 125.393,104.097 126.393,102.264 128.5,101C 127.529,99.959 126.529,99.1257 125.5,98.5C 140.462,94.4555 155.128,89.2889 169.5,83C 171.066,82.235 172.399,82.4017 173.5,83.5 Z"/></g>
<g><path style="opacity:0.996" fill="#f6df6b" d="M 112.5,101.5 C 112.389,102.117 112.056,102.617 111.5,103C 107.479,102.952 103.813,103.952 100.5,106C 100.056,107.533 99.723,109.033 99.5,110.5C 98.85,106.979 97.0166,105.979 94,107.5C 93.5,107 93,106.5 92.5,106C 88.1794,105.501 83.8461,105.334 79.5,105.5C 70.9832,105.826 62.6499,105.493 54.5,104.5C 73.9268,105.06 93.2601,104.06 112.5,101.5 Z"/></g>
<g><path style="opacity:1" fill="#bfad3e" d="M 164.5,107.5 C 160.214,108.707 155.88,109.707 151.5,110.5C 153.519,109.067 155.686,107.733 158,106.5C 158.456,105.256 157.956,104.423 156.5,104C 157,103.5 157.5,103 158,102.5C 159.609,105.037 161.775,106.704 164.5,107.5 Z"/></g>
<g><path style="opacity:0.367" fill="#090a0a" d="M 236.5,105.5 C 254.17,105.333 271.836,105.5 289.5,106C 290.802,110.582 291.469,115.415 291.5,120.5C 294.98,133.89 290.313,138.557 277.5,134.5C 276.508,130.217 276.174,125.884 276.5,121.5C 274.833,121.5 273.167,121.5 271.5,121.5C 271.5,134.5 271.5,147.5 271.5,160.5C 274.119,160.232 276.619,160.565 279,161.5C 279.499,165.821 279.666,170.154 279.5,174.5C 269.201,175.594 258.867,175.76 248.5,175C 248,174.5 247.5,174 247,173.5C 246.173,169.459 246.34,165.459 247.5,161.5C 249.747,160.626 252.08,160.292 254.5,160.5C 254.5,147.5 254.5,134.5 254.5,121.5C 252.833,121.5 251.167,121.5 249.5,121.5C 249.826,125.884 249.492,130.217 248.5,134.5C 235.687,138.557 231.02,133.89 234.5,120.5C 234.555,115.252 235.222,110.252 236.5,105.5 Z"/></g>
<g><path style="opacity:0.362" fill="#0c0d0d" d="M 298.5,105.5 C 310.352,105.264 322.186,105.597 334,106.5C 352.008,111.166 356.675,121.832 348,138.5C 345.411,140.211 342.911,142.045 340.5,144C 343.772,148.795 346.439,153.961 348.5,159.5C 351.366,160.208 354.2,160.875 357,161.5C 359.087,165.97 358.921,170.303 356.5,174.5C 350.106,175.954 343.773,175.787 337.5,174C 333.488,165.65 329.654,157.15 326,148.5C 324.89,146.963 323.39,146.297 321.5,146.5C 321.5,151.167 321.5,155.833 321.5,160.5C 323.92,160.292 326.253,160.626 328.5,161.5C 332.022,174.981 326.855,179.648 313,175.5C 307.784,175.476 302.617,175.143 297.5,174.5C 296.339,170.205 296.172,165.871 297,161.5C 299.381,160.565 301.881,160.232 304.5,160.5C 304.5,147.5 304.5,134.5 304.5,121.5C 297.877,122.359 295.21,119.526 296.5,113C 296.631,110.223 297.298,107.723 298.5,105.5 Z M 321.5,121.5 C 325.833,121.5 330.167,121.5 334.5,121.5C 334.777,124.448 334.444,127.281 333.5,130C 329.637,131.354 325.637,131.854 321.5,131.5C 321.5,128.167 321.5,124.833 321.5,121.5 Z"/></g>
<g><path style="opacity:0.361" fill="#0f0f10" d="M 362.5,105.5 C 371.887,105.193 381.22,105.527 390.5,106.5C 392.769,110.437 393.102,114.604 391.5,119C 389.713,121.134 387.38,121.967 384.5,121.5C 384.334,131.839 384.5,142.172 385,152.5C 385.952,160.124 390.118,162.957 397.5,161C 399.14,159.605 400.64,158.105 402,156.5C 402.5,144.838 402.667,133.171 402.5,121.5C 399.495,121.747 396.995,120.747 395,118.5C 394.333,115.167 394.333,111.833 395,108.5C 395.5,107.333 396.333,106.5 397.5,106C 406.881,105.194 416.215,105.36 425.5,106.5C 426.493,111.12 426.827,115.786 426.5,120.5C 424.194,120.993 421.861,121.326 419.5,121.5C 419.667,133.171 419.5,144.838 419,156.5C 415.943,169.96 407.443,176.627 393.5,176.5C 384.679,176.514 377.513,173.18 372,166.5C 371,163.5 370,160.5 369,157.5C 368.5,145.505 368.333,133.505 368.5,121.5C 364.645,122.155 361.812,120.821 360,117.5C 359.333,114.5 359.333,111.5 360,108.5C 360.698,107.309 361.531,106.309 362.5,105.5 Z"/></g>
<g><path style="opacity:0.318" fill="#0c0d0d" d="M 434.5,105.5 C 442.174,105.334 449.841,105.5 457.5,106C 458.624,106.249 459.624,106.749 460.5,107.5C 464.816,119.085 468.982,130.751 473,142.5C 477.544,130.408 482.377,118.408 487.5,106.5C 496.167,105.167 504.833,105.167 513.5,106.5C 514.661,110.795 514.828,115.129 514,119.5C 512.103,121.016 509.936,121.683 507.5,121.5C 507.822,134.08 507.489,146.58 506.5,159C 508.889,160.096 511.389,160.929 514,161.5C 514.828,165.871 514.661,170.205 513.5,174.5C 503.846,175.781 494.18,175.781 484.5,174.5C 484.174,170.116 484.508,165.783 485.5,161.5C 487.988,160.975 490.321,160.142 492.5,159C 491.684,151.579 491.184,144.079 491,136.5C 486.432,149.865 481.265,163.031 475.5,176C 473.559,176.743 471.726,176.576 470,175.5C 464.799,162.228 459.799,148.895 455,135.5C 454.5,143.827 454.334,152.16 454.5,160.5C 456.792,160.244 458.959,160.577 461,161.5C 461.499,165.821 461.666,170.154 461.5,174.5C 452.154,175.779 442.82,175.779 433.5,174.5C 432.339,170.205 432.172,165.871 433,161.5C 435.041,160.577 437.208,160.244 439.5,160.5C 439.5,147.5 439.5,134.5 439.5,121.5C 433.375,121.87 431.041,119.037 432.5,113C 432.631,110.223 433.298,107.723 434.5,105.5 Z"/></g>
<g><path style="opacity:0.394" fill="#0d0e0f" d="M 522.5,105.5 C 534.866,105.248 547.199,105.748 559.5,107C 574.189,112.667 579.022,123.167 574,138.5C 569.991,145.839 563.825,150.006 555.5,151C 551.848,151.499 548.182,151.665 544.5,151.5C 544.5,154.5 544.5,157.5 544.5,160.5C 546.924,160.192 549.257,160.526 551.5,161.5C 552.6,165.442 552.767,169.442 552,173.5C 551.25,174.126 550.416,174.626 549.5,175C 540.5,175.667 531.5,175.667 522.5,175C 521.584,174.626 520.75,174.126 520,173.5C 519.173,169.459 519.34,165.459 520.5,161.5C 523.084,160.607 525.751,160.274 528.5,160.5C 528.5,147.5 528.5,134.5 528.5,121.5C 525.518,121.896 522.851,121.229 520.5,119.5C 519.34,115.541 519.173,111.541 520,107.5C 520.995,106.934 521.828,106.267 522.5,105.5 Z M 544.5,121.5 C 548.182,121.335 551.848,121.501 555.5,122C 559.02,125.857 559.353,130.024 556.5,134.5C 552.68,136.145 548.68,136.811 544.5,136.5C 544.5,131.5 544.5,126.5 544.5,121.5 Z"/></g>
<g><path style="opacity:0.339" fill="#0f0d03" d="M 606.5,105.5 C 612.509,105.334 618.509,105.501 624.5,106C 627.787,106.616 630.621,108.116 633,110.5C 633.199,108.598 634.033,107.098 635.5,106C 638.833,105.333 642.167,105.333 645.5,106C 646.967,107.098 647.801,108.598 648,110.5C 648.667,116.5 648.667,122.5 648,128.5C 647.801,130.402 646.967,131.902 645.5,133C 642.167,133.667 638.833,133.667 635.5,133C 632.52,130.349 629.853,127.349 627.5,124C 615.975,117.678 606.975,120.178 600.5,131.5C 596.066,144.221 599.733,153.721 611.5,160C 615.167,160.667 618.833,160.667 622.5,160C 629.437,156.735 633.77,151.401 635.5,144C 637.167,143.333 638.833,143.333 640.5,144C 643.391,145.792 646.391,147.292 649.5,148.5C 646.96,163.213 638.293,172.38 623.5,176C 600.751,178.57 586.917,168.737 582,146.5C 581.715,138.376 582.715,130.376 585,122.5C 587.741,119.149 590.574,115.815 593.5,112.5C 597.819,109.964 602.152,107.631 606.5,105.5 Z"/></g>
<g><path style="opacity:0.337" fill="#0e0c03" d="M 685.5,105.5 C 712.077,102.654 727.41,114.321 731.5,140.5C 727.89,166.65 712.89,178.483 686.5,176C 664.828,168.096 655.995,152.596 660,129.5C 662.825,123.171 666.658,117.504 671.5,112.5C 676.1,109.867 680.767,107.533 685.5,105.5 Z M 690.5,120.5 C 700.797,119.958 707.963,124.292 712,133.5C 715.265,152.556 707.432,161.389 688.5,160C 686.354,158.398 684.02,157.232 681.5,156.5C 680.037,152.895 678.537,149.229 677,145.5C 675.281,133.593 679.781,125.26 690.5,120.5 Z"/></g>
<g><path style="opacity:0.343" fill="#0d0a02" d="M 740.5,105.5 C 749.221,105.196 757.888,105.529 766.5,106.5C 767.192,107.025 767.692,107.692 768,108.5C 768.667,111.833 768.667,115.167 768,118.5C 766.491,120.919 764.325,121.919 761.5,121.5C 761.5,134.5 761.5,147.5 761.5,160.5C 763.5,160.5 765.5,160.5 767.5,160.5C 771.302,173.699 766.469,178.699 753,175.5C 748.45,175.472 743.95,175.139 739.5,174.5C 738.339,170.205 738.172,165.871 739,161.5C 740.699,160.594 742.533,160.261 744.5,160.5C 744.5,147.5 744.5,134.5 744.5,121.5C 739.079,121.345 737.079,118.512 738.5,113C 738.631,110.223 739.298,107.723 740.5,105.5 Z"/></g>
<g><path style="opacity:0.34" fill="#0c0a02" d="M 775.5,105.5 C 783.943,105.062 792.277,105.562 800.5,107C 807.266,119.794 814.1,132.627 821,145.5C 821.5,137.507 821.666,129.507 821.5,121.5C 812.569,121.688 809.402,117.354 812,108.5C 812.5,107.333 813.333,106.5 814.5,106C 824.214,105.193 833.881,105.359 843.5,106.5C 844.833,111.167 844.833,115.833 843.5,120.5C 841.253,121.374 838.92,121.708 836.5,121.5C 837.135,139.668 836.468,157.668 834.5,175.5C 829.814,176.779 825.147,176.779 820.5,175.5C 812.936,160.706 805.103,146.039 797,131.5C 796.5,141.161 796.334,150.828 796.5,160.5C 799.247,160.187 801.914,160.52 804.5,161.5C 808.175,174.819 803.175,179.486 789.5,175.5C 775.754,179.451 770.588,174.784 774,161.5C 776.381,160.565 778.881,160.232 781.5,160.5C 781.5,147.5 781.5,134.5 781.5,121.5C 775.099,122.713 772.099,120.047 772.5,113.5C 772.599,110.393 773.599,107.726 775.5,105.5 Z"/></g>
<g><path style="opacity:0.984" fill="#343639" d="M 300.5,109.5 C 310.992,108.341 321.659,108.175 332.5,109C 333.416,109.278 334.082,109.778 334.5,110.5C 323.187,109.674 311.854,109.34 300.5,109.5 Z"/></g>
<g><path style="opacity:1" fill="#817124" d="M 620.5,109.5 C 615.438,109.274 610.438,109.608 605.5,110.5C 605.611,109.883 605.944,109.383 606.5,109C 611.352,108.185 616.019,108.352 620.5,109.5 Z"/></g>
<g><path style="opacity:1" fill="#685b1e" d="M 704.5,109.5 C 697.443,109.24 690.443,109.573 683.5,110.5C 683.611,109.883 683.944,109.383 684.5,109C 691.365,106.863 698.032,107.03 704.5,109.5 Z"/></g>
<g><path style="opacity:0.996" fill="#949aa1" d="M 238.5,109.5 C 254.833,109.5 271.167,109.5 287.5,109.5C 287.825,116.687 287.491,123.687 286.5,130.5C 286.5,123.833 286.5,117.167 286.5,110.5C 270.833,110.5 255.167,110.5 239.5,110.5C 239.5,117.167 239.5,123.833 239.5,130.5C 238.509,123.687 238.175,116.687 238.5,109.5 Z"/></g>
<g><path style="opacity:0.996" fill="#7d8288" d="M 381.5,117.5 C 382.918,115.692 384.918,115.025 387.5,115.5C 387.5,113.833 387.5,112.167 387.5,110.5C 379.833,110.5 372.167,110.5 364.5,110.5C 364.5,112.167 364.5,113.833 364.5,115.5C 367.082,115.025 369.082,115.692 370.5,117.5C 364.095,118.594 361.762,115.927 363.5,109.5C 371.833,109.5 380.167,109.5 388.5,109.5C 388.5,112.167 388.5,114.833 388.5,117.5C 386.167,117.5 383.833,117.5 381.5,117.5 Z"/></g>
<g><path style="opacity:0.996" fill="#80868c" d="M 560.5,111.5 C 548.512,110.834 536.512,110.501 524.5,110.5C 524.5,112.167 524.5,113.833 524.5,115.5C 527.082,115.025 529.082,115.692 530.5,117.5C 528.167,117.5 525.833,117.5 523.5,117.5C 523.5,114.833 523.5,112.167 523.5,109.5C 533.506,109.334 543.506,109.5 553.5,110C 556.036,110.186 558.369,110.686 560.5,111.5 Z"/></g>
<g><path style="opacity:0.996" fill="#96842b" d="M 759.5,117.5 C 760.568,116.566 761.901,116.232 763.5,116.5C 763.5,114.5 763.5,112.5 763.5,110.5C 756.5,110.5 749.5,110.5 742.5,110.5C 742.5,112.167 742.5,113.833 742.5,115.5C 744.781,115.077 746.448,115.744 747.5,117.5C 745.533,117.739 743.699,117.406 742,116.5C 741.503,114.19 741.337,111.857 741.5,109.5C 749.167,109.5 756.833,109.5 764.5,109.5C 764.5,112.167 764.5,114.833 764.5,117.5C 762.833,117.5 761.167,117.5 759.5,117.5 Z"/></g>
<g><path style="opacity:0.996" fill="#9d8a2d" d="M 804.5,122.5 C 801.696,118.846 799.03,115.013 796.5,111C 790.175,110.5 783.842,110.334 777.5,110.5C 777.5,112.167 777.5,113.833 777.5,115.5C 779.527,115.338 781.527,115.505 783.5,116C 784.056,116.383 784.389,116.883 784.5,117.5C 781.833,117.5 779.167,117.5 776.5,117.5C 776.5,114.833 776.5,112.167 776.5,109.5C 783.508,109.334 790.508,109.5 797.5,110C 800.49,113.818 802.824,117.984 804.5,122.5 Z"/></g>
<g><path style="opacity:0.98" fill="#505458" d="M 335.5,110.5 C 338.647,110.737 341.647,111.57 344.5,113C 345.252,113.671 345.586,114.504 345.5,115.5C 342.128,113.826 338.795,112.159 335.5,110.5 Z"/></g>
<g><path style="opacity:1" fill="#edcf44" d="M 620.5,109.5 C 622.854,109.838 625.187,110.338 627.5,111C 629.976,113.571 632.976,115.071 636.5,115.5C 637.451,114.081 637.784,112.415 637.5,110.5C 639.5,110.5 641.5,110.5 643.5,110.5C 643.5,116.5 643.5,122.5 643.5,128.5C 640.833,128.5 638.167,128.5 635.5,128.5C 635.367,125.634 634.034,123.634 631.5,122.5C 630.833,122.167 630.167,121.833 629.5,121.5C 628.313,119.025 626.313,118.025 623.5,118.5C 618.483,115.913 613.483,115.913 608.5,118.5C 603.319,119.343 599.986,122.343 598.5,127.5C 596.52,128.848 595.353,130.848 595,133.5C 594.19,137.358 594.357,141.024 595.5,144.5C 595.34,146.199 595.506,147.866 596,149.5C 598.094,151.921 599.76,154.588 601,157.5C 604.467,159.596 607.967,161.596 611.5,163.5C 615.646,164.647 619.98,164.814 624.5,164C 626.324,163.34 627.657,162.173 628.5,160.5C 630.179,160.108 631.846,159.608 633.5,159C 634.547,155.619 636.047,152.453 638,149.5C 638.671,148.748 639.504,148.414 640.5,148.5C 641.78,149.931 643.447,150.598 645.5,150.5C 645.818,153.481 644.818,155.815 642.5,157.5C 640.478,159.531 638.811,161.865 637.5,164.5C 637.5,165.167 637.167,165.5 636.5,165.5C 633.802,165.845 631.802,167.178 630.5,169.5C 622.776,172.379 614.776,173.212 606.5,172C 604.751,171.215 603.084,170.382 601.5,169.5C 600.415,167.413 598.749,166.08 596.5,165.5C 593.599,162.688 590.932,159.688 588.5,156.5C 586.242,146.926 585.909,137.259 587.5,127.5C 588.383,123.641 590.383,120.641 593.5,118.5C 595.858,116.471 598.192,114.471 600.5,112.5C 601.779,111.032 603.446,110.365 605.5,110.5C 610.438,109.608 615.438,109.274 620.5,109.5 Z"/></g>
<g><path style="opacity:1" fill="#ebce44" d="M 704.5,109.5 C 711.947,112.277 717.947,116.944 722.5,123.5C 722.755,125.967 723.755,127.967 725.5,129.5C 725.5,130.833 725.5,132.167 725.5,133.5C 725.5,137.833 725.5,142.167 725.5,146.5C 725.5,148.167 725.5,149.833 725.5,151.5C 723.755,153.033 722.755,155.033 722.5,157.5C 722.5,157.833 722.5,158.167 722.5,158.5C 718.52,162.145 714.52,165.811 710.5,169.5C 705.353,171.297 700.02,172.297 694.5,172.5C 689.27,172.368 684.27,171.368 679.5,169.5C 678.415,167.413 676.749,166.08 674.5,165.5C 670.297,161.97 667.297,157.636 665.5,152.5C 664.167,143.833 664.167,135.167 665.5,126.5C 665.75,124.326 666.75,122.659 668.5,121.5C 672.727,117.903 677.06,114.57 681.5,111.5C 681.842,110.662 682.508,110.328 683.5,110.5C 690.443,109.573 697.443,109.24 704.5,109.5 Z M 690.5,120.5 C 679.781,125.26 675.281,133.593 677,145.5C 678.537,149.229 680.037,152.895 681.5,156.5C 684.02,157.232 686.354,158.398 688.5,160C 707.432,161.389 715.265,152.556 712,133.5C 707.963,124.292 700.797,119.958 690.5,120.5 Z"/></g>
<g><path style="opacity:0.239" fill="#7b742a" d="M 150.5,111.5 C 147.873,112.092 145.206,112.425 142.5,112.5C 145.04,110.587 147.707,110.254 150.5,111.5 Z"/></g>
<g><path style="opacity:1" fill="#e8c33b" d="M 54.5,104.5 C 62.6499,105.493 70.9832,105.826 79.5,105.5C 78.1931,106.802 78.1931,108.135 79.5,109.5C 77.9547,110.452 76.288,110.785 74.5,110.5C 74.5,112.5 74.5,114.5 74.5,116.5C 75.552,116.649 76.552,116.483 77.5,116C 79.2932,113.205 81.4598,110.705 84,108.5C 84.4828,109.448 84.6495,110.448 84.5,111.5C 86.1992,111.34 87.8659,111.506 89.5,112C 88.376,112.249 87.376,112.749 86.5,113.5C 87.8262,114.642 88.8262,115.976 89.5,117.5C 81.8333,117.5 74.1667,117.5 66.5,117.5C 63.2869,117.81 60.2869,117.477 57.5,116.5C 55.7354,115.539 53.7354,115.205 51.5,115.5C 51.9926,113.194 52.3259,110.861 52.5,108.5C 52.6596,106.847 53.3263,105.514 54.5,104.5 Z"/></g>
<g><path style="opacity:1" fill="#a29b41" d="M 138.5,113.5 C 133.769,115.261 128.769,116.261 123.5,116.5C 126.749,114.981 130.082,113.314 133.5,111.5C 134.696,111.846 134.696,112.346 133.5,113C 135.134,113.494 136.801,113.66 138.5,113.5 Z"/></g>
<g><path style="opacity:0.988" fill="#696e73" d="M 238.5,109.5 C 238.175,116.687 238.509,123.687 239.5,130.5C 241.167,130.5 242.833,130.5 244.5,130.5C 244.182,125.968 244.515,121.634 245.5,117.5C 245.5,122.167 245.5,126.833 245.5,131.5C 243.052,132.473 240.385,132.806 237.5,132.5C 237.175,124.648 237.508,116.982 238.5,109.5 Z"/></g>
<g><path style="opacity:1" fill="#c0c9d2" d="M 286.5,130.5 C 284.833,130.5 283.167,130.5 281.5,130.5C 281.5,125.833 281.5,121.167 281.5,116.5C 277.298,116.183 273.298,116.517 269.5,117.5C 269.167,117.5 268.833,117.5 268.5,117.5C 267.504,132.991 267.17,148.658 267.5,164.5C 270.167,164.5 272.833,164.5 275.5,164.5C 275.5,166.5 275.5,168.5 275.5,170.5C 267.5,170.5 259.5,170.5 251.5,170.5C 251.5,168.5 251.5,166.5 251.5,164.5C 254.167,164.5 256.833,164.5 259.5,164.5C 259.83,148.658 259.496,132.991 258.5,117.5C 258.167,117.5 257.833,117.5 257.5,117.5C 253.5,116.167 249.5,116.167 245.5,117.5C 244.515,121.634 244.182,125.968 244.5,130.5C 242.833,130.5 241.167,130.5 239.5,130.5C 239.5,123.833 239.5,117.167 239.5,110.5C 255.167,110.5 270.833,110.5 286.5,110.5C 286.5,117.167 286.5,123.833 286.5,130.5 Z"/></g>
<g><path style="opacity:1" fill="#bcc4cd" d="M 300.5,109.5 C 311.854,109.34 323.187,109.674 334.5,110.5C 334.833,110.5 335.167,110.5 335.5,110.5C 338.795,112.159 342.128,113.826 345.5,115.5C 348.885,121.152 349.385,127.152 347,133.5C 343.977,135.698 341.144,138.031 338.5,140.5C 336.748,140.418 335.748,141.251 335.5,143C 335.736,146.21 337.069,148.71 339.5,150.5C 340.338,150.842 340.672,151.508 340.5,152.5C 341.901,156.416 343.568,160.25 345.5,164C 348.146,164.497 350.813,164.664 353.5,164.5C 353.5,166.5 353.5,168.5 353.5,170.5C 349.154,170.666 344.821,170.499 340.5,170C 339.186,166.535 337.52,163.368 335.5,160.5C 333.86,156.559 331.694,152.892 329,149.5C 328.689,147.444 328.189,145.444 327.5,143.5C 324.355,142.197 321.355,142.197 318.5,143.5C 317.509,150.313 317.175,157.313 317.5,164.5C 320.167,164.5 322.833,164.5 325.5,164.5C 325.5,166.5 325.5,168.5 325.5,170.5C 317.5,170.5 309.5,170.5 301.5,170.5C 301.5,168.5 301.5,166.5 301.5,164.5C 304.167,164.5 306.833,164.5 309.5,164.5C 309.83,148.658 309.496,132.991 308.5,117.5C 305.946,116.612 303.279,116.279 300.5,116.5C 300.5,114.167 300.5,111.833 300.5,109.5 Z M 321.5,121.5 C 321.5,124.833 321.5,128.167 321.5,131.5C 325.637,131.854 329.637,131.354 333.5,130C 334.444,127.281 334.777,124.448 334.5,121.5C 330.167,121.5 325.833,121.5 321.5,121.5 Z"/></g>
<g><path style="opacity:1" fill="#bec7d0" d="M 422.5,109.5 C 423.468,111.607 423.802,113.941 423.5,116.5C 420.763,116.401 418.096,116.735 415.5,117.5C 414.764,131.352 414.097,145.352 413.5,159.5C 412.812,162.057 411.646,164.391 410,166.5C 400.434,173.621 390.267,174.454 379.5,169C 375.887,165.936 373.72,162.102 373,157.5C 373.152,143.796 372.319,130.462 370.5,117.5C 369.082,115.692 367.082,115.025 364.5,115.5C 364.5,113.833 364.5,112.167 364.5,110.5C 372.167,110.5 379.833,110.5 387.5,110.5C 387.5,112.167 387.5,113.833 387.5,115.5C 384.918,115.025 382.918,115.692 381.5,117.5C 380.34,130.66 380.173,143.994 381,157.5C 381.236,159.119 382.069,160.119 383.5,160.5C 392.03,167.9 399.363,166.9 405.5,157.5C 406.268,156.737 406.768,155.737 407,154.5C 407.167,148.333 407.333,142.167 407.5,136C 407.496,129.462 406.83,123.295 405.5,117.5C 403.735,116.539 401.735,116.205 399.5,116.5C 399.5,114.167 399.5,111.833 399.5,109.5C 407.167,109.5 414.833,109.5 422.5,109.5 Z"/></g>
<g><path style="opacity:0.988" fill="#7c8287" d="M 456.5,110.5 C 449.833,110.5 443.167,110.5 436.5,110.5C 436.5,112.167 436.5,113.833 436.5,115.5C 439.082,115.025 441.082,115.692 442.5,117.5C 442.167,117.5 441.833,117.5 441.5,117.5C 439.5,117.5 437.5,117.5 435.5,117.5C 435.5,114.833 435.5,112.167 435.5,109.5C 442.687,109.175 449.687,109.509 456.5,110.5 Z"/></g>
<g><path style="opacity:1" fill="#c0c9d2" d="M 456.5,110.5 C 458.403,113.53 459.737,116.863 460.5,120.5C 462.268,126.719 462.768,133.052 462,139.5C 460.719,134.265 458.552,129.599 455.5,125.5C 455.567,124.041 455.234,122.708 454.5,121.5C 454.5,120.167 454.5,118.833 454.5,117.5C 452.833,117.5 451.167,117.5 449.5,117.5C 449.17,133.009 449.504,148.342 450.5,163.5C 452.265,164.461 454.265,164.795 456.5,164.5C 456.5,166.5 456.5,168.5 456.5,170.5C 449.833,170.5 443.167,170.5 436.5,170.5C 436.5,168.5 436.5,166.5 436.5,164.5C 438.792,164.756 440.959,164.423 443,163.5C 443.828,147.994 443.661,132.661 442.5,117.5C 441.082,115.692 439.082,115.025 436.5,115.5C 436.5,113.833 436.5,112.167 436.5,110.5C 443.167,110.5 449.833,110.5 456.5,110.5 Z"/></g>
<g><path style="opacity:1" fill="#c0c8d1" d="M 503.5,117.5 C 503.5,133.167 503.5,148.833 503.5,164.5C 505.833,164.5 508.167,164.5 510.5,164.5C 510.5,166.5 510.5,168.5 510.5,170.5C 503.167,170.5 495.833,170.5 488.5,170.5C 488.5,168.5 488.5,166.5 488.5,164.5C 491.059,164.802 493.393,164.468 495.5,163.5C 496.496,148.342 496.83,133.009 496.5,117.5C 495.209,117.263 494.209,117.596 493.5,118.5C 493.167,119.167 492.833,119.833 492.5,120.5C 491.058,121.82 490.392,123.486 490.5,125.5C 489.223,124.306 488.556,122.64 488.5,120.5C 488.417,117.46 489.084,114.627 490.5,112C 496.825,111.5 503.158,111.334 509.5,111.5C 509.5,112.833 509.5,114.167 509.5,115.5C 506.99,115.054 504.99,115.72 503.5,117.5 Z"/></g>
<g><path style="opacity:1" fill="#bcc4cd" d="M 560.5,111.5 C 565.689,112.352 569.022,115.352 570.5,120.5C 570.5,125.167 570.5,129.833 570.5,134.5C 568.698,141.25 564.364,145.416 557.5,147C 551.843,147.499 546.176,147.666 540.5,147.5C 540.5,153.167 540.5,158.833 540.5,164.5C 542.833,164.5 545.167,164.5 547.5,164.5C 547.5,166.5 547.5,168.5 547.5,170.5C 539.833,170.5 532.167,170.5 524.5,170.5C 524.5,168.5 524.5,166.5 524.5,164.5C 527.167,164.5 529.833,164.5 532.5,164.5C 532.83,148.658 532.496,132.991 531.5,117.5C 531.167,117.5 530.833,117.5 530.5,117.5C 529.082,115.692 527.082,115.025 524.5,115.5C 524.5,113.833 524.5,112.167 524.5,110.5C 536.512,110.501 548.512,110.834 560.5,111.5 Z M 544.5,121.5 C 544.5,126.5 544.5,131.5 544.5,136.5C 548.68,136.811 552.68,136.145 556.5,134.5C 559.353,130.024 559.02,125.857 555.5,122C 551.848,121.501 548.182,121.335 544.5,121.5 Z"/></g>
<g><path style="opacity:1" fill="#867526" d="M 635.5,128.5 C 638.167,128.5 640.833,128.5 643.5,128.5C 643.5,122.5 643.5,116.5 643.5,110.5C 641.5,110.5 639.5,110.5 637.5,110.5C 637.784,112.415 637.451,114.081 636.5,115.5C 636.5,113.5 636.5,111.5 636.5,109.5C 639.167,109.5 641.833,109.5 644.5,109.5C 644.5,116.167 644.5,122.833 644.5,129.5C 641.287,129.81 638.287,129.477 635.5,128.5 Z"/></g>
<g><path style="opacity:1" fill="#f8d947" d="M 759.5,117.5 C 758.833,117.5 758.167,117.5 757.5,117.5C 756.834,125.159 756.5,132.993 756.5,141C 756.502,149.196 757.169,157.03 758.5,164.5C 760.167,164.5 761.833,164.5 763.5,164.5C 763.5,166.5 763.5,168.5 763.5,170.5C 756.5,170.5 749.5,170.5 742.5,170.5C 742.5,168.5 742.5,166.5 742.5,164.5C 744.833,164.5 747.167,164.5 749.5,164.5C 749.83,148.658 749.496,132.991 748.5,117.5C 748.167,117.5 747.833,117.5 747.5,117.5C 746.448,115.744 744.781,115.077 742.5,115.5C 742.5,113.833 742.5,112.167 742.5,110.5C 749.5,110.5 756.5,110.5 763.5,110.5C 763.5,112.5 763.5,114.5 763.5,116.5C 761.901,116.232 760.568,116.566 759.5,117.5 Z"/></g>
<g><path style="opacity:1" fill="#f0d245" d="M 840.5,109.5 C 840.5,111.833 840.5,114.167 840.5,116.5C 837.615,116.194 834.948,116.527 832.5,117.5C 831.503,135.326 831.17,153.326 831.5,171.5C 828.5,171.5 825.5,171.5 822.5,171.5C 821.201,169.588 820.201,167.588 819.5,165.5C 818.564,162.329 816.897,159.662 814.5,157.5C 813.463,156.07 812.796,154.403 812.5,152.5C 811.451,147.398 809.118,143.065 805.5,139.5C 805.672,138.508 805.338,137.842 804.5,137.5C 803.532,134.9 802.199,132.566 800.5,130.5C 799.216,126.986 797.55,123.653 795.5,120.5C 794.791,119.596 793.791,119.263 792.5,119.5C 792.5,134.5 792.5,149.5 792.5,164.5C 795.167,164.5 797.833,164.5 800.5,164.5C 800.5,166.5 800.5,168.5 800.5,170.5C 792.833,170.5 785.167,170.5 777.5,170.5C 777.5,168.5 777.5,166.5 777.5,164.5C 779.833,164.5 782.167,164.5 784.5,164.5C 785.831,157.03 786.498,149.196 786.5,141C 786.5,132.993 786.166,125.159 785.5,117.5C 785.167,117.5 784.833,117.5 784.5,117.5C 784.389,116.883 784.056,116.383 783.5,116C 781.527,115.505 779.527,115.338 777.5,115.5C 777.5,113.833 777.5,112.167 777.5,110.5C 783.842,110.334 790.175,110.5 796.5,111C 799.03,115.013 801.696,118.846 804.5,122.5C 805.338,122.842 805.672,123.508 805.5,124.5C 806.367,128.329 808.033,131.663 810.5,134.5C 810.833,134.5 811.167,134.5 811.5,134.5C 811.343,135.873 811.51,137.207 812,138.5C 812.886,141.093 814.386,143.093 816.5,144.5C 817.492,146.456 818.492,148.456 819.5,150.5C 819.45,154.795 821.45,157.128 825.5,157.5C 825.829,143.99 825.496,130.656 824.5,117.5C 824.167,117.5 823.833,117.5 823.5,117.5C 821.444,116.784 819.277,116.117 817,115.5C 816.505,113.527 816.338,111.527 816.5,109.5C 824.5,109.5 832.5,109.5 840.5,109.5 Z"/></g>
<g><path style="opacity:0.643" fill="#4f4318" d="M 52.5,108.5 C 52.3259,110.861 51.9926,113.194 51.5,115.5C 53.7354,115.205 55.7354,115.539 57.5,116.5C 49.091,117.668 47.4243,115.001 52.5,108.5 Z"/></g>
<g><path style="opacity:1" fill="#f2d84a" d="M 125.5,98.5 C 126.529,99.1257 127.529,99.959 128.5,101C 126.393,102.264 125.393,104.097 125.5,106.5C 123.801,106.34 122.134,106.506 120.5,107C 125.178,107.197 125.512,108.197 121.5,110C 121.957,110.414 122.291,110.914 122.5,111.5C 120.075,113.145 117.408,114.311 114.5,115C 116.937,116.375 119.603,116.875 122.5,116.5C 120.052,117.473 117.385,117.806 114.5,117.5C 106.167,117.5 97.8333,117.5 89.5,117.5C 88.8262,115.976 87.8262,114.642 86.5,113.5C 87.376,112.749 88.376,112.249 89.5,112C 87.8659,111.506 86.1992,111.34 84.5,111.5C 84.6495,110.448 84.4828,109.448 84,108.5C 81.4598,110.705 79.2932,113.205 77.5,116C 76.552,116.483 75.552,116.649 74.5,116.5C 74.5,114.5 74.5,112.5 74.5,110.5C 76.288,110.785 77.9547,110.452 79.5,109.5C 78.1931,108.135 78.1931,106.802 79.5,105.5C 83.8461,105.334 88.1794,105.501 92.5,106C 93,106.5 93.5,107 94,107.5C 97.0166,105.979 98.85,106.979 99.5,110.5C 99.723,109.033 100.056,107.533 100.5,106C 103.813,103.952 107.479,102.952 111.5,103C 112.056,102.617 112.389,102.117 112.5,101.5C 116.547,99.7402 120.88,98.7402 125.5,98.5 Z"/></g>
<g><path style="opacity:1" fill="#7d6d23" d="M 681.5,111.5 C 677.06,114.57 672.727,117.903 668.5,121.5C 668.369,120.761 668.536,120.094 669,119.5C 672.592,115.704 676.759,113.038 681.5,111.5 Z"/></g>
<g><path style="opacity:1" fill="#a48f2f" d="M 698.5,116.5 C 692.646,116.012 687.313,117.345 682.5,120.5C 686.935,115.779 692.268,114.446 698.5,116.5 Z"/></g>
<g><path style="opacity:1" fill="#474b4e" d="M 422.5,109.5 C 414.833,109.5 407.167,109.5 399.5,109.5C 399.5,111.833 399.5,114.167 399.5,116.5C 401.735,116.205 403.735,116.539 405.5,117.5C 403.167,117.5 400.833,117.5 398.5,117.5C 398.5,114.5 398.5,111.5 398.5,108.5C 406.684,108.174 414.684,108.508 422.5,109.5 Z"/></g>
<g><path style="opacity:1" fill="#584e19" d="M 840.5,109.5 C 832.5,109.5 824.5,109.5 816.5,109.5C 816.338,111.527 816.505,113.527 817,115.5C 819.277,116.117 821.444,116.784 823.5,117.5C 820.833,117.5 818.167,117.5 815.5,117.5C 815.5,114.5 815.5,111.5 815.5,108.5C 824.017,108.174 832.35,108.507 840.5,109.5 Z"/></g>
<g><path style="opacity:1" fill="#6a5d1e" d="M 840.5,109.5 C 841.725,110.152 842.392,111.319 842.5,113C 842.333,114.167 842.167,115.333 842,116.5C 838.943,117.451 835.777,117.784 832.5,117.5C 834.948,116.527 837.615,116.194 840.5,116.5C 840.5,114.167 840.5,111.833 840.5,109.5 Z"/></g>
<g><path style="opacity:0.427" fill="#5e511c" d="M 66.5,117.5 C 74.1667,117.5 81.8333,117.5 89.5,117.5C 97.8333,117.5 106.167,117.5 114.5,117.5C 98.5818,119.404 82.5818,119.404 66.5,117.5 Z"/></g>
<g><path style="opacity:1" fill="#857526" d="M 600.5,112.5 C 598.192,114.471 595.858,116.471 593.5,118.5C 594.578,115.092 596.911,113.092 600.5,112.5 Z"/></g>
<g><path style="opacity:1" fill="#7d8288" d="M 258.5,117.5 C 259.496,132.991 259.83,148.658 259.5,164.5C 256.833,164.5 254.167,164.5 251.5,164.5C 251.5,166.5 251.5,168.5 251.5,170.5C 259.5,170.5 267.5,170.5 275.5,170.5C 267.35,171.493 259.017,171.826 250.5,171.5C 250.5,168.833 250.5,166.167 250.5,163.5C 253.167,163.5 255.833,163.5 258.5,163.5C 258.5,148.167 258.5,132.833 258.5,117.5 Z"/></g>
<g><path style="opacity:0.362" fill="#0a0b0b" d="M 319.5,117.5 C 324.179,117.334 328.845,117.501 333.5,118C 338.153,120.942 339.653,125.109 338,130.5C 336.568,132.439 334.735,133.772 332.5,134.5C 327.901,134.8 323.401,134.467 319,133.5C 318.219,128.083 318.385,122.75 319.5,117.5 Z M 321.5,121.5 C 321.5,124.833 321.5,128.167 321.5,131.5C 325.637,131.854 329.637,131.354 333.5,130C 334.444,127.281 334.777,124.448 334.5,121.5C 330.167,121.5 325.833,121.5 321.5,121.5 Z"/></g>
<g><path style="opacity:1" fill="#6e7377" d="M 405.5,117.5 C 406.83,123.295 407.496,129.462 407.5,136C 407.333,142.167 407.167,148.333 407,154.5C 406.768,155.737 406.268,156.737 405.5,157.5C 405.5,144.167 405.5,130.833 405.5,117.5 Z"/></g>
<g><path style="opacity:1" fill="#90969e" d="M 415.5,117.5 C 415.667,130.837 415.5,144.171 415,157.5C 414.722,158.416 414.222,159.082 413.5,159.5C 414.097,145.352 414.764,131.352 415.5,117.5 Z"/></g>
<g><path style="opacity:1" fill="#959ca2" d="M 454.5,121.5 C 453.833,121.5 453.5,121.167 453.5,120.5C 453.179,118.952 452.179,118.285 450.5,118.5C 450.5,133.5 450.5,148.5 450.5,163.5C 449.504,148.342 449.17,133.009 449.5,117.5C 451.167,117.5 452.833,117.5 454.5,117.5C 454.5,118.833 454.5,120.167 454.5,121.5 Z"/></g>
<g><path style="opacity:1" fill="#72787d" d="M 531.5,117.5 C 532.496,132.991 532.83,148.658 532.5,164.5C 529.833,164.5 527.167,164.5 524.5,164.5C 524.5,166.5 524.5,168.5 524.5,170.5C 532.167,170.5 539.833,170.5 547.5,170.5C 547.5,168.5 547.5,166.5 547.5,164.5C 548.468,166.607 548.802,168.941 548.5,171.5C 540.167,171.5 531.833,171.5 523.5,171.5C 523.5,168.833 523.5,166.167 523.5,163.5C 526.167,163.5 528.833,163.5 531.5,163.5C 531.5,148.167 531.5,132.833 531.5,117.5 Z"/></g>
<g><path style="opacity:0.378" fill="#060607" d="M 541.5,117.5 C 548.928,116.212 555.428,117.878 561,122.5C 562.852,129.09 561.352,134.59 556.5,139C 555.552,139.483 554.552,139.649 553.5,139.5C 549.5,139.5 545.5,139.5 541.5,139.5C 541.5,132.167 541.5,124.833 541.5,117.5 Z M 544.5,121.5 C 544.5,126.5 544.5,131.5 544.5,136.5C 548.68,136.811 552.68,136.145 556.5,134.5C 559.353,130.024 559.02,125.857 555.5,122C 551.848,121.501 548.182,121.335 544.5,121.5 Z"/></g>
<g><path style="opacity:1" fill="#796a23" d="M 623.5,118.5 C 626.313,118.025 628.313,119.025 629.5,121.5C 627.456,120.492 625.456,119.492 623.5,118.5 Z"/></g>
<g><path style="opacity:0.346" fill="#100d04" d="M 698.5,116.5 C 699.209,117.404 700.209,117.737 701.5,117.5C 704.12,119.162 706.787,120.828 709.5,122.5C 711.745,125.32 713.745,128.32 715.5,131.5C 715.5,136.833 715.5,142.167 715.5,147.5C 713.235,155.339 708.235,160.673 700.5,163.5C 695.438,163.726 690.438,163.392 685.5,162.5C 681.183,160.347 678.016,157.014 676,152.5C 674.145,149.424 673.312,146.091 673.5,142.5C 674.162,138.534 674.495,134.534 674.5,130.5C 676.64,128.3 678.14,125.633 679,122.5C 679.816,121.177 680.983,120.511 682.5,120.5C 687.313,117.345 692.646,116.012 698.5,116.5 Z M 690.5,120.5 C 679.781,125.26 675.281,133.593 677,145.5C 678.537,149.229 680.037,152.895 681.5,156.5C 684.02,157.232 686.354,158.398 688.5,160C 707.432,161.389 715.265,152.556 712,133.5C 707.963,124.292 700.797,119.958 690.5,120.5 Z"/></g>
<g><path style="opacity:1" fill="#c5ac38" d="M 757.5,117.5 C 757.17,133.009 757.504,148.342 758.5,163.5C 758.5,163.833 758.5,164.167 758.5,164.5C 757.169,157.03 756.502,149.196 756.5,141C 756.5,132.993 756.834,125.159 757.5,117.5 Z"/></g>
<g><path style="opacity:0.996" fill="#5f541b" d="M 757.5,117.5 C 758.167,117.5 758.833,117.5 759.5,117.5C 759.5,117.833 759.5,118.167 759.5,118.5C 758.504,133.324 758.171,148.324 758.5,163.5C 757.504,148.342 757.17,133.009 757.5,117.5 Z"/></g>
<g><path style="opacity:1" fill="#5b501a" d="M 824.5,117.5 C 825.496,130.656 825.829,143.99 825.5,157.5C 821.45,157.128 819.45,154.795 819.5,150.5C 821.309,152.099 822.642,154.099 823.5,156.5C 824.499,143.517 824.832,130.517 824.5,117.5 Z"/></g>
<g><path style="opacity:1" fill="#917f29" d="M 832.5,117.5 C 832.5,135.833 832.5,154.167 832.5,172.5C 828.958,172.813 825.625,172.479 822.5,171.5C 825.5,171.5 828.5,171.5 831.5,171.5C 831.17,153.326 831.503,135.326 832.5,117.5 Z"/></g>
<g><path style="opacity:1" fill="#474b4e" d="M 503.5,117.5 C 503.833,117.5 504.167,117.5 504.5,117.5C 504.5,132.833 504.5,148.167 504.5,163.5C 506.735,163.205 508.735,163.539 510.5,164.5C 508.167,164.5 505.833,164.5 503.5,164.5C 503.5,148.833 503.5,133.167 503.5,117.5 Z"/></g>
<g><path style="opacity:1" fill="#907e29" d="M 701.5,117.5 C 705.13,117.701 707.797,119.368 709.5,122.5C 706.787,120.828 704.12,119.162 701.5,117.5 Z"/></g>
<g><path style="opacity:1" fill="#9f8c2d" d="M 748.5,117.5 C 749.496,132.991 749.83,148.658 749.5,164.5C 747.167,164.5 744.833,164.5 742.5,164.5C 744.265,163.539 746.265,163.205 748.5,163.5C 748.5,148.167 748.5,132.833 748.5,117.5 Z"/></g>
<g><path style="opacity:0.844" fill="#27210b" d="M 759.5,118.5 C 759.5,133.5 759.5,148.5 759.5,163.5C 761.099,163.232 762.432,163.566 763.5,164.5C 761.833,164.5 760.167,164.5 758.5,164.5C 758.5,164.167 758.5,163.833 758.5,163.5C 758.171,148.324 758.504,133.324 759.5,118.5 Z"/></g>
<g><path style="opacity:0.098" fill="#fdeebc" d="M 49.5,119.5 C 55.0247,120.141 60.3581,121.141 65.5,122.5C 59.7839,122.773 54.4506,121.773 49.5,119.5 Z"/></g>
<g><path style="opacity:1" fill="#fcf7a8" d="M 192.5,110.5 C 194.284,111.574 195.451,113.24 196,115.5C 196.679,118.55 197.512,121.55 198.5,124.5C 198.376,125.107 198.043,125.44 197.5,125.5C 196.521,123.261 194.854,121.594 192.5,120.5C 193.441,120.511 194.108,120.011 194.5,119C 193.767,116.165 193.1,113.332 192.5,110.5 Z"/></g>
<g><path style="opacity:0.921" fill="#393c3e" d="M 257.5,117.5 C 253.833,117.5 250.167,117.5 246.5,117.5C 246.819,122.363 246.486,127.03 245.5,131.5C 245.5,126.833 245.5,122.167 245.5,117.5C 249.5,116.167 253.5,116.167 257.5,117.5 Z"/></g>
<g><path style="opacity:0.992" fill="#313436" d="M 541.5,117.5 C 541.5,124.833 541.5,132.167 541.5,139.5C 545.5,139.5 549.5,139.5 553.5,139.5C 549.366,140.485 545.032,140.818 540.5,140.5C 540.175,132.648 540.508,124.982 541.5,117.5 Z"/></g>
<g><path style="opacity:1" fill="#2e3032" d="M 268.5,117.5 C 268.5,132.833 268.5,148.167 268.5,163.5C 271.5,163.5 274.5,163.5 277.5,163.5C 278.01,166.388 277.344,168.721 275.5,170.5C 275.5,168.5 275.5,166.5 275.5,164.5C 272.833,164.5 270.167,164.5 267.5,164.5C 267.17,148.658 267.504,132.991 268.5,117.5 Z"/></g>
<g><path style="opacity:1" fill="#6e7479" d="M 287.5,109.5 C 288.655,116.655 288.822,123.988 288,131.5C 285.619,132.435 283.119,132.768 280.5,132.5C 280.5,127.5 280.5,122.5 280.5,117.5C 276.833,117.5 273.167,117.5 269.5,117.5C 273.298,116.517 277.298,116.183 281.5,116.5C 281.5,121.167 281.5,125.833 281.5,130.5C 283.167,130.5 284.833,130.5 286.5,130.5C 287.491,123.687 287.825,116.687 287.5,109.5 Z"/></g>
<g><path style="opacity:1" fill="#787e84" d="M 308.5,117.5 C 309.496,132.991 309.83,148.658 309.5,164.5C 306.833,164.5 304.167,164.5 301.5,164.5C 301.5,166.5 301.5,168.5 301.5,170.5C 309.5,170.5 317.5,170.5 325.5,170.5C 317.35,171.493 309.017,171.826 300.5,171.5C 300.5,168.833 300.5,166.167 300.5,163.5C 303.167,163.5 305.833,163.5 308.5,163.5C 308.5,148.167 308.5,132.833 308.5,117.5 Z"/></g>
<g><path style="opacity:1" fill="#606569" d="M 381.5,117.5 C 381.333,130.504 381.5,143.504 382,156.5C 382.791,157.745 383.291,159.078 383.5,160.5C 382.069,160.119 381.236,159.119 381,157.5C 380.173,143.994 380.34,130.66 381.5,117.5 Z"/></g>
<g><path style="opacity:0.654" fill="#313336" d="M 441.5,117.5 C 441.833,117.5 442.167,117.5 442.5,117.5C 443.661,132.661 443.828,147.994 443,163.5C 440.959,164.423 438.792,164.756 436.5,164.5C 436.167,164.5 435.833,164.5 435.5,164.5C 437.265,163.539 439.265,163.205 441.5,163.5C 441.5,148.167 441.5,132.833 441.5,117.5 Z"/></g>
<g><path style="opacity:1" fill="#424548" d="M 453.5,120.5 C 452.883,120.389 452.383,120.056 452,119.5C 451.5,134.163 451.333,148.83 451.5,163.5C 453.735,163.205 455.735,163.539 457.5,164.5C 457.167,164.5 456.833,164.5 456.5,164.5C 454.265,164.795 452.265,164.461 450.5,163.5C 450.5,148.5 450.5,133.5 450.5,118.5C 452.179,118.285 453.179,118.952 453.5,120.5 Z"/></g>
<g><path style="opacity:1" fill="#383a3c" d="M 493.5,118.5 C 495.484,133.129 496.15,148.129 495.5,163.5C 493.393,164.468 491.059,164.802 488.5,164.5C 490.265,163.539 492.265,163.205 494.5,163.5C 495.15,148.794 494.483,134.461 492.5,120.5C 492.833,119.833 493.167,119.167 493.5,118.5 Z"/></g>
<g><path style="opacity:0.992" fill="#7b6c23" d="M 608.5,118.5 C 604.568,120.762 601.235,123.762 598.5,127.5C 599.986,122.343 603.319,119.343 608.5,118.5 Z"/></g>
<g><path style="opacity:1" fill="#baa335" d="M 785.5,117.5 C 786.166,125.159 786.5,132.993 786.5,141C 786.498,149.196 785.831,157.03 784.5,164.5C 784.5,164.167 784.5,163.833 784.5,163.5C 785.496,148.342 785.83,133.009 785.5,117.5 Z"/></g>
<g><path style="opacity:0.157" fill="#fcecba" d="M 68.5,122.5 C 74.8217,123.014 81.155,123.347 87.5,123.5C 81.1093,124.774 74.776,124.44 68.5,122.5 Z"/></g>
<g><path style="opacity:1" fill="#f8f473" d="M 192.5,110.5 C 193.1,113.332 193.767,116.165 194.5,119C 194.108,120.011 193.441,120.511 192.5,120.5C 194.854,121.594 196.521,123.261 197.5,125.5C 195.574,127.293 193.241,128.293 190.5,128.5C 187.848,128.41 185.515,129.076 183.5,130.5C 182.432,131.434 181.099,131.768 179.5,131.5C 176.505,131.294 173.838,131.96 171.5,133.5C 169.621,134.341 167.621,134.675 165.5,134.5C 160.493,134.751 155.493,135.084 150.5,135.5C 149.955,133.958 148.289,133.125 145.5,133C 145.833,132.667 146.167,132.333 146.5,132C 144.744,131.798 143.078,131.298 141.5,130.5C 141.667,130.167 141.833,129.833 142,129.5C 144.794,130.493 147.627,130.993 150.5,131C 150.002,129.842 149.169,129.009 148,128.5C 143.923,130.035 143.423,129.201 146.5,126C 142.769,125.803 140.602,127.637 140,131.5C 139.25,130.874 138.416,130.374 137.5,130C 137.833,129.667 138.167,129.333 138.5,129C 137.451,128.508 136.451,128.674 135.5,129.5C 134.304,129.154 134.304,128.654 135.5,128C 134.5,127.667 133.5,127.333 132.5,127C 129.064,126.982 125.731,126.815 122.5,126.5C 122.5,126.167 122.5,125.833 122.5,125.5C 146.397,123.025 169.73,118.025 192.5,110.5 Z"/></g>
<g><path style="opacity:1" fill="#8f959c" d="M 493.5,118.5 C 494.209,117.596 495.209,117.263 496.5,117.5C 496.83,133.009 496.496,148.342 495.5,163.5C 496.15,148.129 495.484,133.129 493.5,118.5 Z"/></g>
<g><path style="opacity:1" fill="#483f15" d="M 795.5,120.5 C 793.517,134.461 792.85,148.794 793.5,163.5C 796.385,163.194 799.052,163.527 801.5,164.5C 801.167,164.5 800.833,164.5 800.5,164.5C 797.833,164.5 795.167,164.5 792.5,164.5C 792.5,149.5 792.5,134.5 792.5,119.5C 793.791,119.263 794.791,119.596 795.5,120.5 Z"/></g>
<g><path style="opacity:0.125" fill="#faefab" d="M 88.5,124.5 C 99.8169,125.259 111.15,125.593 122.5,125.5C 122.5,125.833 122.5,126.167 122.5,126.5C 116.167,126.5 109.833,126.5 103.5,126.5C 98.2895,126.392 93.2895,125.725 88.5,124.5 Z"/></g>
<g><path style="opacity:0.047" fill="#4f3e14" d="M 48.5,120.5 C 48.552,122.903 48.2186,125.236 47.5,127.5C 46.3549,125.047 46.6883,122.713 48.5,120.5 Z"/></g>
<g><path style="opacity:0.945" fill="#706220" d="M 631.5,122.5 C 634.034,123.634 635.367,125.634 635.5,128.5C 633.879,126.736 632.546,124.736 631.5,122.5 Z"/></g>
<g><path style="opacity:0.675" fill="#4a3e16" d="M 47.5,128.5 C 47.5,128.167 47.5,127.833 47.5,127.5C 50.9164,127.528 53.9164,128.528 56.5,130.5C 54.4352,130.483 52.4352,130.15 50.5,129.5C 50.5,128.833 50.1667,128.5 49.5,128.5C 48.8333,128.5 48.1667,128.5 47.5,128.5 Z"/></g>
<g><path style="opacity:1" fill="#62666b" d="M 570.5,120.5 C 571.117,120.611 571.617,120.944 572,121.5C 572.167,123.667 572.333,125.833 572.5,128C 572.467,130.61 571.8,132.777 570.5,134.5C 570.5,129.833 570.5,125.167 570.5,120.5 Z"/></g>
<g><path style="opacity:0.227" fill="#777536" d="M 190.5,128.5 C 188.485,129.924 186.152,130.59 183.5,130.5C 185.515,129.076 187.848,128.41 190.5,128.5 Z"/></g>
<g><path style="opacity:0.984" fill="#5c501a" d="M 722.5,123.5 C 724.245,125.033 725.245,127.033 725.5,129.5C 723.755,127.967 722.755,125.967 722.5,123.5 Z"/></g>
<g><path style="opacity:0.996" fill="#857526" d="M 805.5,124.5 C 807.967,127.337 809.633,130.671 810.5,134.5C 808.033,131.663 806.367,128.329 805.5,124.5 Z"/></g>
<g><path style="opacity:1" fill="#f0d14a" d="M 49.5,119.5 C 54.4506,121.773 59.7839,122.773 65.5,122.5C 66.5,122.5 67.5,122.5 68.5,122.5C 74.776,124.44 81.1093,124.774 87.5,123.5C 88.1667,123.5 88.5,123.833 88.5,124.5C 93.2895,125.725 98.2895,126.392 103.5,126.5C 103.047,127.458 102.381,128.292 101.5,129C 103.92,129.687 106.087,129.187 108,127.5C 109.113,128.76 109.28,129.927 108.5,131C 110.878,131.974 110.544,132.641 107.5,133C 110.036,133.339 112.536,133.839 115,134.5C 116.581,132.153 117.914,132.153 119,134.5C 120.388,133.446 121.888,133.28 123.5,134C 121.485,135.555 121.152,137.389 122.5,139.5C 123.719,138.737 124.719,137.737 125.5,136.5C 126.452,137.533 126.452,138.7 125.5,140C 125.905,140.945 126.572,141.612 127.5,142C 124.5,142.333 121.5,142.667 118.5,143C 119.219,145.556 120.886,146.723 123.5,146.5C 123.351,145.448 123.517,144.448 124,143.5C 125.398,144.051 126.732,144.384 128,144.5C 128.635,145.966 129.469,147.3 130.5,148.5C 128.833,149.5 127.5,150.833 126.5,152.5C 128.847,153.151 130.514,154.484 131.5,156.5C 131.139,164.999 129.806,173.333 127.5,181.5C 122.57,181.803 117.737,181.469 113,180.5C 112.539,175.816 112.705,171.149 113.5,166.5C 113.5,156.833 113.5,147.167 113.5,137.5C 107.833,137.5 102.167,137.5 96.5,137.5C 90.4574,135.492 84.1241,134.492 77.5,134.5C 72.2266,133.182 66.8933,132.182 61.5,131.5C 61.1667,131.5 60.8333,131.5 60.5,131.5C 59.5,131.5 58.5,131.5 57.5,131.5C 57.5,130.833 57.1667,130.5 56.5,130.5C 53.9164,128.528 50.9164,127.528 47.5,127.5C 48.2186,125.236 48.552,122.903 48.5,120.5C 48.5,119.833 48.8333,119.5 49.5,119.5 Z"/></g>
<g><path style="opacity:0.999" fill="#8d9296" d="M 195.5,129.5 C 196.167,129.5 196.833,129.5 197.5,129.5C 198.222,129.918 198.722,130.584 199,131.5C 199.652,142.282 198.819,152.949 196.5,163.5C 189.885,185.115 176.218,200.449 155.5,209.5C 155.338,207.473 155.505,205.473 156,203.5C 156.832,208.45 157.666,208.116 158.5,202.5C 158.392,201.558 158.059,200.725 157.5,200C 160.299,197.742 161.632,195.075 161.5,192C 165.276,185.143 168.61,177.976 171.5,170.5C 173.173,172.086 175.173,172.753 177.5,172.5C 177.966,170.799 177.966,169.299 177.5,168C 180.572,163.553 183.572,159.053 186.5,154.5C 185.758,152.65 184.758,151.984 183.5,152.5C 184.764,149.875 185.931,147.208 187,144.5C 187.333,144.833 187.667,145.167 188,145.5C 188.71,144.027 189.876,143.36 191.5,143.5C 191.672,141.508 191.005,139.842 189.5,138.5C 190.274,137.289 191.107,137.289 192,138.5C 192.119,135.005 193.285,132.005 195.5,129.5 Z"/></g>
<g><path style="opacity:0.29" fill="#393212" d="M 61.5,132.5 C 61.5,132.167 61.5,131.833 61.5,131.5C 66.8933,132.182 72.2266,133.182 77.5,134.5C 77.5,134.833 77.5,135.167 77.5,135.5C 73.5,134.833 69.5,134.167 65.5,133.5C 65.5,132.833 65.1667,132.5 64.5,132.5C 63.5,132.5 62.5,132.5 61.5,132.5 Z"/></g>
<g><path style="opacity:0.078" fill="#6b6b35" d="M 179.5,131.5 C 177.095,132.768 174.428,133.435 171.5,133.5C 173.838,131.96 176.505,131.294 179.5,131.5 Z"/></g>
<g><path style="opacity:0.996" fill="#4c5054" d="M 319.5,117.5 C 318.385,122.75 318.219,128.083 319,133.5C 323.401,134.467 327.901,134.8 332.5,134.5C 327.766,135.824 322.933,135.824 318,134.5C 317.833,131.667 317.667,128.833 317.5,126C 317.519,122.748 318.186,119.915 319.5,117.5 Z"/></g>
<g><path style="opacity:0.941" fill="#584d1a" d="M 800.5,130.5 C 802.199,132.566 803.532,134.9 804.5,137.5C 802.058,135.879 800.725,133.546 800.5,130.5 Z"/></g>
<g><path style="opacity:0.561" fill="#796825" d="M 77.5,135.5 C 77.5,135.167 77.5,134.833 77.5,134.5C 84.1241,134.492 90.4574,135.492 96.5,137.5C 90.0885,137.407 83.7551,136.74 77.5,135.5 Z"/></g>
<g><path style="opacity:1" fill="#f6e760" d="M 150.5,135.5 C 150.5,136.167 150.5,136.833 150.5,137.5C 150.167,137.5 149.833,137.5 149.5,137.5C 144.167,136.167 138.833,136.167 133.5,137.5C 132.833,143.833 132.167,150.167 131.5,156.5C 130.514,154.484 128.847,153.151 126.5,152.5C 127.5,150.833 128.833,149.5 130.5,148.5C 129.469,147.3 128.635,145.966 128,144.5C 126.732,144.384 125.398,144.051 124,143.5C 123.517,144.448 123.351,145.448 123.5,146.5C 120.886,146.723 119.219,145.556 118.5,143C 121.5,142.667 124.5,142.333 127.5,142C 126.572,141.612 125.905,140.945 125.5,140C 126.452,138.7 126.452,137.533 125.5,136.5C 124.719,137.737 123.719,138.737 122.5,139.5C 121.152,137.389 121.485,135.555 123.5,134C 121.888,133.28 120.388,133.446 119,134.5C 117.914,132.153 116.581,132.153 115,134.5C 112.536,133.839 110.036,133.339 107.5,133C 110.544,132.641 110.878,131.974 108.5,131C 109.28,129.927 109.113,128.76 108,127.5C 106.087,129.187 103.92,129.687 101.5,129C 102.381,128.292 103.047,127.458 103.5,126.5C 109.833,126.5 116.167,126.5 122.5,126.5C 125.731,126.815 129.064,126.982 132.5,127C 133.5,127.333 134.5,127.667 135.5,128C 134.304,128.654 134.304,129.154 135.5,129.5C 136.451,128.674 137.451,128.508 138.5,129C 138.167,129.333 137.833,129.667 137.5,130C 138.416,130.374 139.25,130.874 140,131.5C 140.602,127.637 142.769,125.803 146.5,126C 143.423,129.201 143.923,130.035 148,128.5C 149.169,129.009 150.002,129.842 150.5,131C 147.627,130.993 144.794,130.493 142,129.5C 141.833,129.833 141.667,130.167 141.5,130.5C 143.078,131.298 144.744,131.798 146.5,132C 146.167,132.333 145.833,132.667 145.5,133C 148.289,133.125 149.955,133.958 150.5,135.5 Z"/></g>
<g><path style="opacity:0.176" fill="#757335" d="M 165.5,134.5 C 160.637,135.739 155.637,136.739 150.5,137.5C 150.5,136.833 150.5,136.167 150.5,135.5C 155.493,135.084 160.493,134.751 165.5,134.5 Z"/></g>
<g><path style="opacity:0.851" fill="#8b843e" d="M 149.5,137.5 C 144.507,137.916 139.507,138.249 134.5,138.5C 133.833,138.5 133.5,138.167 133.5,137.5C 138.833,136.167 144.167,136.167 149.5,137.5 Z"/></g>
<g><path style="opacity:1" fill="#9d892d" d="M 665.5,126.5 C 664.167,135.167 664.167,143.833 665.5,152.5C 664.883,152.389 664.383,152.056 664,151.5C 662,143.5 662,135.5 664,127.5C 664.383,126.944 664.883,126.611 665.5,126.5 Z"/></g>
<g><path style="opacity:1" fill="#837225" d="M 811.5,134.5 C 813.659,137.484 815.325,140.817 816.5,144.5C 814.386,143.093 812.886,141.093 812,138.5C 811.51,137.207 811.343,135.873 811.5,134.5 Z"/></g>
<g><path style="opacity:1" fill="#8c7a28" d="M 725.5,133.5 C 726.8,135.223 727.467,137.39 727.5,140C 727.467,142.61 726.8,144.777 725.5,146.5C 725.5,142.167 725.5,137.833 725.5,133.5 Z"/></g>
<g><path style="opacity:0.992" fill="#564c19" d="M 674.5,130.5 C 674.495,134.534 674.162,138.534 673.5,142.5C 672.177,138.402 672.511,134.402 674.5,130.5 Z"/></g>
<g><path style="opacity:1" fill="#8f7d28" d="M 715.5,131.5 C 716.117,131.611 716.617,131.944 717,132.5C 717.167,135 717.333,137.5 717.5,140C 717.475,142.929 716.809,145.429 715.5,147.5C 715.5,142.167 715.5,136.833 715.5,131.5 Z"/></g>
<g><path style="opacity:0.988" fill="#807024" d="M 598.5,127.5 C 595.995,132.848 594.995,138.514 595.5,144.5C 594.995,138.514 595.995,132.848 598.5,127.5 Z"/></g>
<g><path style="opacity:1" fill="#b8c0c7" d="M 47.5,130.5 C 48.3636,131.688 49.3636,132.855 50.5,134C 48.7174,135.067 48.2174,136.567 49,138.5C 50.5264,136.415 52.3598,136.415 54.5,138.5C 52.5,139.5 50.5,140.5 48.5,141.5C 48.6667,141.833 48.8333,142.167 49,142.5C 50.6597,142.676 52.3264,142.009 54,140.5C 54.0891,143.849 55.2557,144.349 57.5,142C 55.1517,140.312 54.9851,138.478 57,136.5C 57.6419,138.762 58.4752,140.929 59.5,143C 59.3857,145.952 59.3857,148.952 59.5,152C 58.7282,153.221 57.7282,154.221 56.5,155C 57.2266,156.399 57.7266,157.899 58,159.5C 58.5354,157.729 59.3687,157.396 60.5,158.5C 61.5573,162.108 61.5573,165.775 60.5,169.5C 61.9525,169.06 63.1192,169.726 64,171.5C 64.3316,175.806 65.4983,179.806 67.5,183.5C 67.2908,184.994 66.6241,186.161 65.5,187C 68.8762,187.307 70.2096,189.14 69.5,192.5C 70.5,192.5 71.5,192.5 72.5,192.5C 72.5,193.833 72.5,195.167 72.5,196.5C 53.5478,178.658 45.2144,156.658 47.5,130.5 Z"/></g>
<g><path style="opacity:1" fill="#b0b8c0" d="M 504.5,117.5 C 504.167,117.5 503.833,117.5 503.5,117.5C 504.99,115.72 506.99,115.054 509.5,115.5C 509.5,114.167 509.5,112.833 509.5,111.5C 503.158,111.334 496.825,111.5 490.5,112C 489.084,114.627 488.417,117.46 488.5,120.5C 488.556,122.64 489.223,124.306 490.5,125.5C 489.034,129.735 487.867,134.068 487,138.5C 482.925,146.936 479.259,155.603 476,164.5C 475.433,167.168 474.933,169.834 474.5,172.5C 473.5,172.5 472.5,172.5 471.5,172.5C 469.501,166.167 467.501,159.834 465.5,153.5C 465.109,148.521 463.442,144.188 460.5,140.5C 458.366,135.683 456.7,130.683 455.5,125.5C 458.552,129.599 460.719,134.265 462,139.5C 462.768,133.052 462.268,126.719 460.5,120.5C 461.957,122.242 463.124,124.242 464,126.5C 465.961,135.041 469.127,143.041 473.5,150.5C 474.086,150.291 474.586,149.957 475,149.5C 478.751,136.495 483.418,123.829 489,111.5C 489.5,111 490,110.5 490.5,110C 497.492,109.5 504.492,109.334 511.5,109.5C 511.5,111.833 511.5,114.167 511.5,116.5C 509.05,116.298 506.717,116.631 504.5,117.5 Z"/></g>
<g><path style="opacity:1" fill="#404446" d="M 318.5,143.5 C 318.5,150.167 318.5,156.833 318.5,163.5C 321.059,163.198 323.393,163.532 325.5,164.5C 322.833,164.5 320.167,164.5 317.5,164.5C 317.175,157.313 317.509,150.313 318.5,143.5 Z"/></g>
<g><path style="opacity:1" fill="#94812a" d="M 805.5,139.5 C 809.118,143.065 811.451,147.398 812.5,152.5C 810.858,149.254 808.691,146.254 806,143.5C 805.51,142.207 805.343,140.873 805.5,139.5 Z"/></g>
<g><path style="opacity:1" fill="#6c7176" d="M 338.5,140.5 C 337.957,141.742 337.623,143.075 337.5,144.5C 338.204,146.535 338.871,148.535 339.5,150.5C 337.069,148.71 335.736,146.21 335.5,143C 335.748,141.251 336.748,140.418 338.5,140.5 Z"/></g>
<g><path style="opacity:1" fill="#91969b" d="M 195.5,129.5 C 193.285,132.005 192.119,135.005 192,138.5C 191.107,137.289 190.274,137.289 189.5,138.5C 191.005,139.842 191.672,141.508 191.5,143.5C 189.876,143.36 188.71,144.027 188,145.5C 187.667,145.167 187.333,144.833 187,144.5C 185.931,147.208 184.764,149.875 183.5,152.5C 184.758,151.984 185.758,152.65 186.5,154.5C 183.572,159.053 180.572,163.553 177.5,168C 177.966,169.299 177.966,170.799 177.5,172.5C 175.173,172.753 173.173,172.086 171.5,170.5C 168.61,177.976 165.276,185.143 161.5,192C 161.632,195.075 160.299,197.742 157.5,200C 158.059,200.725 158.392,201.558 158.5,202.5C 157.666,208.116 156.832,208.45 156,203.5C 155.505,205.473 155.338,207.473 155.5,209.5C 149.647,212.723 143.313,214.89 136.5,216C 127.5,216.667 118.5,216.667 109.5,216C 107.618,215.802 105.952,215.302 104.5,214.5C 107.5,214.5 110.5,214.5 113.5,214.5C 115.265,215.461 117.265,215.795 119.5,215.5C 122.167,215.5 124.833,215.5 127.5,215.5C 130.206,215.425 132.873,215.092 135.5,214.5C 135.117,211.538 136.117,210.538 138.5,211.5C 139.103,212.635 139.436,213.635 139.5,214.5C 141.167,213.667 142.833,212.833 144.5,212C 143.269,210.817 143.269,209.651 144.5,208.5C 146.375,209.836 147.708,209.336 148.5,207C 147.39,204.263 147.223,201.429 148,198.5C 149.308,193.866 151.474,189.7 154.5,186C 153.692,185.692 153.025,185.192 152.5,184.5C 153.981,183.52 155.315,182.353 156.5,181C 155.755,178.429 155.421,175.929 155.5,173.5C 154.335,174.491 153.168,175.491 152,176.5C 151.235,176.43 150.735,176.097 150.5,175.5C 155.208,171.793 159.208,167.46 162.5,162.5C 166.1,158.713 167.767,154.046 167.5,148.5C 167.5,144.5 167.5,140.5 167.5,136.5C 176.99,134.67 186.323,132.337 195.5,129.5 Z"/></g>
<g><path style="opacity:1" fill="#505458" d="M 460.5,140.5 C 463.442,144.188 465.109,148.521 465.5,153.5C 463.058,149.559 461.391,145.225 460.5,140.5 Z"/></g>
<g><path style="opacity:0.2" fill="#ced1d3" d="M 197.5,129.5 C 198.566,128.308 199.399,128.641 200,130.5C 201.387,141.919 200.22,152.919 196.5,163.5C 198.819,152.949 199.652,142.282 199,131.5C 198.722,130.584 198.222,129.918 197.5,129.5 Z"/></g>
<g><path style="opacity:0.996" fill="#7f6f24" d="M 587.5,127.5 C 585.909,137.259 586.242,146.926 588.5,156.5C 586.933,155.319 586.099,153.653 586,151.5C 585.333,144.167 585.333,136.833 586,129.5C 586.278,128.584 586.778,127.918 587.5,127.5 Z"/></g>
<g><path style="opacity:0.094" fill="#272211" d="M 96.5,137.5 C 102.167,137.5 107.833,137.5 113.5,137.5C 113.5,147.167 113.5,156.833 113.5,166.5C 113.167,166.5 112.833,166.5 112.5,166.5C 112.5,157.167 112.5,147.833 112.5,138.5C 106.974,138.821 101.64,138.488 96.5,137.5 Z"/></g>
<g><path style="opacity:0.992" fill="#5f531b" d="M 725.5,151.5 C 725.245,153.967 724.245,155.967 722.5,157.5C 722.755,155.033 723.755,153.033 725.5,151.5 Z"/></g>
<g><path style="opacity:1" fill="#6a6f74" d="M 340.5,152.5 C 342.804,155.511 344.804,158.844 346.5,162.5C 348.969,163.168 351.302,163.835 353.5,164.5C 350.813,164.664 348.146,164.497 345.5,164C 343.568,160.25 341.901,156.416 340.5,152.5 Z"/></g>
<g><path style="opacity:1" fill="#9d8a2d" d="M 640.5,148.5 C 639.504,148.414 638.671,148.748 638,149.5C 636.047,152.453 634.547,155.619 633.5,159C 631.846,159.608 630.179,160.108 628.5,160.5C 632.06,157.06 634.893,153.06 637,148.5C 638.292,147.209 639.458,147.209 640.5,148.5 Z"/></g>
<g><path style="opacity:0.686" fill="#4f5154" d="M 167.5,148.5 C 167.767,154.046 166.1,158.713 162.5,162.5C 164.193,157.748 165.86,153.081 167.5,148.5 Z"/></g>
<g><path style="opacity:0.988" fill="#776822" d="M 642.5,157.5 C 641.972,160.688 640.305,163.021 637.5,164.5C 638.811,161.865 640.478,159.531 642.5,157.5 Z"/></g>
<g><path style="opacity:0.961" fill="#564c19" d="M 814.5,157.5 C 816.897,159.662 818.564,162.329 819.5,165.5C 817.103,163.338 815.436,160.671 814.5,157.5 Z"/></g>
<g><path style="opacity:0.125" fill="#333536" d="M 46.5,129.5 C 47.1667,129.5 47.5,129.833 47.5,130.5C 45.2144,156.658 53.5478,178.658 72.5,196.5C 72.8333,197.167 73.1667,197.833 73.5,198.5C 68.2296,195.065 63.7296,190.731 60,185.5C 48.5816,168.591 44.0816,149.925 46.5,129.5 Z"/></g>
<g><path style="opacity:1" fill="#7d6d23" d="M 628.5,160.5 C 627.657,162.173 626.324,163.34 624.5,164C 619.98,164.814 615.646,164.647 611.5,163.5C 617.506,164.11 623.173,163.11 628.5,160.5 Z"/></g>
<g><path style="opacity:1" fill="#544917" d="M 685.5,162.5 C 690.438,163.392 695.438,163.726 700.5,163.5C 696.019,164.648 691.352,164.815 686.5,164C 685.944,163.617 685.611,163.117 685.5,162.5 Z"/></g>
<g><path style="opacity:1" fill="#4b4216" d="M 722.5,158.5 C 719.757,163.578 715.757,167.245 710.5,169.5C 714.52,165.811 718.52,162.145 722.5,158.5 Z"/></g>
<g><path style="opacity:1" fill="#c4ccd4" d="M 46.5,129.5 C 46.5,128.833 46.8333,128.5 47.5,128.5C 48.1667,128.5 48.8333,128.5 49.5,128.5C 50.1667,128.5 50.5,128.833 50.5,129.5C 52.4352,130.15 54.4352,130.483 56.5,130.5C 56.5,130.833 56.5,131.167 56.5,131.5C 60.8426,132.841 64.8426,135.008 68.5,138C 68.0426,138.414 67.7093,138.914 67.5,139.5C 68.6034,139.998 69.6034,140.331 70.5,140.5C 70.0233,141.478 69.3567,142.311 68.5,143C 69.8333,143.667 71.1667,144.333 72.5,145C 67.5557,146.269 67.2224,148.269 71.5,151C 66.9453,150.428 66.7786,151.928 71,155.5C 72,154.833 73,154.167 74,153.5C 74.4652,154.931 75.2986,156.097 76.5,157C 72.2354,158.2 71.5688,160.367 74.5,163.5C 72.0571,166.195 72.3905,168.695 75.5,171C 74.6919,171.308 74.0253,171.808 73.5,172.5C 74.7287,173.281 76.062,173.781 77.5,174C 76.1667,175.333 76.1667,176.667 77.5,178C 76.09,178.368 75.09,179.201 74.5,180.5C 75.9501,181.85 76.6168,183.516 76.5,185.5C 79.8957,185.633 80.2291,186.633 77.5,188.5C 78.4911,189.665 79.4911,190.832 80.5,192C 79.4815,193.935 78.6482,195.768 78,197.5C 82.232,200.65 85.732,204.317 88.5,208.5C 86.847,208.34 85.5137,207.674 84.5,206.5C 84.0269,205.094 83.0269,204.427 81.5,204.5C 81.0269,203.094 80.0269,202.427 78.5,202.5C 77.4154,200.413 75.7488,199.08 73.5,198.5C 73.1667,197.833 72.8333,197.167 72.5,196.5C 72.5,195.167 72.5,193.833 72.5,192.5C 71.5,192.5 70.5,192.5 69.5,192.5C 70.2096,189.14 68.8762,187.307 65.5,187C 66.6241,186.161 67.2908,184.994 67.5,183.5C 65.4983,179.806 64.3316,175.806 64,171.5C 63.1192,169.726 61.9525,169.06 60.5,169.5C 61.5573,165.775 61.5573,162.108 60.5,158.5C 59.3687,157.396 58.5354,157.729 58,159.5C 57.7266,157.899 57.2266,156.399 56.5,155C 57.7282,154.221 58.7282,153.221 59.5,152C 59.3857,148.952 59.3857,145.952 59.5,143C 58.4752,140.929 57.6419,138.762 57,136.5C 54.9851,138.478 55.1517,140.312 57.5,142C 55.2557,144.349 54.0891,143.849 54,140.5C 52.3264,142.009 50.6597,142.676 49,142.5C 48.8333,142.167 48.6667,141.833 48.5,141.5C 50.5,140.5 52.5,139.5 54.5,138.5C 52.3598,136.415 50.5264,136.415 49,138.5C 48.2174,136.567 48.7174,135.067 50.5,134C 49.3636,132.855 48.3636,131.688 47.5,130.5C 47.5,129.833 47.1667,129.5 46.5,129.5 Z"/></g>
<g><path style="opacity:1" fill="#776821" d="M 596.5,165.5 C 598.749,166.08 600.415,167.413 601.5,169.5C 599.251,168.92 597.585,167.587 596.5,165.5 Z"/></g>
<g><path style="opacity:0.969" fill="#726420" d="M 636.5,165.5 C 634.853,167.326 632.853,168.66 630.5,169.5C 631.802,167.178 633.802,165.845 636.5,165.5 Z"/></g>
<g><path style="opacity:1" fill="#716320" d="M 674.5,165.5 C 676.749,166.08 678.415,167.413 679.5,169.5C 677.251,168.92 675.585,167.587 674.5,165.5 Z"/></g>
<g><path style="opacity:1" fill="#dce2e9" d="M 56.5,131.5 C 56.8333,131.5 57.1667,131.5 57.5,131.5C 58.5,131.5 59.5,131.5 60.5,131.5C 60.5,132.167 60.8333,132.5 61.5,132.5C 62.5,132.5 63.5,132.5 64.5,132.5C 65.1667,132.5 65.5,132.833 65.5,133.5C 69.5,134.167 73.5,134.833 77.5,135.5C 78.1098,136.391 78.4431,137.391 78.5,138.5C 78.0309,142.552 77.0309,146.552 75.5,150.5C 78.8932,152.081 80.2265,154.747 79.5,158.5C 78.5,158.5 77.5,158.5 76.5,158.5C 75.9232,161.55 77.0899,163.55 80,164.5C 80.3333,163.833 80.6667,163.167 81,162.5C 81.1992,164.402 82.0325,165.902 83.5,167C 83.0426,167.414 82.7093,167.914 82.5,168.5C 83.6113,169.611 84.278,170.945 84.5,172.5C 84.0107,174.808 83.0107,175.975 81.5,176C 82.8337,178.386 84.167,180.72 85.5,183C 82.7215,183.149 82.2215,183.983 84,185.5C 84.3333,185.167 84.6667,184.833 85,184.5C 85.3333,185.833 85.6667,187.167 86,188.5C 87.618,188.111 88.7847,186.778 89.5,184.5C 90.9744,185.436 91.9744,186.77 92.5,188.5C 91.6086,189.59 90.6086,189.59 89.5,188.5C 86.6133,194.003 87.9466,198.336 93.5,201.5C 91.5281,203.415 90.5281,205.749 90.5,208.5C 89.8333,208.5 89.1667,208.5 88.5,208.5C 85.732,204.317 82.232,200.65 78,197.5C 78.6482,195.768 79.4815,193.935 80.5,192C 79.4911,190.832 78.4911,189.665 77.5,188.5C 80.2291,186.633 79.8957,185.633 76.5,185.5C 76.6168,183.516 75.9501,181.85 74.5,180.5C 75.09,179.201 76.09,178.368 77.5,178C 76.1667,176.667 76.1667,175.333 77.5,174C 76.062,173.781 74.7287,173.281 73.5,172.5C 74.0253,171.808 74.6919,171.308 75.5,171C 72.3905,168.695 72.0571,166.195 74.5,163.5C 71.5688,160.367 72.2354,158.2 76.5,157C 75.2986,156.097 74.4652,154.931 74,153.5C 73,154.167 72,154.833 71,155.5C 66.7786,151.928 66.9453,150.428 71.5,151C 67.2224,148.269 67.5557,146.269 72.5,145C 71.1667,144.333 69.8333,143.667 68.5,143C 69.3567,142.311 70.0233,141.478 70.5,140.5C 69.6034,140.331 68.6034,139.998 67.5,139.5C 67.7093,138.914 68.0426,138.414 68.5,138C 64.8426,135.008 60.8426,132.841 56.5,131.5 Z"/></g>
<g><path style="opacity:1" fill="#6a6f74" d="M 335.5,160.5 C 337.52,163.368 339.186,166.535 340.5,170C 344.821,170.499 349.154,170.666 353.5,170.5C 349.019,171.648 344.352,171.815 339.5,171C 337.746,167.659 336.413,164.159 335.5,160.5 Z"/></g>
<g><path style="opacity:1" fill="#747a7f" d="M 435.5,164.5 C 435.833,164.5 436.167,164.5 436.5,164.5C 436.5,166.5 436.5,168.5 436.5,170.5C 443.167,170.5 449.833,170.5 456.5,170.5C 456.5,168.5 456.5,166.5 456.5,164.5C 456.833,164.5 457.167,164.5 457.5,164.5C 457.5,166.833 457.5,169.167 457.5,171.5C 450.167,171.5 442.833,171.5 435.5,171.5C 435.5,169.167 435.5,166.833 435.5,164.5 Z"/></g>
<g><path style="opacity:1" fill="#61666a" d="M 510.5,164.5 C 512.344,166.279 513.01,168.612 512.5,171.5C 504.316,171.826 496.316,171.492 488.5,170.5C 495.833,170.5 503.167,170.5 510.5,170.5C 510.5,168.5 510.5,166.5 510.5,164.5 Z"/></g>
<g><path style="opacity:1" fill="#877626" d="M 742.5,164.5 C 742.5,166.5 742.5,168.5 742.5,170.5C 749.5,170.5 756.5,170.5 763.5,170.5C 763.5,168.5 763.5,166.5 763.5,164.5C 764.468,166.607 764.802,168.941 764.5,171.5C 756.833,171.5 749.167,171.5 741.5,171.5C 741.198,168.941 741.532,166.607 742.5,164.5 Z"/></g>
<g><path style="opacity:1" fill="#817125" d="M 784.5,163.5 C 784.5,163.833 784.5,164.167 784.5,164.5C 782.167,164.5 779.833,164.5 777.5,164.5C 777.5,166.5 777.5,168.5 777.5,170.5C 785.167,170.5 792.833,170.5 800.5,170.5C 800.5,168.5 800.5,166.5 800.5,164.5C 800.833,164.5 801.167,164.5 801.5,164.5C 802.468,166.607 802.802,168.941 802.5,171.5C 793.827,171.666 785.16,171.5 776.5,171C 775.167,168.667 775.167,166.333 776.5,164C 779.146,163.503 781.813,163.336 784.5,163.5 Z"/></g>
<g><path style="opacity:0.345" fill="#faedae" d="M 133.5,137.5 C 133.5,138.167 133.833,138.5 134.5,138.5C 134.303,152.711 132.47,166.711 129,180.5C 128.617,181.056 128.117,181.389 127.5,181.5C 129.806,173.333 131.139,164.999 131.5,156.5C 132.167,150.167 132.833,143.833 133.5,137.5 Z"/></g>
<g><path style="opacity:0.988" fill="#a4abb1" d="M 127.5,215.5 C 128.29,214.206 129.29,213.039 130.5,212C 129.833,211.333 129.167,210.667 128.5,210C 129.777,204.756 131.444,199.589 133.5,194.5C 133.013,193.554 132.68,192.554 132.5,191.5C 134.604,188.428 136.604,185.428 138.5,182.5C 142.458,180.234 146.458,177.901 150.5,175.5C 150.735,176.097 151.235,176.43 152,176.5C 153.168,175.491 154.335,174.491 155.5,173.5C 155.421,175.929 155.755,178.429 156.5,181C 155.315,182.353 153.981,183.52 152.5,184.5C 153.025,185.192 153.692,185.692 154.5,186C 151.474,189.7 149.308,193.866 148,198.5C 147.223,201.429 147.39,204.263 148.5,207C 147.708,209.336 146.375,209.836 144.5,208.5C 143.269,209.651 143.269,210.817 144.5,212C 142.833,212.833 141.167,213.667 139.5,214.5C 139.436,213.635 139.103,212.635 138.5,211.5C 136.117,210.538 135.117,211.538 135.5,214.5C 132.873,215.092 130.206,215.425 127.5,215.5 Z"/></g>
<g><path style="opacity:0.204" fill="#695a20" d="M 112.5,166.5 C 112.833,166.5 113.167,166.5 113.5,166.5C 112.705,171.149 112.539,175.816 113,180.5C 117.737,181.469 122.57,181.803 127.5,181.5C 122.36,182.488 117.026,182.821 111.5,182.5C 110.667,177.143 111,171.809 112.5,166.5 Z"/></g>
<g><path style="opacity:1" fill="#d0d8df" d="M 125.5,184.5 C 126.5,184.5 127.5,184.5 128.5,184.5C 126.559,186.981 124.393,189.315 122,191.5C 120.172,197.771 120.006,204.104 121.5,210.5C 121.563,212.514 120.897,214.181 119.5,215.5C 117.265,215.795 115.265,215.461 113.5,214.5C 115.246,207.842 116.58,200.842 117.5,193.5C 113.212,193.442 111.879,191.442 113.5,187.5C 117.504,186.07 121.504,185.07 125.5,184.5 Z"/></g>
<g><path style="opacity:1" fill="#ebf0f5" d="M 78.5,138.5 C 78.9096,161.228 89.9096,175.895 111.5,182.5C 115.881,184.211 120.547,184.877 125.5,184.5C 121.504,185.07 117.504,186.07 113.5,187.5C 111.879,191.442 113.212,193.442 117.5,193.5C 116.58,200.842 115.246,207.842 113.5,214.5C 110.5,214.5 107.5,214.5 104.5,214.5C 104.167,214.5 103.833,214.5 103.5,214.5C 99.3655,212.269 95.0322,210.269 90.5,208.5C 90.5281,205.749 91.5281,203.415 93.5,201.5C 87.9466,198.336 86.6133,194.003 89.5,188.5C 90.6086,189.59 91.6086,189.59 92.5,188.5C 91.9744,186.77 90.9744,185.436 89.5,184.5C 88.7847,186.778 87.618,188.111 86,188.5C 85.6667,187.167 85.3333,185.833 85,184.5C 84.6667,184.833 84.3333,185.167 84,185.5C 82.2215,183.983 82.7215,183.149 85.5,183C 84.167,180.72 82.8337,178.386 81.5,176C 83.0107,175.975 84.0107,174.808 84.5,172.5C 84.278,170.945 83.6113,169.611 82.5,168.5C 82.7093,167.914 83.0426,167.414 83.5,167C 82.0325,165.902 81.1992,164.402 81,162.5C 80.6667,163.167 80.3333,163.833 80,164.5C 77.0899,163.55 75.9232,161.55 76.5,158.5C 77.5,158.5 78.5,158.5 79.5,158.5C 80.2265,154.747 78.8932,152.081 75.5,150.5C 77.0309,146.552 78.0309,142.552 78.5,138.5 Z"/></g>
<g><path style="opacity:1" fill="#b9c2cb" d="M 138.5,182.5 C 136.604,185.428 134.604,188.428 132.5,191.5C 132.68,192.554 133.013,193.554 133.5,194.5C 131.444,199.589 129.777,204.756 128.5,210C 129.167,210.667 129.833,211.333 130.5,212C 129.29,213.039 128.29,214.206 127.5,215.5C 124.833,215.5 122.167,215.5 119.5,215.5C 120.897,214.181 121.563,212.514 121.5,210.5C 120.006,204.104 120.172,197.771 122,191.5C 124.393,189.315 126.559,186.981 128.5,184.5C 131.833,183.833 135.167,183.167 138.5,182.5 Z"/></g>
<g><path style="opacity:0.133" fill="#2e3031" d="M 73.5,198.5 C 75.7488,199.08 77.4154,200.413 78.5,202.5C 76.2512,201.92 74.5846,200.587 73.5,198.5 Z"/></g>
<g><path style="opacity:0.216" fill="#2d2d2f" d="M 78.5,202.5 C 80.0269,202.427 81.0269,203.094 81.5,204.5C 79.9731,204.573 78.9731,203.906 78.5,202.5 Z"/></g>
<g><path style="opacity:0.11" fill="#282929" d="M 81.5,204.5 C 83.0269,204.427 84.0269,205.094 84.5,206.5C 82.9731,206.573 81.9731,205.906 81.5,204.5 Z"/></g>
<g><path style="opacity:0.086" fill="#4a4c4d" d="M 88.5,208.5 C 89.1667,208.5 89.8333,208.5 90.5,208.5C 95.0322,210.269 99.3655,212.269 103.5,214.5C 97.9563,213.657 92.9563,211.657 88.5,208.5 Z"/></g>
</svg>
