<?xml version="1.0" encoding="UTF-8"?>
<!DOCTYPE svg PUBLIC "-//W3C//DTD SVG 1.1//EN" "http://www.w3.org/Graphics/SVG/1.1/DTD/svg11.dtd">
<svg xmlns="http://www.w3.org/2000/svg" version="1.1" width="506px" height="476px" style="shape-rendering:geometricPrecision; text-rendering:geometricPrecision; image-rendering:optimizeQuality; fill-rule:evenodd; clip-rule:evenodd" xmlns:xlink="http://www.w3.org/1999/xlink">
<g><path style="opacity:1" fill="#a5a4aa" d="M 433.5,205.5 C 433.41,208.152 434.076,210.485 435.5,212.5C 442.521,244.234 442.021,275.901 434,307.5C 430.924,316.895 427.758,326.228 424.5,335.5C 444.505,340.006 456.672,352.339 461,372.5C 463.781,401.462 451.281,419.962 423.5,428C 400.918,430.957 383.751,422.79 372,403.5C 323.995,443.211 269.162,457.378 207.5,446C 174.787,439.392 145.954,425.226 121,403.5C 102.998,429.459 79.8318,435.292 51.5,421C 34.7854,408.2 28.2854,391.367 32,370.5C 37.181,351.484 49.3477,339.818 68.5,335.5C 41.6425,268.229 47.8091,204.229 87,143.5C 91.6576,137.013 96.8243,131.013 102.5,125.5C 104.587,124.415 105.92,122.749 106.5,120.5C 132.037,94.2188 162.704,76.3854 198.5,67C 199.428,49.4702 207.095,35.8035 221.5,26C 238.999,17.0829 256.332,17.4162 273.5,27C 286.546,37.0894 293.546,50.4228 294.5,67C 358.486,84.9826 402.986,124.816 428,186.5C 430.349,192.711 432.182,199.044 433.5,205.5 Z M 197.5,78.5 C 198.959,78.4326 200.292,78.7659 201.5,79.5C 208.377,101.356 223.377,112.689 246.5,113.5C 269.194,112.785 284.194,101.785 291.5,80.5C 292.222,79.4489 293.222,78.7822 294.5,78.5C 349.641,94.9993 389.474,129.333 414,181.5C 435.758,232.27 435.258,282.937 412.5,333.5C 384.583,337.247 369.583,353.081 367.5,381C 367.537,384.553 367.87,388.053 368.5,391.5C 341.387,416.552 309.387,431.719 272.5,437C 219.103,443.737 171.437,430.404 129.5,397C 124.789,392.999 123.455,387.833 125.5,381.5C 123.648,353.311 108.648,337.311 80.5,333.5C 63.3557,296.343 58.8557,257.677 67,217.5C 84.5571,146.777 128.057,100.444 197.5,78.5 Z"/></g>
<g><path style="opacity:1" fill="#413d4a" d="M 238.5,29.5 C 271.158,29.3154 285.658,45.3154 282,77.5C 273.933,96.6273 259.433,105.127 238.5,103C 217.297,95.7781 207.797,80.9447 210,58.5C 214.358,43.6425 223.858,33.9758 238.5,29.5 Z"/></g>
<g><path style="opacity:1" fill="#e2e2e4" d="M 197.5,78.5 C 197.917,77.8761 198.584,77.5427 199.5,77.5C 200.713,77.7472 201.38,78.4138 201.5,79.5C 200.292,78.7659 198.959,78.4326 197.5,78.5 Z"/></g>
<g><path style="opacity:1" fill="#e9e9ea" d="M 294.5,78.5 C 293.222,78.7822 292.222,79.4489 291.5,80.5C 291.5,79.5 291.5,78.5 291.5,77.5C 292.791,77.2627 293.791,77.596 294.5,78.5 Z"/></g>
<g><path style="opacity:1" fill="#d4d3d6" d="M 106.5,120.5 C 105.92,122.749 104.587,124.415 102.5,125.5C 103.08,123.251 104.413,121.585 106.5,120.5 Z"/></g>
<g><path style="opacity:1" fill="#cecdd1" d="M 433.5,205.5 C 434.924,207.515 435.59,209.848 435.5,212.5C 434.076,210.485 433.41,208.152 433.5,205.5 Z"/></g>
<g><path style="opacity:1" fill="#413d4a" d="M 70.5,344.5 C 91.4032,342.854 105.903,351.521 114,370.5C 118.303,391.63 110.803,406.797 91.5,416C 68.4438,422.221 52.2771,414.388 43,392.5C 38.4874,368.513 47.654,352.513 70.5,344.5 Z"/></g>
<g><path style="opacity:1" fill="#413d4a" d="M 406.5,344.5 C 439.16,344.318 453.66,360.318 450,392.5C 441.933,411.627 427.433,420.127 406.5,418C 385.288,410.756 375.788,395.923 378,373.5C 382.35,358.651 391.85,348.985 406.5,344.5 Z"/></g>
</svg>
