<?xml version="1.0" encoding="UTF-8" standalone="no"?>
<svg
   xmlns:dc="http://purl.org/dc/elements/1.1/"
   xmlns:cc="http://creativecommons.org/ns#"
   xmlns:rdf="http://www.w3.org/1999/02/22-rdf-syntax-ns#"
   xmlns:svg="http://www.w3.org/2000/svg"
   xmlns="http://www.w3.org/2000/svg"
   xmlns:sodipodi="http://sodipodi.sourceforge.net/DTD/sodipodi-0.dtd"
   xmlns:inkscape="http://www.inkscape.org/namespaces/inkscape"
   id="ic_staking_on"
   width="100"
   height="100"
   viewBox="0 0 100 100"
   version="1.1"
   sodipodi:docname="img-empty-staking-on.svg"
   inkscape:version="0.92.4 (5da689c313, 2019-01-14)">
  <metadata
     id="metadata20">
    <rdf:RDF>
      <cc:Work
         rdf:about="">
        <dc:format>image/svg+xml</dc:format>
        <dc:type
           rdf:resource="http://purl.org/dc/dcmitype/StillImage" />
        <dc:title></dc:title>
      </cc:Work>
    </rdf:RDF>
  </metadata>
  <sodipodi:namedview
     pagecolor="#ffffff"
     bordercolor="#666666"
     borderopacity="1"
     objecttolerance="10"
     gridtolerance="10"
     guidetolerance="10"
     inkscape:pageopacity="0"
     inkscape:pageshadow="2"
     inkscape:window-width="1920"
     inkscape:window-height="1017"
     id="namedview18"
     showgrid="false"
     inkscape:zoom="2.36"
     inkscape:cx="-18.008475"
     inkscape:cy="50"
     inkscape:window-x="-8"
     inkscape:window-y="-8"
     inkscape:window-maximized="1"
     inkscape:current-layer="Group_9018" />
  <defs
     id="defs4">
    <style
       type="text/css"
       id="style2">
            .cls-1{fill:#d6d6d6}.cls-2{fill:#666}.cls-3{fill:none}
        </style>
  </defs>
  <g
     id="Group_9018"
     data-name="Group 9018">
    <g
       id="Group_9016"
       data-name="Group 9016">
      <ellipse
         id="Ellipse_613"
         cx="12"
         cy="4"
         class="cls-1"
         data-name="Ellipse 613"
         rx="12"
         ry="4"
         transform="translate(68 52)" />
      <ellipse
         id="Ellipse_614"
         cx="12"
         cy="4"
         class="cls-1"
         data-name="Ellipse 614"
         rx="12"
         ry="4"
         transform="translate(52 64)" />
      <path
         id="Rectangle_4669"
         d="M0 0h14v14H0z"
         class="cls-1"
         data-name="Rectangle 4669"
         transform="translate(32 24)" />
    </g>
    <path
       style="fill:#666666"
       inkscape:connector-curvature="0"
       data-name="Rectangle 4670"
       class="cls-2"
       d="m 11,61 h 2 v 4 h -2 z"
       id="Rectangle_4670" />
    <path
       style="fill:#666666"
       inkscape:connector-curvature="0"
       data-name="Path 18975"
       class="cls-2"
       d="M 91.046,58.994 A 2.767,2.767 0 0 0 92,57 c 0,-3.283 -6.54,-5 -13,-5 -6.46,0 -13,1.717 -13,5 a 2.767,2.767 0 0 0 0.954,1.994 2.573,2.573 0 0 0 0,4 3.171,3.171 0 0 0 -0.774,1.151 Q 65.6,64.093 65,64.06 V 40 h 5 V 24 H 51.644 A 8.993,8.993 0 1 0 38,12.9 8.994,8.994 0 1 0 24.356,24 H 6 v 16 h 5 v 17 h 2 V 40 h 50 v 24 c -6.46,0 -13,1.717 -13,5 a 2.767,2.767 0 0 0 0.954,1.994 2.573,2.573 0 0 0 0,4 A 3.325,3.325 0 0 0 50.226,76 H 13 v -7 h -2 v 9 h 39.23 a 3.369,3.369 0 0 0 0.724,0.994 2.573,2.573 0 0 0 0,4 2.573,2.573 0 0 0 0,4 A 2.768,2.768 0 0 0 50,89 c 0,3.283 6.54,5 13,5 5.874,0 11.8,-1.424 12.826,-4.15 1.042,0.093 2.106,0.15 3.174,0.15 6.46,0 13,-1.717 13,-5 a 2.768,2.768 0 0 0 -0.954,-2.006 2.573,2.573 0 0 0 0,-4 2.573,2.573 0 0 0 0,-4 2.573,2.573 0 0 0 0,-4 2.573,2.573 0 0 0 0,-4 2.573,2.573 0 0 0 0,-4 2.573,2.573 0 0 0 0,-4 z M 30,38 H 8 V 26 H 30 Z M 23,17 a 7,7 0 0 1 14,0 v 7 H 30 A 7.008,7.008 0 0 1 23,17 Z M 44,38 H 32 V 26 H 44 Z M 39,24 v -7 a 7,7 0 1 1 7,7 z m 7,14 V 26 h 22 v 12 z m 4,39 A 2.311,2.311 0 0 0 50.061,77.515 2.2,2.2 0 0 1 50,77 Z M 63,92 C 55.883,92 52,90.018 52,89 52,88.759 52.247,88.461 52.678,88.151 55.179,89.37 59.1,90 63,90 66.9,90 70.821,89.37 73.322,88.151 73.753,88.461 74,88.759 74,89 c 0,1.018 -3.883,3 -11,3 z m 0,-4 C 55.883,88 52,86.018 52,85 52,84.759 52.247,84.461 52.678,84.151 55.179,85.37 59.1,86 63,86 66.9,86 70.821,85.37 73.322,84.151 73.753,84.461 74,84.759 74,85 c 0,1.018 -3.883,3 -11,3 z m 0,-4 C 55.883,84 52,82.018 52,81 52,80.759 52.247,80.461 52.678,80.151 55.179,81.37 59.1,82 63,82 66.9,82 70.821,81.37 73.322,80.151 73.753,80.461 74,80.759 74,81 c 0,1.018 -3.883,3 -11,3 z m 0,-4 C 55.883,80 52,78.018 52,77 52,76.759 52.247,76.461 52.678,76.151 55.179,77.37 59.1,78 63,78 66.9,78 70.821,77.37 73.322,76.151 73.753,76.461 74,76.759 74,77 c 0,1.018 -3.883,3 -11,3 z m 0,-4 C 55.883,76 52,74.018 52,73 52,72.759 52.247,72.461 52.678,72.151 55.179,73.37 59.1,74 63,74 66.9,74 70.821,73.37 73.322,72.151 73.753,72.461 74,72.759 74,73 c 0,1.018 -3.883,3 -11,3 z m 0,-4 c -7.117,0 -11,-1.982 -11,-3 0,-1.018 3.883,-3 11,-3 7.117,0 11,1.982 11,3 0,1.018 -3.883,3 -11,3 z m 16,16 c -1.207,0 -2.3,-0.068 -3.313,-0.168 a 3.446,3.446 0 0 0 -0.641,-0.838 3.219,3.219 0 0 0 0.781,-1.151 C 76.868,85.943 77.927,86 79,86 82.9,86 86.821,85.37 89.322,84.151 89.753,84.461 90,84.759 90,85 c 0,1.018 -3.883,3 -11,3 z m 0,-4 c -1.207,0 -2.3,-0.068 -3.313,-0.168 a 3.446,3.446 0 0 0 -0.641,-0.838 3.219,3.219 0 0 0 0.781,-1.151 C 76.868,81.943 77.927,82 79,82 82.9,82 86.821,81.37 89.322,80.151 89.753,80.461 90,80.759 90,81 c 0,1.018 -3.883,3 -11,3 z m 0,-4 c -1.207,0 -2.3,-0.068 -3.313,-0.168 a 3.446,3.446 0 0 0 -0.641,-0.838 3.219,3.219 0 0 0 0.781,-1.151 C 76.868,77.943 77.927,78 79,78 82.9,78 86.821,77.37 89.322,76.151 89.753,76.461 90,76.759 90,77 c 0,1.018 -3.883,3 -11,3 z m 0,-4 c -1.207,0 -2.3,-0.068 -3.313,-0.168 a 3.446,3.446 0 0 0 -0.641,-0.838 3.219,3.219 0 0 0 0.781,-1.151 C 76.868,73.943 77.927,74 79,74 82.9,74 86.821,73.37 89.322,72.151 89.753,72.461 90,72.759 90,73 c 0,1.018 -3.883,3 -11,3 z m 0,-4 c -1.207,0 -2.3,-0.068 -3.313,-0.168 a 3.446,3.446 0 0 0 -0.641,-0.838 3.219,3.219 0 0 0 0.781,-1.151 C 76.868,69.943 77.927,70 79,70 82.9,70 86.821,69.37 89.322,68.151 89.753,68.461 90,68.759 90,69 c 0,1.018 -3.883,3 -11,3 z m 0,-4 c -1.2,0 -2.287,-0.067 -3.3,-0.166 -0.621,-1.162 -2.175,-2.062 -4.213,-2.7 A 31.139,31.139 0 0 0 79,66 c 3.9,0 7.821,-0.63 10.322,-1.849 C 89.753,64.461 90,64.759 90,65 c 0,1.018 -3.883,3 -11,3 z M 68.368,64.417 a 2.722,2.722 0 0 1 0.31,-0.266 13.563,13.563 0 0 0 1.826,0.7 26.483,26.483 0 0 0 -2.136,-0.434 z M 79,64 C 71.883,64 68,62.018 68,61 68,60.759 68.247,60.461 68.678,60.151 71.179,61.37 75.1,62 79,62 82.9,62 86.821,61.37 89.322,60.151 89.753,60.461 90,60.759 90,61 c 0,1.018 -3.883,3 -11,3 z m 0,-4 c -7.117,0 -11,-1.982 -11,-3 0,-1.018 3.883,-3 11,-3 7.117,0 11,1.982 11,3 0,1.018 -3.883,3 -11,3 z"
       id="Path_18975" />
  </g>
  <path
     id="Rectangle_4672"
     d="M0 0h100v100H0z"
     class="cls-3"
     data-name="Rectangle 4672" />
</svg>
