<?xml version="1.0" encoding="UTF-8"?>
<!DOCTYPE svg PUBLIC "-//W3C//DTD SVG 1.1//EN" "http://www.w3.org/Graphics/SVG/1.1/DTD/svg11.dtd">
<svg xmlns="http://www.w3.org/2000/svg" version="1.1" width="520px" height="477px" style="shape-rendering:geometricPrecision; text-rendering:geometricPrecision; image-rendering:optimizeQuality; fill-rule:evenodd; clip-rule:evenodd" xmlns:xlink="http://www.w3.org/1999/xlink">
<g><path style="opacity:1" fill="#6d6d6d" d="M 138.5,25.5 C 138.738,27.4044 139.738,28.7377 141.5,29.5C 142.833,30.1667 143.833,31.1667 144.5,32.5C 144.427,34.0269 145.094,35.0269 146.5,35.5C 148.167,36.5 149.5,37.8333 150.5,39.5C 150.427,41.0269 151.094,42.0269 152.5,42.5C 153.833,43.1667 154.833,44.1667 155.5,45.5C 155.427,47.0269 156.094,48.0269 157.5,48.5C 159.167,49.5 160.5,50.8333 161.5,52.5C 161.427,54.0269 162.094,55.0269 163.5,55.5C 164.833,56.1667 165.833,57.1667 166.5,58.5C 166.738,60.4044 167.738,61.7377 169.5,62.5C 170.833,63.1667 171.833,64.1667 172.5,65.5C 172.427,67.0269 173.094,68.0269 174.5,68.5C 176.167,69.5 177.5,70.8333 178.5,72.5C 178.427,74.0269 179.094,75.0269 180.5,75.5C 181.833,76.1667 182.833,77.1667 183.5,78.5C 183.427,80.0269 184.094,81.0269 185.5,81.5C 187.167,82.5 188.5,83.8333 189.5,85.5C 189.427,87.0269 190.094,88.0269 191.5,88.5C 192.833,89.1667 193.833,90.1667 194.5,91.5C 194.738,93.4044 195.738,94.7377 197.5,95.5C 198.833,96.1667 199.833,97.1667 200.5,98.5C 200.427,100.027 201.094,101.027 202.5,101.5C 203.833,102.167 204.833,103.167 205.5,104.5C 205.738,106.404 206.738,107.738 208.5,108.5C 209.833,109.167 210.833,110.167 211.5,111.5C 211.427,113.027 212.094,114.027 213.5,114.5C 214.911,115.908 216.577,116.908 218.5,117.5C 264.36,102.594 306.026,110.094 343.5,140C 347.37,143.702 351.037,147.536 354.5,151.5C 354.738,153.404 355.738,154.738 357.5,155.5C 360.556,157.949 362.889,160.949 364.5,164.5C 364.427,166.027 365.094,167.027 366.5,167.5C 386.817,199.413 391.984,233.747 382,270.5C 373.205,299.949 356.039,323.116 330.5,340C 337.492,340.5 344.492,340.666 351.5,340.5C 351.5,343.833 351.5,347.167 351.5,350.5C 340.495,350.333 329.495,350.5 318.5,351C 319.056,351.383 319.389,351.883 319.5,352.5C 319.427,354.027 320.094,355.027 321.5,355.5C 323.167,356.5 324.5,357.833 325.5,359.5C 325.427,361.027 326.094,362.027 327.5,362.5C 328.833,363.167 329.833,364.167 330.5,365.5C 330.738,367.404 331.738,368.738 333.5,369.5C 334.833,370.167 335.833,371.167 336.5,372.5C 336.427,374.027 337.094,375.027 338.5,375.5C 340.167,376.5 341.5,377.833 342.5,379.5C 342.427,381.027 343.094,382.027 344.5,382.5C 345.833,383.167 346.833,384.167 347.5,385.5C 347.738,387.404 348.738,388.738 350.5,389.5C 351.833,390.167 352.833,391.167 353.5,392.5C 353.427,394.027 354.094,395.027 355.5,395.5C 357.167,396.5 358.5,397.833 359.5,399.5C 359.427,401.027 360.094,402.027 361.5,402.5C 362.833,403.167 363.833,404.167 364.5,405.5C 364.738,407.404 365.738,408.738 367.5,409.5C 368.833,410.167 369.833,411.167 370.5,412.5C 370.427,414.027 371.094,415.027 372.5,415.5C 374.167,416.5 375.5,417.833 376.5,419.5C 376.427,421.027 377.094,422.027 378.5,422.5C 379.833,423.167 380.833,424.167 381.5,425.5C 381.738,427.404 382.738,428.738 384.5,429.5C 385.833,430.167 386.833,431.167 387.5,432.5C 387.427,434.027 388.094,435.027 389.5,435.5C 390.391,436.11 391.391,436.443 392.5,436.5C 394.262,435.738 395.262,434.404 395.5,432.5C 397.788,428.544 400.788,425.211 404.5,422.5C 405.906,422.027 406.573,421.027 406.5,419.5C 407.5,417.833 408.833,416.5 410.5,415.5C 411.906,415.027 412.573,414.027 412.5,412.5C 414.788,408.544 417.788,405.211 421.5,402.5C 422.906,402.027 423.573,401.027 423.5,399.5C 424.5,397.833 425.833,396.5 427.5,395.5C 428.906,395.027 429.573,394.027 429.5,392.5C 430.167,391.167 431.167,390.167 432.5,389.5C 434.262,388.738 435.262,387.404 435.5,385.5C 436.167,384.167 437.167,383.167 438.5,382.5C 439.906,382.027 440.573,381.027 440.5,379.5C 441.5,377.833 442.833,376.5 444.5,375.5C 445.906,375.027 446.573,374.027 446.5,372.5C 447.167,371.167 448.167,370.167 449.5,369.5C 451.262,368.738 452.262,367.404 452.5,365.5C 453.167,364.167 454.167,363.167 455.5,362.5C 456.906,362.027 457.573,361.027 457.5,359.5C 458.5,357.833 459.833,356.5 461.5,355.5C 462.906,355.027 463.573,354.027 463.5,352.5C 463.611,351.883 463.944,351.383 464.5,351C 451.838,350.5 439.171,350.333 426.5,350.5C 426.5,335.5 426.5,320.5 426.5,305.5C 429.833,305.5 433.167,305.5 436.5,305.5C 436.5,317.167 436.5,328.833 436.5,340.5C 453.503,340.333 470.503,340.5 487.5,341C 456.033,378.966 424.033,416.466 391.5,453.5C 362.821,420.653 334.488,387.486 306.5,354C 296.633,356.24 286.633,358.24 276.5,360C 227.665,364.491 188.498,347.325 159,308.5C 135.323,272.762 129.989,234.429 143,193.5C 145.809,185.214 149.643,177.548 154.5,170.5C 155.906,170.027 156.573,169.027 156.5,167.5C 157.906,167.027 158.573,166.027 158.5,164.5C 160.7,160.12 163.533,156.12 167,152.5C 169.37,149.961 171.87,147.628 174.5,145.5C 177.089,144.581 179.089,142.914 180.5,140.5C 184.025,136.817 188.025,133.65 192.5,131C 185.508,130.5 178.508,130.334 171.5,130.5C 171.5,127.167 171.5,123.833 171.5,120.5C 182.505,120.667 193.505,120.5 204.5,120C 180.038,91.5528 155.705,63.0528 131.5,34.5C 107.295,63.0528 82.9619,91.5528 58.5,120C 71.1623,120.5 83.8289,120.667 96.5,120.5C 96.5,135.5 96.5,150.5 96.5,165.5C 93.1667,165.5 89.8333,165.5 86.5,165.5C 86.5,153.833 86.5,142.167 86.5,130.5C 69.089,130.832 52.4223,130.499 36.5,129.5C 38.2624,128.738 39.2624,127.404 39.5,125.5C 43.823,119.845 48.4897,114.512 53.5,109.5C 55.2624,108.738 56.2624,107.404 56.5,105.5C 57.1667,104.167 58.1667,103.167 59.5,102.5C 60.9063,102.027 61.573,101.027 61.5,99.5C 62.5,97.8333 63.8333,96.5 65.5,95.5C 66.9063,95.0269 67.573,94.0269 67.5,92.5C 68.1667,91.1667 69.1667,90.1667 70.5,89.5C 72.2624,88.7377 73.2624,87.4044 73.5,85.5C 74.1667,84.1667 75.1667,83.1667 76.5,82.5C 77.9063,82.0269 78.573,81.0269 78.5,79.5C 79.5,77.8333 80.8333,76.5 82.5,75.5C 83.9063,75.0269 84.573,74.0269 84.5,72.5C 85.1667,71.1667 86.1667,70.1667 87.5,69.5C 89.2624,68.7377 90.2624,67.4044 90.5,65.5C 91.1667,64.1667 92.1667,63.1667 93.5,62.5C 94.9063,62.0269 95.573,61.0269 95.5,59.5C 96.5,57.8333 97.8333,56.5 99.5,55.5C 100.906,55.0269 101.573,54.0269 101.5,52.5C 102.167,51.1667 103.167,50.1667 104.5,49.5C 106.262,48.7377 107.262,47.4044 107.5,45.5C 108.167,44.1667 109.167,43.1667 110.5,42.5C 111.906,42.0269 112.573,41.0269 112.5,39.5C 115.51,36.1257 118.51,32.7923 121.5,29.5C 123.262,28.7377 124.262,27.4044 124.5,25.5C 126.364,22.4497 128.697,19.7831 131.5,17.5C 134.303,19.7831 136.636,22.4497 138.5,25.5 Z M 325.5,290.5 C 324.094,290.973 323.427,291.973 323.5,293.5C 322.167,294.167 321.167,295.167 320.5,296.5C 317.911,297.419 315.911,299.086 314.5,301.5C 282.269,325.072 248.935,326.572 214.5,306C 208.43,301.633 202.764,296.8 197.5,291.5C 197.573,289.973 196.906,288.973 195.5,288.5C 195.167,287.5 194.5,286.833 193.5,286.5C 193.573,284.973 192.906,283.973 191.5,283.5C 191.573,281.973 190.906,280.973 189.5,280.5C 170.154,244.944 172.987,211.277 198,179.5C 224,152.958 254.834,145.125 290.5,156C 330.05,173.579 348.217,204.079 345,247.5C 342.621,263.844 336.121,278.178 325.5,290.5 Z"/></g>
<g><path style="opacity:1" fill="#b5b5b5" d="M 124.5,25.5 C 124.262,27.4044 123.262,28.7377 121.5,29.5C 121.738,27.5956 122.738,26.2623 124.5,25.5 Z"/></g>
<g><path style="opacity:1" fill="#bbbbbb" d="M 138.5,25.5 C 140.262,26.2623 141.262,27.5956 141.5,29.5C 139.738,28.7377 138.738,27.4044 138.5,25.5 Z"/></g>
<g><path style="opacity:1" fill="#b7b7b7" d="M 144.5,32.5 C 145.906,32.9731 146.573,33.9731 146.5,35.5C 145.094,35.0269 144.427,34.0269 144.5,32.5 Z"/></g>
<g><path style="opacity:1" fill="#bababa" d="M 112.5,39.5 C 112.573,41.0269 111.906,42.0269 110.5,42.5C 110.427,40.9731 111.094,39.9731 112.5,39.5 Z"/></g>
<g><path style="opacity:1" fill="#bdbdbd" d="M 150.5,39.5 C 151.906,39.9731 152.573,40.9731 152.5,42.5C 151.094,42.0269 150.427,41.0269 150.5,39.5 Z"/></g>
<g><path style="opacity:1" fill="#b6b6b6" d="M 107.5,45.5 C 107.262,47.4044 106.262,48.7377 104.5,49.5C 104.738,47.5956 105.738,46.2623 107.5,45.5 Z"/></g>
<g><path style="opacity:1" fill="#b4b4b4" d="M 155.5,45.5 C 156.906,45.9731 157.573,46.9731 157.5,48.5C 156.094,48.0269 155.427,47.0269 155.5,45.5 Z"/></g>
<g><path style="opacity:1" fill="#b4b4b4" d="M 101.5,52.5 C 101.573,54.0269 100.906,55.0269 99.5,55.5C 99.427,53.9731 100.094,52.9731 101.5,52.5 Z"/></g>
<g><path style="opacity:1" fill="#bababa" d="M 161.5,52.5 C 162.906,52.9731 163.573,53.9731 163.5,55.5C 162.094,55.0269 161.427,54.0269 161.5,52.5 Z"/></g>
<g><path style="opacity:1" fill="#bbbbbb" d="M 166.5,58.5 C 168.262,59.2623 169.262,60.5956 169.5,62.5C 167.738,61.7377 166.738,60.4044 166.5,58.5 Z"/></g>
<g><path style="opacity:1" fill="#bababa" d="M 95.5,59.5 C 95.573,61.0269 94.9063,62.0269 93.5,62.5C 93.427,60.9731 94.0937,59.9731 95.5,59.5 Z"/></g>
<g><path style="opacity:1" fill="#b6b6b6" d="M 90.5,65.5 C 90.2624,67.4044 89.2624,68.7377 87.5,69.5C 87.7376,67.5956 88.7376,66.2623 90.5,65.5 Z"/></g>
<g><path style="opacity:1" fill="#b7b7b7" d="M 172.5,65.5 C 173.906,65.9731 174.573,66.9731 174.5,68.5C 173.094,68.0269 172.427,67.0269 172.5,65.5 Z"/></g>
<g><path style="opacity:1" fill="#b4b4b4" d="M 84.5,72.5 C 84.573,74.0269 83.9063,75.0269 82.5,75.5C 82.427,73.9731 83.0937,72.9731 84.5,72.5 Z"/></g>
<g><path style="opacity:1" fill="#bebebe" d="M 178.5,72.5 C 179.906,72.9731 180.573,73.9731 180.5,75.5C 179.094,75.0269 178.427,74.0269 178.5,72.5 Z"/></g>
<g><path style="opacity:1" fill="#b4b4b4" d="M 183.5,78.5 C 184.906,78.9731 185.573,79.9731 185.5,81.5C 184.094,81.0269 183.427,80.0269 183.5,78.5 Z"/></g>
<g><path style="opacity:1" fill="#bababa" d="M 78.5,79.5 C 78.573,81.0269 77.9063,82.0269 76.5,82.5C 76.427,80.9731 77.0937,79.9731 78.5,79.5 Z"/></g>
<g><path style="opacity:1" fill="#b6b6b6" d="M 73.5,85.5 C 73.2624,87.4044 72.2624,88.7377 70.5,89.5C 70.7376,87.5956 71.7376,86.2623 73.5,85.5 Z"/></g>
<g><path style="opacity:1" fill="#bababa" d="M 189.5,85.5 C 190.906,85.9731 191.573,86.9731 191.5,88.5C 190.094,88.0269 189.427,87.0269 189.5,85.5 Z"/></g>
<g><path style="opacity:1" fill="#bbbbbb" d="M 194.5,91.5 C 196.262,92.2623 197.262,93.5956 197.5,95.5C 195.738,94.7377 194.738,93.4044 194.5,91.5 Z"/></g>
<g><path style="opacity:1" fill="#b6b6b6" d="M 67.5,92.5 C 67.573,94.0269 66.9063,95.0269 65.5,95.5C 65.427,93.9731 66.0937,92.9731 67.5,92.5 Z"/></g>
<g><path style="opacity:1" fill="#b7b7b7" d="M 200.5,98.5 C 201.906,98.9731 202.573,99.9731 202.5,101.5C 201.094,101.027 200.427,100.027 200.5,98.5 Z"/></g>
<g><path style="opacity:1" fill="#bababa" d="M 61.5,99.5 C 61.573,101.027 60.9063,102.027 59.5,102.5C 59.427,100.973 60.0937,99.9731 61.5,99.5 Z"/></g>
<g><path style="opacity:1" fill="#b8b8b8" d="M 205.5,104.5 C 207.262,105.262 208.262,106.596 208.5,108.5C 206.738,107.738 205.738,106.404 205.5,104.5 Z"/></g>
<g><path style="opacity:1" fill="#b6b6b6" d="M 56.5,105.5 C 56.2624,107.404 55.2624,108.738 53.5,109.5C 53.7376,107.596 54.7376,106.262 56.5,105.5 Z"/></g>
<g><path style="opacity:1" fill="#b5b5b5" d="M 211.5,111.5 C 212.906,111.973 213.573,112.973 213.5,114.5C 212.094,114.027 211.427,113.027 211.5,111.5 Z"/></g>
<g><path style="opacity:1" fill="#d4d4d4" d="M 247.5,120.5 C 297.612,117.636 335.779,137.302 362,179.5C 385.026,225.953 380.693,269.62 349,310.5C 314.733,346.363 273.567,357.863 225.5,345C 170.192,322.586 144.025,281.419 147,221.5C 154.745,176.088 179.911,144.588 222.5,127C 230.838,124.333 239.172,122.167 247.5,120.5 Z M 325.5,290.5 C 324.094,290.973 323.427,291.973 323.5,293.5C 322.167,294.167 321.167,295.167 320.5,296.5C 317.911,297.419 315.911,299.086 314.5,301.5C 282.269,325.072 248.935,326.572 214.5,306C 208.43,301.633 202.764,296.8 197.5,291.5C 197.573,289.973 196.906,288.973 195.5,288.5C 195.167,287.5 194.5,286.833 193.5,286.5C 193.573,284.973 192.906,283.973 191.5,283.5C 191.573,281.973 190.906,280.973 189.5,280.5C 170.154,244.944 172.987,211.277 198,179.5C 224,152.958 254.834,145.125 290.5,156C 330.05,173.579 348.217,204.079 345,247.5C 342.621,263.844 336.121,278.178 325.5,290.5 Z"/></g>
<g><path style="opacity:1" fill="#b6b6b6" d="M 39.5,125.5 C 39.2624,127.404 38.2624,128.738 36.5,129.5C 36.7376,127.596 37.7376,126.262 39.5,125.5 Z"/></g>
<g><path style="opacity:1" fill="#6d6d6d" d="M 252.5,140.5 C 301.089,139.638 334.256,161.638 352,206.5C 362.305,244.243 353.805,277.077 326.5,305C 296.767,330.098 263.434,336.432 226.5,324C 183.372,303.602 163.539,269.436 167,221.5C 177.281,175.047 205.781,148.047 252.5,140.5 Z M 325.5,290.5 C 324.094,290.973 323.427,291.973 323.5,293.5C 322.167,294.167 321.167,295.167 320.5,296.5C 317.911,297.419 315.911,299.086 314.5,301.5C 282.269,325.072 248.935,326.572 214.5,306C 208.43,301.633 202.764,296.8 197.5,291.5C 197.573,289.973 196.906,288.973 195.5,288.5C 195.167,287.5 194.5,286.833 193.5,286.5C 193.573,284.973 192.906,283.973 191.5,283.5C 191.573,281.973 190.906,280.973 189.5,280.5C 170.154,244.944 172.987,211.277 198,179.5C 224,152.958 254.834,145.125 290.5,156C 330.05,173.579 348.217,204.079 345,247.5C 342.621,263.844 336.121,278.178 325.5,290.5 Z"/></g>
<g><path style="opacity:1" fill="#a5a5a5" d="M 180.5,140.5 C 179.089,142.914 177.089,144.581 174.5,145.5C 175.911,143.086 177.911,141.419 180.5,140.5 Z"/></g>
<g><path style="opacity:1" fill="#b7b7b7" d="M 354.5,151.5 C 356.262,152.262 357.262,153.596 357.5,155.5C 355.738,154.738 354.738,153.404 354.5,151.5 Z"/></g>
<g><path style="opacity:1" fill="#b4b4b4" d="M 158.5,164.5 C 158.573,166.027 157.906,167.027 156.5,167.5C 156.427,165.973 157.094,164.973 158.5,164.5 Z"/></g>
<g><path style="opacity:1" fill="#bababa" d="M 364.5,164.5 C 365.906,164.973 366.573,165.973 366.5,167.5C 365.094,167.027 364.427,166.027 364.5,164.5 Z"/></g>
<g><path style="opacity:1" fill="#b8b8b8" d="M 156.5,167.5 C 156.573,169.027 155.906,170.027 154.5,170.5C 154.427,168.973 155.094,167.973 156.5,167.5 Z"/></g>
<g><path style="opacity:1" fill="#656665" d="M 86.5,185.5 C 89.8333,185.5 93.1667,185.5 96.5,185.5C 96.5,192.167 96.5,198.833 96.5,205.5C 93.1667,205.5 89.8333,205.5 86.5,205.5C 86.5,198.833 86.5,192.167 86.5,185.5 Z"/></g>
<g><path style="opacity:1" fill="#656665" d="M 426.5,205.5 C 429.833,205.5 433.167,205.5 436.5,205.5C 436.5,218.833 436.5,232.167 436.5,245.5C 433.167,245.5 429.833,245.5 426.5,245.5C 426.5,232.167 426.5,218.833 426.5,205.5 Z"/></g>
<g><path style="opacity:1" fill="#656665" d="M 86.5,225.5 C 89.8333,225.5 93.1667,225.5 96.5,225.5C 96.5,238.833 96.5,252.167 96.5,265.5C 93.1667,265.5 89.8333,265.5 86.5,265.5C 86.5,252.167 86.5,238.833 86.5,225.5 Z"/></g>
<g><path style="opacity:1" fill="#656665" d="M 426.5,265.5 C 429.833,265.5 433.167,265.5 436.5,265.5C 436.5,272.167 436.5,278.833 436.5,285.5C 433.167,285.5 429.833,285.5 426.5,285.5C 426.5,278.833 426.5,272.167 426.5,265.5 Z"/></g>
<g><path style="opacity:1" fill="#bebebe" d="M 189.5,280.5 C 190.906,280.973 191.573,281.973 191.5,283.5C 190.094,283.027 189.427,282.027 189.5,280.5 Z"/></g>
<g><path style="opacity:1" fill="#bcbcbc" d="M 191.5,283.5 C 192.906,283.973 193.573,284.973 193.5,286.5C 192.094,286.027 191.427,285.027 191.5,283.5 Z"/></g>
<g><path style="opacity:1" fill="#bababa" d="M 195.5,288.5 C 196.906,288.973 197.573,289.973 197.5,291.5C 196.094,291.027 195.427,290.027 195.5,288.5 Z"/></g>
<g><path style="opacity:1" fill="#b6b6b6" d="M 325.5,290.5 C 325.573,292.027 324.906,293.027 323.5,293.5C 323.427,291.973 324.094,290.973 325.5,290.5 Z"/></g>
<g><path style="opacity:1" fill="#a6a6a6" d="M 320.5,296.5 C 319.089,298.914 317.089,300.581 314.5,301.5C 315.911,299.086 317.911,297.419 320.5,296.5 Z"/></g>
<g><path style="opacity:1" fill="#b7b7b7" d="M 319.5,352.5 C 320.906,352.973 321.573,353.973 321.5,355.5C 320.094,355.027 319.427,354.027 319.5,352.5 Z"/></g>
<g><path style="opacity:1" fill="#b7b7b7" d="M 463.5,352.5 C 463.573,354.027 462.906,355.027 461.5,355.5C 461.427,353.973 462.094,352.973 463.5,352.5 Z"/></g>
<g><path style="opacity:1" fill="#bbbbbb" d="M 325.5,359.5 C 326.906,359.973 327.573,360.973 327.5,362.5C 326.094,362.027 325.427,361.027 325.5,359.5 Z"/></g>
<g><path style="opacity:1" fill="#bababa" d="M 457.5,359.5 C 457.573,361.027 456.906,362.027 455.5,362.5C 455.427,360.973 456.094,359.973 457.5,359.5 Z"/></g>
<g><path style="opacity:1" fill="#bbbbbb" d="M 330.5,365.5 C 332.262,366.262 333.262,367.596 333.5,369.5C 331.738,368.738 330.738,367.404 330.5,365.5 Z"/></g>
<g><path style="opacity:1" fill="#b6b6b6" d="M 452.5,365.5 C 452.262,367.404 451.262,368.738 449.5,369.5C 449.738,367.596 450.738,366.262 452.5,365.5 Z"/></g>
<g><path style="opacity:1" fill="#b7b7b7" d="M 336.5,372.5 C 337.906,372.973 338.573,373.973 338.5,375.5C 337.094,375.027 336.427,374.027 336.5,372.5 Z"/></g>
<g><path style="opacity:1" fill="#b6b6b6" d="M 446.5,372.5 C 446.573,374.027 445.906,375.027 444.5,375.5C 444.427,373.973 445.094,372.973 446.5,372.5 Z"/></g>
<g><path style="opacity:1" fill="#bababa" d="M 342.5,379.5 C 343.906,379.973 344.573,380.973 344.5,382.5C 343.094,382.027 342.427,381.027 342.5,379.5 Z"/></g>
<g><path style="opacity:1" fill="#bababa" d="M 440.5,379.5 C 440.573,381.027 439.906,382.027 438.5,382.5C 438.427,380.973 439.094,379.973 440.5,379.5 Z"/></g>
<g><path style="opacity:1" fill="#bbbbbb" d="M 347.5,385.5 C 349.262,386.262 350.262,387.596 350.5,389.5C 348.738,388.738 347.738,387.404 347.5,385.5 Z"/></g>
<g><path style="opacity:1" fill="#b6b6b6" d="M 435.5,385.5 C 435.262,387.404 434.262,388.738 432.5,389.5C 432.738,387.596 433.738,386.262 435.5,385.5 Z"/></g>
<g><path style="opacity:1" fill="#b6b6b6" d="M 353.5,392.5 C 354.906,392.973 355.573,393.973 355.5,395.5C 354.094,395.027 353.427,394.027 353.5,392.5 Z"/></g>
<g><path style="opacity:1" fill="#b4b4b4" d="M 429.5,392.5 C 429.573,394.027 428.906,395.027 427.5,395.5C 427.427,393.973 428.094,392.973 429.5,392.5 Z"/></g>
<g><path style="opacity:1" fill="#bababa" d="M 359.5,399.5 C 360.906,399.973 361.573,400.973 361.5,402.5C 360.094,402.027 359.427,401.027 359.5,399.5 Z"/></g>
<g><path style="opacity:1" fill="#bababa" d="M 423.5,399.5 C 423.573,401.027 422.906,402.027 421.5,402.5C 421.427,400.973 422.094,399.973 423.5,399.5 Z"/></g>
<g><path style="opacity:1" fill="#bbbbbb" d="M 364.5,405.5 C 366.262,406.262 367.262,407.596 367.5,409.5C 365.738,408.738 364.738,407.404 364.5,405.5 Z"/></g>
<g><path style="opacity:1" fill="#b4b4b4" d="M 370.5,412.5 C 371.906,412.973 372.573,413.973 372.5,415.5C 371.094,415.027 370.427,414.027 370.5,412.5 Z"/></g>
<g><path style="opacity:1" fill="#b4b4b4" d="M 412.5,412.5 C 412.573,414.027 411.906,415.027 410.5,415.5C 410.427,413.973 411.094,412.973 412.5,412.5 Z"/></g>
<g><path style="opacity:1" fill="#bababa" d="M 376.5,419.5 C 377.906,419.973 378.573,420.973 378.5,422.5C 377.094,422.027 376.427,421.027 376.5,419.5 Z"/></g>
<g><path style="opacity:1" fill="#b9b9b9" d="M 406.5,419.5 C 406.573,421.027 405.906,422.027 404.5,422.5C 404.427,420.973 405.094,419.973 406.5,419.5 Z"/></g>
<g><path style="opacity:1" fill="#bababa" d="M 381.5,425.5 C 383.262,426.262 384.262,427.596 384.5,429.5C 382.738,428.738 381.738,427.404 381.5,425.5 Z"/></g>
<g><path style="opacity:1" fill="#b4b4b4" d="M 387.5,432.5 C 388.906,432.973 389.573,433.973 389.5,435.5C 388.094,435.027 387.427,434.027 387.5,432.5 Z"/></g>
<g><path style="opacity:1" fill="#b9b9b9" d="M 395.5,432.5 C 395.262,434.404 394.262,435.738 392.5,436.5C 392.738,434.596 393.738,433.262 395.5,432.5 Z"/></g>
</svg>
