<?xml version="1.0" encoding="UTF-8" standalone="no"?>
<svg
   xmlns:dc="http://purl.org/dc/elements/1.1/"
   xmlns:cc="http://creativecommons.org/ns#"
   xmlns:rdf="http://www.w3.org/1999/02/22-rdf-syntax-ns#"
   xmlns:svg="http://www.w3.org/2000/svg"
   xmlns="http://www.w3.org/2000/svg"
   xmlns:sodipodi="http://sodipodi.sourceforge.net/DTD/sodipodi-0.dtd"
   xmlns:inkscape="http://www.inkscape.org/namespaces/inkscape"
   id="ic_empty_Dark_zpiv"
   width="100"
   height="100"
   viewBox="0 0 100 100"
   version="1.1"
   sodipodi:docname="img-empty-privacy-dark.svg"
   inkscape:version="0.92.4 (5da689c313, 2019-01-14)">
  <metadata
     id="metadata23">
    <rdf:RDF>
      <cc:Work
         rdf:about="">
        <dc:format>image/svg+xml</dc:format>
        <dc:type
           rdf:resource="http://purl.org/dc/dcmitype/StillImage" />
      </cc:Work>
    </rdf:RDF>
  </metadata>
  <sodipodi:namedview
     pagecolor="#ffffff"
     bordercolor="#666666"
     borderopacity="1"
     objecttolerance="10"
     gridtolerance="10"
     guidetolerance="10"
     inkscape:pageopacity="0"
     inkscape:pageshadow="2"
     inkscape:window-width="1920"
     inkscape:window-height="1017"
     id="namedview21"
     showgrid="false"
     inkscape:zoom="2.36"
     inkscape:cx="202.32632"
     inkscape:cy="50"
     inkscape:window-x="-8"
     inkscape:window-y="-8"
     inkscape:window-maximized="1"
     inkscape:current-layer="Group_9080" />
  <defs
     id="defs4">
    <style
       type="text/css"
       id="style2">
            .cls-1{fill:#413d4a}.cls-2{fill:#a09ea5}.cls-3{fill:none}
        </style>
  </defs>
  <path
     style="fill:#413d4a"
     inkscape:connector-curvature="0"
     data-name="Path 19026"
     class="cls-1"
     d="M 50,26 A 24,24 0 1 0 74,50 24,24 0 0 0 50,26 Z m 0,42 A 18,18 0 1 1 68,50 18,18 0 0 1 50,68 Z"
     id="Path_19026" />
  <g
     data-name="Group 9080"
     id="Group_9080">
    <g
       data-name="Group 9078"
       id="Group_9078">
      <path
         style="fill:#a09ea5"
         inkscape:connector-curvature="0"
         data-name="Path 19027"
         class="cls-2"
         d="M 50,31 A 19,19 0 1 0 69,50 19.021,19.021 0 0 0 50,31 Z m 0,36 A 17,17 0 1 1 67,50 17.019,17.019 0 0 1 50,67 Z"
         id="Path_19027" />
      <path
         style="fill:#a09ea5"
         inkscape:connector-curvature="0"
         transform="translate(83,56)"
         data-name="Rectangle 4744"
         class="cls-2"
         d="M 0,0 H 2 V 4 H 0 Z"
         id="Rectangle_4744" />
      <path
         style="fill:#a09ea5"
         inkscape:connector-curvature="0"
         transform="translate(83,44)"
         data-name="Rectangle 4745"
         class="cls-2"
         d="M 0,0 H 2 V 8 H 0 Z"
         id="Rectangle_4745" />
      <path
         style="fill:#a09ea5"
         inkscape:connector-curvature="0"
         transform="translate(15,48)"
         data-name="Rectangle 4746"
         class="cls-2"
         d="M 0,0 H 2 V 8 H 0 Z"
         id="Rectangle_4746" />
      <path
         style="fill:#a09ea5"
         inkscape:connector-curvature="0"
         transform="translate(15,40)"
         data-name="Rectangle 4747"
         class="cls-2"
         d="M 0,0 H 2 V 4 H 0 Z"
         id="Rectangle_4747" />
      <path
         style="fill:#a09ea5"
         inkscape:connector-curvature="0"
         data-name="Path 19028"
         class="cls-2"
         d="M 95.162,71 H 85 v -7 h -2 v 9 h 7.838 L 76,90.456 61.162,73 H 68 V 71 H 63.539 A 24.989,24.989 0 0 0 41.139,26.626 L 24,6.456 4.838,29 H 15 v 7 h 2 V 27 H 9.162 L 24,9.544 38.838,27 H 32 v 2 h 4.461 a 24.989,24.989 0 0 0 22.4,44.374 L 76,93.544 Z M 27,50 A 23,23 0 1 1 50,73 23.026,23.026 0 0 1 27,50 Z"
         id="Path_19028" />
    </g>
    <g
       data-name="Group 9079"
       id="Group_9079">
      <g
         id="g38" />
    </g>
  </g>
  <path
     id="Rectangle_4748"
     d="M0 0h100v100H0z"
     class="cls-3"
     data-name="Rectangle 4748" />
</svg>
